<?xml version="1.0" standalone="no"?>
<!DOCTYPE svg PUBLIC "-//W3C//DTD SVG 1.1//EN" "http://www.w3.org/Graphics/SVG/1.1/DTD/svg11.dtd" >
<svg>
<metadata>
Created by FontForge 20090622 at Thu May 25 09:16:12 2017
 By deploy user
Digitized data copyright 2012-2016, The Mozilla Foundation and Telefonica S.A.
</metadata>
<defs>
<font id="FiraSans-ExtraLight" horiz-adv-x="560" >
  <font-face 
    font-family="Fira Sans ExtraLight"
    font-weight="250"
    font-stretch="normal"
    units-per-em="1000"
    panose-1="2 11 4 3 5 0 0 2 0 4"
    ascent="800"
    descent="-200"
    x-height="522"
    cap-height="684"
    bbox="-726 -350 1360 1050"
    underline-thickness="50"
    underline-position="-50"
    unicode-range="U+000D-U+FEFF"
  />
<missing-glyph horiz-adv-x="666" 
d="M543 1050v-1400h-420v1400h420zM489 998h-311v-1296h311v1296zM324 451q111 0 111 -115q0 -104 -95 -118v-45q0 -11 -7.5 -17.5t-17.5 -6.5t-17.5 6.5t-7.5 17.5v84q53 3 72 19.5t19 57.5q0 33 -13 51t-48 18q-29 0 -52 -11q-7 -3 -13 -3q-24 0 -24 23q0 19 29.5 29
t63.5 10zM315 120q15 0 25 -10t10 -25q0 -16 -10 -26.5t-25 -10.5t-25 10.5t-10 26.5q0 15 10 25t25 10z" />
    <glyph glyph-name="fi" unicode="fi" horiz-adv-x="559" 
d="M254 741q76 0 148 -37l-17 -35q-68 32 -129 32q-50 0 -74 -21t-24 -73v-85h291v-522h-46v483h-245v-483h-46v483h-87v39h87v90q0 63 37 96t105 33z" />
    <glyph glyph-name="fl" unicode="fl" horiz-adv-x="580" 
d="M532 37l13 -35q-30 -13 -56 -13q-85 0 -85 96v593q-73 23 -140 23q-54 0 -80 -21.5t-26 -69.5v-88h141l-6 -39h-135v-483h-46v483h-87v39h87v90q0 61 38.5 95t110.5 34q66 0 143 -25v1l46 6v-639q0 -54 46 -54q17 0 36 7z" />
    <glyph glyph-name=".notdef" horiz-adv-x="666" 
d="M543 1050v-1400h-420v1400h420zM489 998h-311v-1296h311v1296zM324 451q111 0 111 -115q0 -104 -95 -118v-45q0 -11 -7.5 -17.5t-17.5 -6.5t-17.5 6.5t-7.5 17.5v84q53 3 72 19.5t19 57.5q0 33 -13 51t-48 18q-29 0 -52 -11q-7 -3 -13 -3q-24 0 -24 23q0 19 29.5 29
t63.5 10zM315 120q15 0 25 -10t10 -25q0 -16 -10 -26.5t-25 -10.5t-25 10.5t-10 26.5q0 15 10 25t25 10z" />
    <glyph glyph-name=".null" horiz-adv-x="0" 
 />
    <glyph glyph-name="nonmarkingreturn" horiz-adv-x="333" 
 />
    <glyph glyph-name="CR" unicode="&#xd;" horiz-adv-x="284" 
 />
    <glyph glyph-name="space" unicode=" " horiz-adv-x="284" 
 />
    <glyph glyph-name="exclam" unicode="!" horiz-adv-x="240" 
d="M143 684l-2 -470h-43l-3 470h48zM120 69q18 0 29 -11.5t11 -28.5t-11 -28.5t-29 -11.5q-17 0 -28.5 11.5t-11.5 28.5t11.5 28.5t28.5 11.5z" />
    <glyph glyph-name="quotedbl" unicode="&#x22;" horiz-adv-x="349" 
d="M82 436l-7 248h49l-7 -248h-35zM232 436l-7 248h49l-7 -248h-35z" />
    <glyph glyph-name="numbersign" unicode="#" horiz-adv-x="498" 
d="M483 454h-79l-30 -230h72v-38h-77l-25 -186h-43l25 186h-193l-25 -186h-43l25 186h-75v38h80l30 230h-73v39h78l23 171h43l-23 -171h193l23 171h43l-23 -171h74v-39zM331 224l30 230h-193l-30 -230h193z" />
    <glyph glyph-name="dollar" unicode="$" horiz-adv-x="524" 
d="M465 180q0 -78 -50 -129.5t-133 -59.5v-140h-41v138q-113 3 -197 82l28 30q76 -71 178 -71q75 0 121.5 40t46.5 109q0 62 -35 95t-127 61q-102 32 -144 71.5t-42 106.5q0 66 47 110.5t124 48.5v145h41v-145q89 -5 163 -71l-29 -30q-66 62 -157 62q-64 0 -103 -32.5
t-39 -86.5q0 -53 33.5 -82.5t123.5 -56.5q101 -32 146 -73.5t45 -121.5z" />
    <glyph glyph-name="percent" unicode="%" horiz-adv-x="781" 
d="M609 701l35 -23l-463 -699l-35 22zM201 675q65 0 105 -43.5t40 -115.5q0 -74 -39 -118t-106 -44q-65 0 -105 43.5t-40 116.5t39.5 117t105.5 44zM201 640q-52 0 -76.5 -35t-24.5 -91q0 -54 25 -89t76 -35q52 0 76.5 35t24.5 91q0 54 -25 89t-76 35zM580 310
q65 0 105 -43.5t40 -115.5q0 -74 -39 -118t-106 -44q-64 0 -104.5 44t-40.5 116q0 73 39.5 117t105.5 44zM580 275q-51 0 -76 -35.5t-25 -90.5q0 -54 25 -89t76 -35q52 0 76.5 35t24.5 91q0 54 -24.5 89t-76.5 35z" />
    <glyph glyph-name="ampersand" unicode="&#x26;" horiz-adv-x="719" 
d="M301 694q71 0 115.5 -41t44.5 -105q0 -57 -37.5 -98.5t-119.5 -86.5l215 -201q45 92 68 198l43 -13q-29 -121 -83 -213l129 -118l-36 -27l-117 109q-87 -109 -225 -109q-88 0 -146 50t-58 131q0 65 36 111t109 88q-56 52 -79 88.5t-23 85.5q0 65 45.5 108t118.5 43z
M301 657q-53 0 -85.5 -32.5t-32.5 -80.5q0 -39 18 -69.5t75 -84.5q73 39 106 75t33 81q0 52 -32 81.5t-82 29.5zM267 343q-63 -38 -94.5 -78.5t-31.5 -93.5q0 -63 45.5 -102.5t114.5 -39.5q117 0 193 97z" />
    <glyph glyph-name="quotesingle" unicode="'" horiz-adv-x="199" 
d="M82 436l-7 248h49l-7 -248h-35z" />
    <glyph glyph-name="parenleft" unicode="(" horiz-adv-x="324" 
d="M236 835l29 -20q-54 -80 -83 -133t-52.5 -140.5t-23.5 -191.5q0 -103 23.5 -191t52.5 -141.5t83 -132.5l-29 -20q-46 64 -70.5 103.5t-53 100.5t-41 129.5t-12.5 151.5t12.5 151.5t41 129.5t53 100.5t70.5 103.5z" />
    <glyph glyph-name="parenright" unicode=")" horiz-adv-x="324" 
d="M88 835q46 -64 70.5 -103.5t53 -100.5t41 -129.5t12.5 -151.5t-12.5 -151.5t-41 -129.5t-53 -100.5t-70.5 -103.5l-29 20q54 79 83 132.5t52.5 141.5t23.5 191q0 104 -23.5 191.5t-52.5 140.5t-83 133z" />
    <glyph glyph-name="asterisk" unicode="*" horiz-adv-x="435" 
d="M396 589l-152 -42l98 -125l-37 -27l-87 131l-88 -131l-37 27l98 124l-152 43l13 41l148 -55l-5 160h45l-5 -158l147 54z" />
    <glyph glyph-name="plus" unicode="+" horiz-adv-x="491" 
d="M268 504v-153h151v-41h-151v-153h-45v153h-151v41h151v153h45z" />
    <glyph glyph-name="comma" unicode="," horiz-adv-x="195" 
d="M97 69q18 0 29.5 -11.5t11.5 -28.5q0 -15 -14 -49l-52 -126h-34l40 141q-21 10 -21 34q0 17 11.5 28.5t28.5 11.5z" />
    <glyph glyph-name="hyphen" unicode="-" horiz-adv-x="400" 
d="M71 293v40h258v-40h-258z" />
    <glyph glyph-name="period" unicode="." horiz-adv-x="195" 
d="M97 69q18 0 29.5 -11.5t11.5 -28.5t-11.5 -28.5t-29.5 -11.5q-17 0 -28.5 11.5t-11.5 28.5t11.5 28.5t28.5 11.5z" />
    <glyph glyph-name="slash" unicode="/" horiz-adv-x="520" 
d="M356 801l40 -11l-232 -888l-40 11z" />
    <glyph glyph-name="zero" unicode="0" horiz-adv-x="547" 
d="M274 675q99 0 151 -87t52 -257q0 -169 -52 -255.5t-151 -86.5t-151.5 87.5t-52.5 256.5t52 255.5t152 86.5zM274 636q-156 0 -156 -303q0 -304 156 -304q155 0 155 302q0 305 -155 305z" />
    <glyph glyph-name="one" unicode="1" horiz-adv-x="406" 
d="M281 664v-664h-46v612l-167 -105l-22 35l196 122h39z" />
    <glyph glyph-name="two" unicode="2" horiz-adv-x="473" 
d="M224 675q81 0 129 -48.5t48 -123.5q0 -41 -11 -78.5t-27.5 -70t-60 -85.5t-82.5 -96l-121 -131h320l-7 -42h-368v40q198 213 253.5 293t55.5 167q0 62 -35.5 98.5t-95.5 36.5q-90 0 -153 -77l-33 24q77 93 188 93z" />
    <glyph glyph-name="three" unicode="3" horiz-adv-x="482" 
d="M219 675q82 0 130.5 -46.5t48.5 -118.5q0 -66 -37 -106.5t-95 -49.5q65 -2 107.5 -46.5t42.5 -121.5q0 -87 -56.5 -142t-150.5 -55q-111 0 -187 85l30 26q65 -70 156 -70q75 0 117.5 42.5t42.5 112.5q0 147 -155 147h-42l6 38h32q59 0 100.5 35t41.5 103q0 59 -36.5 93
t-97.5 34q-82 0 -151 -63l-25 29q76 74 178 74z" />
    <glyph glyph-name="four" unicode="4" horiz-adv-x="513" 
d="M476 218v-40h-91v-178h-45v178h-293v36l204 461l39 -16l-194 -441h244l5 200h40v-200h91z" />
    <glyph glyph-name="five" unicode="5" horiz-adv-x="482" 
d="M408 664l-8 -40h-273v-238q52 33 116 33q86 0 136 -54.5t50 -150.5q0 -100 -56.5 -162.5t-151.5 -62.5q-108 0 -185 79l31 28q63 -66 155 -66q73 0 116 50t43 135q0 82 -39.5 123.5t-106.5 41.5q-60 0 -116 -34h-37v318h326z" />
    <glyph glyph-name="six" unicode="6" horiz-adv-x="520" 
d="M292 431q76 0 125 -53t49 -155q0 -107 -53.5 -170.5t-136.5 -63.5q-107 0 -156.5 84t-49.5 222q0 177 63 278.5t172 101.5q64 0 119 -38l-21 -33q-47 32 -99 32q-85 0 -134 -85t-53 -223q69 103 175 103zM276 29q69 0 106 53t37 140q0 85 -36 127t-96 42
q-105 0 -170 -115q7 -247 159 -247z" />
    <glyph glyph-name="seven" unicode="7" horiz-adv-x="434" 
d="M397 664v-37l-266 -634l-44 15l261 616h-316v40h365z" />
    <glyph glyph-name="eight" unicode="8" horiz-adv-x="533" 
d="M327 350q79 -32 114.5 -72.5t35.5 -106.5q0 -83 -58.5 -132.5t-153.5 -49.5t-152 50t-57 131q0 133 148 188q-62 27 -90 62t-28 91q0 75 53 119.5t128 44.5t128.5 -43t53.5 -121q0 -53 -29 -90.5t-93 -70.5zM132 510q0 -48 26.5 -77t95.5 -55l37 -14q59 31 85 64.5
t26 80.5q0 61 -37.5 94.5t-97.5 33.5q-59 0 -97 -33.5t-38 -93.5zM266 30q73 0 118 37t45 104q0 61 -33 93.5t-116 64.5l-36 14q-74 -28 -107 -69t-33 -104q0 -67 44 -103.5t118 -36.5z" />
    <glyph glyph-name="nine" unicode="9" horiz-adv-x="515" 
d="M254 675q99 0 148 -70.5t49 -200.5q0 -126 -39.5 -210t-107.5 -130.5t-180 -81.5l-12 36q140 44 212 119.5t80 210.5q-65 -98 -169 -98q-78 0 -128.5 56.5t-50.5 151.5q0 99 55.5 158t142.5 59zM242 290q93 0 162 105q0 122 -35.5 181.5t-113.5 59.5q-70 0 -110.5 -47
t-40.5 -132q0 -79 37.5 -123t100.5 -44z" />
    <glyph glyph-name="colon" unicode=":" horiz-adv-x="195" 
d="M97 467q18 0 29.5 -11.5t11.5 -28.5t-11.5 -28.5t-29.5 -11.5q-17 0 -28.5 11.5t-11.5 28.5t11.5 28.5t28.5 11.5zM97 69q18 0 29.5 -11.5t11.5 -28.5t-11.5 -28.5t-29.5 -11.5q-17 0 -28.5 11.5t-11.5 28.5t11.5 28.5t28.5 11.5z" />
    <glyph glyph-name="semicolon" unicode=";" horiz-adv-x="195" 
d="M97 467q18 0 29.5 -11.5t11.5 -28.5t-11.5 -28.5t-29.5 -11.5q-17 0 -28.5 11.5t-11.5 28.5t11.5 28.5t28.5 11.5zM97 69q18 0 29.5 -11.5t11.5 -28.5q0 -15 -14 -49l-52 -126h-34l40 141q-21 10 -21 34q0 17 11.5 28.5t28.5 11.5z" />
    <glyph glyph-name="less" unicode="&#x3c;" horiz-adv-x="496" 
d="M410 521l17 -39l-314 -149l314 -152l-17 -39l-341 171v40z" />
    <glyph glyph-name="equal" unicode="=" horiz-adv-x="491" 
d="M72 394v42h347v-42h-347zM72 225v42h347v-42h-347z" />
    <glyph glyph-name="greater" unicode="&#x3e;" horiz-adv-x="496" 
d="M86 521l341 -168v-40l-341 -171l-17 39l314 152l-314 149z" />
    <glyph glyph-name="question" unicode="?" horiz-adv-x="443" 
d="M233 694q76 0 121 -41t45 -101q0 -35 -13.5 -62.5t-34 -44l-44.5 -34.5l-44.5 -34t-34 -43t-13.5 -62v-58h-45v62q0 39 13.5 69.5t33.5 48t43 35l43 31.5t33.5 37t13.5 53q0 47 -32 75.5t-87 28.5q-47 0 -82.5 -18t-71.5 -57l-32 25q78 90 188 90zM195 69
q18 0 29.5 -11.5t11.5 -28.5t-11.5 -28.5t-29.5 -11.5q-17 0 -28.5 11.5t-11.5 28.5t11.5 28.5t28.5 11.5z" />
    <glyph glyph-name="at" unicode="@" horiz-adv-x="1020" 
d="M526 694q191 0 297.5 -111.5t106.5 -274.5q0 -149 -50 -222t-126 -73q-48 0 -79 31t-40 80q-49 -109 -150 -109q-72 0 -119 57.5t-47 159.5q0 123 57.5 186.5t148.5 63.5q69 0 141 -36v-257q0 -138 88 -138q57 0 93 59.5t36 195.5q0 151 -94.5 249.5t-262.5 98.5
q-173 0 -281 -118.5t-108 -296.5q0 -183 106.5 -292t281.5 -109q97 0 188 33l12 -38q-104 -36 -201 -36q-192 0 -313 119.5t-121 322.5q0 194 121.5 324.5t314.5 130.5zM490 54q48 0 82.5 32.5t49.5 79.5v255q-46 23 -96 23q-75 0 -118 -55.5t-43 -156.5q0 -87 34 -132.5
t91 -45.5z" />
    <glyph glyph-name="A" unicode="A" horiz-adv-x="562" 
d="M491 0l-63 192h-297l-63 -192h-48l231 684h60l231 -684h-51zM145 234h270l-134 411z" />
    <glyph glyph-name="B" unicode="B" horiz-adv-x="594" 
d="M380 363q69 -7 113.5 -49.5t44.5 -125.5q0 -92 -62.5 -140t-175.5 -48h-185v684h149q116 0 178.5 -43t62.5 -127q0 -65 -33.5 -103t-91.5 -48zM269 643h-107v-263h150q65 0 104.5 35t39.5 96q0 132 -187 132zM301 41q187 0 187 147q0 76 -46.5 114t-123.5 38h-156v-299
h139z" />
    <glyph glyph-name="C" unicode="C" horiz-adv-x="547" 
d="M344 694q96 0 171 -61l-26 -32q-66 52 -142 52q-101 0 -164 -76.5t-63 -234.5q0 -152 62.5 -231t161.5 -79q49 0 83 14.5t70 43.5l26 -32q-76 -69 -181 -69q-121 0 -196.5 92.5t-75.5 260.5q0 169 77.5 260.5t196.5 91.5z" />
    <glyph glyph-name="D" unicode="D" horiz-adv-x="628" 
d="M248 684q50 0 91.5 -7.5t83.5 -30t70.5 -58.5t46.5 -97.5t18 -142.5q0 -82 -18.5 -145t-48 -100.5t-70.5 -61.5t-81 -32.5t-85 -8.5h-140v684h133zM251 643h-89v-602h96q250 0 250 307q0 74 -15.5 129t-39 86t-59 50t-68.5 24.5t-75 5.5z" />
    <glyph glyph-name="E" unicode="E" horiz-adv-x="504" 
d="M454 684l-6 -41h-286v-266h247v-41h-247v-295h298v-41h-345v684h339z" />
    <glyph glyph-name="F" unicode="F" horiz-adv-x="477" 
d="M115 0v684h333l-6 -41h-280v-279h242v-40h-242v-324h-47z" />
    <glyph glyph-name="G" unicode="G" horiz-adv-x="614" 
d="M351 694q101 0 182 -65l-29 -31q-69 55 -153 55q-95 0 -163 -76.5t-68 -231.5q0 -156 61.5 -235t169.5 -79q80 0 148 37v256h-138l-6 41h191v-321q-93 -55 -195 -55q-130 0 -205.5 91.5t-75.5 264.5q0 86 23.5 154t63.5 110t89.5 63.5t104.5 21.5z" />
    <glyph glyph-name="H" unicode="H" horiz-adv-x="667" 
d="M504 0v339h-342v-339h-47v684h47v-303h342v303h48v-684h-48z" />
    <glyph glyph-name="I" unicode="I" horiz-adv-x="277" 
d="M162 684v-684h-47v684h47z" />
    <glyph glyph-name="J" unicode="J" horiz-adv-x="286" 
d="M177 684v-594q0 -84 -31 -125.5t-117 -77.5l-13 35q68 31 90.5 66t22.5 105v591h48z" />
    <glyph glyph-name="K" unicode="K" horiz-adv-x="533" 
d="M162 684v-684h-47v684h47zM516 684l-292 -315l309 -369h-59l-308 367l295 317h55z" />
    <glyph glyph-name="L" unicode="L" horiz-adv-x="470" 
d="M162 684v-640h288l-7 -44h-328v684h47z" />
    <glyph glyph-name="M" unicode="M" horiz-adv-x="768" 
d="M627 684l69 -684h-46l-34 334q-19 175 -29 304l-180 -556h-46l-186 556q-2 -47 -26 -299l-32 -339h-45l67 684h67l179 -545l174 545h68z" />
    <glyph glyph-name="N" unicode="N" horiz-adv-x="669" 
d="M554 684v-684h-61l-339 631q6 -88 6 -224v-407h-45v684h61l339 -631q-6 99 -6 200v431h45z" />
    <glyph glyph-name="O" unicode="O" horiz-adv-x="691" 
d="M345 694q126 0 201 -92t75 -261q0 -166 -74.5 -259t-201.5 -93q-125 0 -200 92t-75 259q0 166 75.5 260t199.5 94zM345 653q-104 0 -164.5 -79.5t-60.5 -233.5q0 -151 61 -230t164 -79q107 0 166.5 78.5t59.5 231.5q0 154 -60 233t-166 79z" />
    <glyph glyph-name="P" unicode="P" horiz-adv-x="566" 
d="M268 684q249 0 249 -203q0 -109 -67.5 -159t-184.5 -50h-103v-272h-47v684h153zM266 312q96 0 148.5 38.5t52.5 129.5q0 88 -50 125.5t-149 37.5h-106v-331h104z" />
    <glyph glyph-name="Q" unicode="Q" horiz-adv-x="690" 
d="M442 18q126 -2 201 -67l-32 -40q-53 46 -112 63t-154 17q-125 0 -200 91t-75 258q0 166 75.5 260t199.5 94q126 0 201 -92t75 -261q0 -265 -179 -323zM120 340q0 -151 61 -230t164 -79q107 0 166.5 78.5t59.5 231.5q0 154 -60 233t-166 79q-104 0 -164.5 -79.5
t-60.5 -233.5z" />
    <glyph glyph-name="R" unicode="R" horiz-adv-x="584" 
d="M491 0l-181 313h-148v-313h-47v684h161q237 0 237 -183q0 -143 -154 -180l189 -321h-57zM162 353h121q180 0 180 148q0 72 -44.5 107t-145.5 35h-111v-290z" />
    <glyph glyph-name="S" unicode="S" horiz-adv-x="537" 
d="M266 694q62 0 105.5 -18.5t85.5 -55.5l-28 -31q-73 64 -162 64q-67 0 -107.5 -33.5t-40.5 -88.5q0 -56 35 -86.5t128 -58.5q103 -31 149.5 -74.5t46.5 -126.5q0 -87 -60.5 -141.5t-159.5 -54.5q-124 0 -214 85l28 31q82 -74 185 -74q77 0 125 41t48 112q0 65 -36 99
t-131 63q-105 32 -148.5 73t-43.5 111q0 71 54 117.5t141 46.5z" />
    <glyph glyph-name="T" unicode="T" horiz-adv-x="487" 
d="M477 684l-6 -43h-204v-641h-47v641h-205v43h462z" />
    <glyph glyph-name="U" unicode="U" horiz-adv-x="648" 
d="M543 684v-473q0 -101 -55.5 -161.5t-163.5 -60.5t-163.5 60.5t-55.5 161.5v473h47v-469q0 -87 42.5 -135t129.5 -48t129 48.5t42 134.5v469h48z" />
    <glyph glyph-name="V" unicode="V" horiz-adv-x="543" 
d="M523 684l-224 -684h-55l-224 684h51l201 -636l201 636h50z" />
    <glyph glyph-name="W" unicode="W" horiz-adv-x="804" 
d="M771 684l-154 -684h-58l-157 632l-158 -632h-57l-155 684h49l137 -638l157 638h54l159 -638l137 638h46z" />
    <glyph glyph-name="X" unicode="X" horiz-adv-x="505" 
d="M278 371l215 -371h-54l-190 338l-185 -338h-52l210 368l-189 316h54l163 -284l161 284h52z" />
    <glyph glyph-name="Y" unicode="Y" horiz-adv-x="513" 
d="M497 684l-216 -415v-269h-47v268l-218 416h53l190 -372l186 372h52z" />
    <glyph glyph-name="Z" unicode="Z" horiz-adv-x="514" 
d="M465 684v-40l-373 -601h364l-6 -43h-413v40l375 602h-337v42h390z" />
    <glyph glyph-name="bracketleft" unicode="[" horiz-adv-x="315" 
d="M243 803v-38h-109v-838h109v-38h-152v914h152z" />
    <glyph glyph-name="backslash" unicode="\" horiz-adv-x="520" 
d="M164 801l232 -888l-41 -11l-231 889z" />
    <glyph glyph-name="bracketright" unicode="]" horiz-adv-x="315" 
d="M224 803v-914h-152v38h109v838h-109v38h152z" />
    <glyph glyph-name="asciicircum" unicode="^" horiz-adv-x="527" 
d="M282 830l183 -303h-53l-148 254l-148 -254h-54l183 303h37z" />
    <glyph glyph-name="underscore" unicode="_" horiz-adv-x="520" 
d="M33 -115v42h455v-42h-455z" />
    <glyph glyph-name="grave" unicode="`" horiz-adv-x="265" 
d="M51 776l184 -100l-15 -28l-190 84z" />
    <glyph glyph-name="a" unicode="a" horiz-adv-x="534" 
d="M425 113q0 -44 10.5 -63t33.5 -28l-11 -33q-34 9 -51.5 30t-21.5 62q-57 -92 -165 -92q-74 0 -117 42.5t-43 113.5q0 80 57 123.5t155 43.5h107v55q0 65 -29 95t-96 30q-63 0 -142 -31l-13 37q87 34 159 34q167 0 167 -162v-257zM226 28q101 0 153 99v149h-100
q-82 0 -126 -32.5t-44 -97.5q0 -56 31 -87t86 -31z" />
    <glyph glyph-name="b" unicode="b" horiz-adv-x="576" 
d="M316 532q90 0 139.5 -69.5t49.5 -198.5q0 -128 -51.5 -201.5t-144.5 -73.5q-94 0 -154 80l-5 -69h-40v735l46 6v-294q65 85 160 85zM302 29q74 0 114 60t40 175q0 229 -147 229q-49 0 -84.5 -23.5t-68.5 -68.5v-286q58 -86 146 -86z" />
    <glyph glyph-name="c" unicode="c" horiz-adv-x="466" 
d="M285 532q82 0 143 -51l-24 -31q-51 42 -117 42q-78 0 -124.5 -60t-46.5 -174q0 -112 46 -170t124 -58q66 0 122 46l24 -31q-62 -56 -146 -56q-100 0 -159.5 71.5t-59.5 197.5t59.5 200t158.5 74z" />
    <glyph glyph-name="d" unicode="d" horiz-adv-x="581" 
d="M425 741l46 -6v-735h-40l-5 82q-54 -93 -160 -93q-89 0 -141.5 72.5t-52.5 197.5q0 123 54.5 198t149.5 75q92 0 149 -73v282zM272 29q53 0 88.5 26t64.5 78v277q-56 83 -143 83q-74 0 -118.5 -62t-43.5 -172t41.5 -170t110.5 -60z" />
    <glyph glyph-name="e" unicode="e" horiz-adv-x="533" 
d="M471 282q0 -21 -2 -41h-354q5 -107 51 -159t120 -52t142 53l23 -30q-77 -64 -167 -64q-101 0 -159 71t-58 197t55.5 200.5t149.5 74.5q97 0 148 -67t51 -183zM426 278v19q0 91 -38 143.5t-114 52.5q-68 0 -111.5 -53.5t-47.5 -161.5h311z" />
    <glyph glyph-name="f" unicode="f" horiz-adv-x="316" 
d="M255 701q-95 0 -95 -91v-88h142l-7 -39h-135v-483h-46v483h-89v39h89v90q0 60 37.5 94.5t101.5 34.5q62 0 120 -28l-17 -35q-52 23 -101 23z" />
    <glyph glyph-name="g" unicode="g" horiz-adv-x="497" 
d="M471 562l15 -46q-45 -14 -142 -15q88 -42 88 -146q0 -77 -50 -123.5t-135 -46.5q-38 0 -69 11q-44 -24 -44 -64q0 -58 88 -58h86q75 0 119 -35.5t44 -93.5q0 -71 -55 -109.5t-165 -38.5q-114 0 -164.5 34.5t-50.5 112.5h44q1 -59 38 -83t133 -24q173 0 173 105
q0 43 -32.5 67t-90.5 24h-85q-61 0 -94 25.5t-33 64.5q0 51 57 87q-87 46 -87 148q0 78 51 126t136 48q98 -1 140.5 6t84.5 24zM247 495q-70 0 -105.5 -37t-35.5 -100q0 -65 38 -101t102 -36q67 0 103 35t36 100t-35 102t-103 37z" />
    <glyph glyph-name="h" unicode="h" horiz-adv-x="583" 
d="M335 532q70 0 106.5 -42t36.5 -118v-372h-46v366q0 128 -104 128q-95 0 -172 -113v-381h-46v735l46 6v-311q74 102 179 102z" />
    <glyph glyph-name="i" unicode="i" horiz-adv-x="266" 
d="M133 744q16 0 26 -10t10 -25t-10 -25t-26 -10t-26 10t-10 25t10 25t26 10zM156 522v-522h-46v522h46z" />
    <glyph glyph-name="j" unicode="j" horiz-adv-x="266" 
d="M133 744q16 0 26 -10t10 -25t-10 -25t-26 -10t-26 10t-10 25t10 25t26 10zM156 522v-508q0 -96 -29 -138t-102 -76l-13 33q56 28 77 63t21 117v509h46z" />
    <glyph glyph-name="k" unicode="k" horiz-adv-x="480" 
d="M156 741v-741h-46v735zM445 522l-228 -235l252 -287h-56l-251 285l229 237h54z" />
    <glyph glyph-name="l" unicode="l" horiz-adv-x="281" 
d="M191 -11q-40 0 -63 23.5t-23 69.5v653l46 6v-657q0 -54 45 -54q18 0 37 7l13 -35q-28 -13 -55 -13z" />
    <glyph glyph-name="m" unicode="m" horiz-adv-x="851" 
d="M613 532q63 0 98 -42.5t35 -117.5v-372h-46v366q0 128 -94 128q-85 0 -155 -113v-381h-46v366q0 128 -94 128q-85 0 -155 -113v-381h-46v522h40l4 -92q67 102 164 102q50 0 83.5 -28t44.5 -79q70 107 167 107z" />
    <glyph glyph-name="n" unicode="n" horiz-adv-x="583" 
d="M335 532q71 0 107 -41.5t36 -118.5v-372h-46v366q0 128 -104 128q-95 0 -172 -113v-381h-46v522h40l4 -93q74 103 181 103z" />
    <glyph glyph-name="o" unicode="o" horiz-adv-x="567" 
d="M284 532q102 0 159 -70.5t57 -198.5t-58 -201t-159 -73t-158.5 72.5t-57.5 198.5q0 127 58.5 199.5t158.5 72.5zM284 492q-79 0 -124 -59.5t-45 -172.5q0 -111 44 -171t124 -60q79 0 124 60t45 174q0 112 -44 170.5t-124 58.5z" />
    <glyph glyph-name="p" unicode="p" horiz-adv-x="576" 
d="M316 532q93 0 141 -69.5t48 -198.5q0 -128 -51 -201.5t-145 -73.5q-95 0 -153 76v-260l-46 -8v725h40l3 -79q64 89 163 89zM302 30q75 0 114.5 59.5t39.5 174.5q0 229 -146 229q-86 0 -154 -92v-287q56 -84 146 -84z" />
    <glyph glyph-name="q" unicode="q" horiz-adv-x="581" 
d="M431 522h40v-725l-46 8v274q-55 -90 -158 -90q-90 0 -142.5 72.5t-52.5 197.5q0 123 55 198t150 75q91 0 150 -75zM273 29q53 0 88.5 25.5t63.5 76.5v280q-56 82 -142 82q-74 0 -119 -62t-44 -172t41.5 -170t111.5 -60z" />
    <glyph glyph-name="r" unicode="r" horiz-adv-x="369" 
d="M303 532q34 0 52 -6l-9 -43q-19 6 -46 6q-55 0 -88.5 -39.5t-55.5 -123.5v-326h-46v522h40l3 -121q42 131 150 131z" />
    <glyph glyph-name="s" unicode="s" horiz-adv-x="463" 
d="M233 532q89 0 162 -57l-23 -31q-67 49 -138 49q-55 0 -89 -25.5t-34 -69.5q0 -40 29 -62t103 -42q90 -24 128 -57.5t38 -98.5q0 -68 -51.5 -108.5t-130.5 -40.5q-104 0 -183 67l26 30q71 -57 156 -57q60 0 97.5 28.5t37.5 79.5q0 50 -28.5 74t-112.5 47q-84 22 -120 54
t-36 86q0 59 48 96.5t121 37.5z" />
    <glyph glyph-name="t" unicode="t" horiz-adv-x="334" 
d="M319 54l19 -33q-50 -32 -108 -32q-57 0 -89.5 34t-32.5 100v360h-87v39h87v127l46 5v-132h138l-6 -39h-132v-357q0 -96 81 -96q42 0 84 24z" />
    <glyph glyph-name="u" unicode="u" horiz-adv-x="578" 
d="M468 522v-522h-39l-3 97q-61 -108 -173 -108q-71 0 -109.5 41.5t-38.5 118.5v373h46v-369q0 -124 111 -124q96 0 160 112v381h46z" />
    <glyph glyph-name="v" unicode="v" horiz-adv-x="462" 
d="M445 522l-181 -522h-58l-189 522h51l167 -482l160 482h50z" />
    <glyph glyph-name="w" unicode="w" horiz-adv-x="692" 
d="M664 522l-130 -522h-62l-125 478l-125 -478h-61l-134 522h49l117 -484l128 484h54l128 -485l116 485h45z" />
    <glyph glyph-name="x" unicode="x" horiz-adv-x="449" 
d="M252 280l185 -280h-55l-159 250l-158 -250h-53l184 278l-160 244h54l135 -215l135 215h53z" />
    <glyph glyph-name="y" unicode="y" horiz-adv-x="459" 
d="M442 522l-181 -524q-31 -91 -73 -135t-129 -64l-6 36q74 20 104.5 53.5t59.5 111.5h-16l-184 522h50l165 -487l160 487h50z" />
    <glyph glyph-name="z" unicode="z" horiz-adv-x="417" 
d="M382 522v-37l-298 -444h295l-5 -41h-345v36l299 445h-275v41h329z" />
    <glyph glyph-name="braceleft" unicode="{" horiz-adv-x="327" 
d="M256 826v-37q-45 0 -64.5 -19.5t-19.5 -62.5v-258q0 -49 -17.5 -69.5t-57.5 -30.5q40 -10 57.5 -30.5t17.5 -69.5v-258q0 -42 19.5 -61.5t64.5 -19.5v-37q-64 0 -95.5 28t-31.5 89v267q0 71 -78 71v42q78 0 78 72v267q0 61 31.5 89t95.5 28z" />
    <glyph glyph-name="bar" unicode="|" horiz-adv-x="408" 
d="M226 803v-903h-44v903h44z" />
    <glyph glyph-name="braceright" unicode="}" horiz-adv-x="327" 
d="M71 826q64 0 95.5 -28t31.5 -89v-267q0 -72 78 -72v-42q-78 0 -78 -71v-267q0 -61 -31.5 -89t-95.5 -28v37q45 0 64.5 19.5t19.5 61.5v258q0 49 17.5 69.5t58.5 30.5q-41 10 -58.5 30.5t-17.5 69.5v258q0 43 -19.5 62.5t-64.5 19.5v37z" />
    <glyph glyph-name="asciitilde" unicode="~" horiz-adv-x="466" 
d="M310 269q-32 0 -82.5 28t-71.5 28q-36 0 -69 -44l-30 16q21 33 44 51t58 18q33 0 82 -28t71 -28t36 10t31 32l29 -16q-20 -32 -42 -49.5t-56 -17.5z" />
    <glyph glyph-name="uni00A0" unicode="&#xa0;" horiz-adv-x="285" 
 />
    <glyph glyph-name="exclamdown" unicode="&#xa1;" horiz-adv-x="240" 
d="M120 468q18 0 29 -11.5t11 -28.5t-11 -28.5t-29 -11.5t-29 11.5t-11 28.5t11 28.5t29 11.5zM142 250l3 -445h-48l3 445h42z" />
    <glyph glyph-name="cent" unicode="&#xa2;" horiz-adv-x="466" 
d="M432 45q-56 -49 -127 -55v-139h-41v139q-91 8 -144 78.5t-53 189.5t53.5 192t144.5 81v148h40v-148q69 -4 123 -50l-24 -31q-51 42 -117 42q-78 0 -124.5 -60t-46.5 -174q0 -112 46 -170t124 -58q66 0 122 46z" />
    <glyph glyph-name="sterling" unicode="&#xa3;" horiz-adv-x="505" 
d="M184 159q0 -48 -15.5 -73.5t-52.5 -44.5h331l-6 -41h-386v40q47 22 65 46t18 72v177h-65v36h65v131q0 76 43 124.5t123 48.5q94 0 156 -72l-31 -26q-50 58 -124 58q-58 0 -89.5 -36.5t-31.5 -97.5v-130h216v-36h-216v-176z" />
    <glyph glyph-name="currency" unicode="&#xa4;" 
d="M466 341q0 -75 -42 -126l80 -79l-29 -29l-81 79q-48 -35 -114 -35q-67 0 -114 36l-81 -80l-29 29l81 80q-41 52 -41 125q0 71 41 123l-81 80l29 29l81 -80q48 37 114 37q68 0 115 -36l80 79l29 -29l-80 -78q42 -51 42 -125zM281 189q68 0 104 41.5t36 110.5t-36 110
t-104 41q-67 0 -103.5 -41t-36.5 -110t36.5 -110.5t103.5 -41.5z" />
    <glyph glyph-name="yen" unicode="&#xa5;" horiz-adv-x="503" 
d="M487 664l-194 -328h118v-37h-135v-107h135v-37h-135v-155h-47v155h-134v37h134v107h-134v37h117l-196 328h53l185 -319l182 319h51z" />
    <glyph glyph-name="brokenbar" unicode="&#xa6;" horiz-adv-x="408" 
d="M226 803v-360h-44v360h44zM226 262v-362h-44v362h44z" />
    <glyph glyph-name="section" unicode="&#xa7;" horiz-adv-x="532" 
d="M366 164q54 -35 54 -98q0 -61 -46.5 -97t-120.5 -36q-87 0 -161 46l21 34q62 -41 141 -41q55 0 87 25t32 65t-24 62t-100 48q-90 31 -125 61t-35 86q0 72 80 126q-54 35 -54 97q0 60 45 96t114 36q81 0 154 -47l-21 -32q-62 40 -133 40q-51 0 -82 -26t-31 -65
q0 -40 25.5 -62t106.5 -49q82 -27 116.5 -59.5t34.5 -86.5q0 -73 -78 -123zM135 323q0 -43 25 -65.5t102 -48.5q47 -16 74 -29q62 44 62 103q0 41 -23.5 65.5t-97.5 49.5q-51 18 -78 31q-64 -46 -64 -106z" />
    <glyph glyph-name="dieresis" unicode="&#xa8;" horiz-adv-x="309" 
d="M64 732q15 0 24.5 -9.5t9.5 -23.5t-9.5 -23.5t-24.5 -9.5t-24.5 9.5t-9.5 23.5t9.5 23.5t24.5 9.5zM246 732q14 0 23.5 -9.5t9.5 -23.5t-9.5 -23.5t-23.5 -9.5q-15 0 -24.5 9.5t-9.5 23.5t9.5 23.5t24.5 9.5z" />
    <glyph glyph-name="copyright" unicode="&#xa9;" horiz-adv-x="810" 
d="M405 732q125 0 208 -83.5t83 -213.5t-83 -213.5t-208 -83.5t-208 83.5t-83 213.5q0 129 83 213t208 84zM406 697q-110 0 -181.5 -73t-71.5 -189q0 -117 71 -189.5t182 -72.5q109 0 180 73t71 189q0 117 -70.5 189.5t-180.5 72.5zM405 612q55 0 98 -32l-20 -28
q-33 24 -77 24q-40 0 -70 -33t-30 -107q0 -71 28 -106t74 -35t84 28l18 -28q-44 -37 -103 -37q-64 0 -103.5 47t-39.5 131q0 86 42 131t99 45z" />
    <glyph glyph-name="ordfeminine" unicode="&#xaa;" horiz-adv-x="500" 
d="M255 520h82v37q0 47 -21.5 67.5t-75.5 20.5q-49 0 -112 -22l-12 35q72 26 128 26q139 0 139 -123v-190q0 -31 7.5 -44t25.5 -21l-10 -31q-54 12 -62 64q-46 -64 -130 -64q-61 0 -95.5 31.5t-34.5 85.5q0 61 46 94.5t125 33.5zM220 313q77 0 117 69v103h-75
q-130 0 -130 -91q0 -40 23.5 -60.5t64.5 -20.5zM84 42h347v-42h-347v42z" />
    <glyph glyph-name="guillemotleft" unicode="&#xab;" horiz-adv-x="548" 
d="M237 514l29 -19l-138 -207l138 -207l-29 -19l-160 210v31zM442 514l29 -19l-138 -207l138 -207l-29 -19l-160 210v31z" />
    <glyph glyph-name="logicalnot" unicode="&#xac;" horiz-adv-x="499" 
d="M427 342v-164h-45v122h-310v42h355z" />
    <glyph glyph-name="uni00AD" unicode="&#xad;" horiz-adv-x="400" 
d="M71 293v40h258v-40h-258z" />
    <glyph glyph-name="registered" unicode="&#xae;" horiz-adv-x="639" 
d="M319 732q99 0 167.5 -67t68.5 -166q0 -98 -68.5 -167t-167.5 -69t-167 67t-68 166q0 98 68.5 167t166.5 69zM319 295q84 0 142.5 59t58.5 145q0 87 -57.5 144t-143.5 57q-84 0 -142 -59t-58 -145t58 -143.5t142 -57.5zM415 556q0 -56 -62 -72l74 -118h-45l-66 113h-40
v-113h-37v270h66q110 0 110 -80zM276 605v-95h42q60 0 60 46q0 27 -16.5 38t-50.5 11h-35z" />
    <glyph glyph-name="macron" unicode="&#xaf;" horiz-adv-x="289" 
d="M259 679h-229v39h229v-39z" />
    <glyph glyph-name="degree" unicode="&#xb0;" horiz-adv-x="520" 
d="M219 400q-59 0 -102 40.5t-43 107.5q0 65 43.5 105.5t101.5 40.5q62 0 104 -40t42 -107q0 -66 -42 -106.5t-104 -40.5zM219 437q47 0 75 30t28 80q0 51 -28 80.5t-75 29.5q-44 0 -73.5 -29.5t-29.5 -79.5t29.5 -80.5t73.5 -30.5z" />
    <glyph glyph-name="plusminus" unicode="&#xb1;" horiz-adv-x="491" 
d="M268 510v-153h151v-41h-151v-153h-45v153h-151v41h151v153h45zM72 0v42h347v-42h-347z" />
    <glyph glyph-name="uni00B2" unicode="&#xb2;" horiz-adv-x="400" 
d="M197 741q56 0 88.5 -31t32.5 -79q0 -57 -36.5 -106.5t-153.5 -164.5h202l-7 -37h-245v35q125 125 160.5 173t35.5 97q0 37 -21 57t-58 20q-56 0 -95 -45l-30 21q51 60 127 60z" />
    <glyph glyph-name="uni00B3" unicode="&#xb3;" horiz-adv-x="400" 
d="M200 743q55 0 88 -28.5t33 -74.5q0 -40 -23.5 -65.5t-61.5 -31.5q42 -2 69 -29.5t27 -74.5q0 -55 -38 -89.5t-102 -34.5q-75 0 -125 55l26 23q42 -42 97 -42q48 0 73.5 24t25.5 64q0 84 -95 84h-28l5 34h20q36 0 62 20t26 59q0 34 -22 53t-59 19q-52 0 -97 -38l-23 26
q55 47 122 47z" />
    <glyph glyph-name="acute" unicode="&#xb4;" horiz-adv-x="265" 
d="M214 776l21 -44l-190 -84l-15 28z" />
    <glyph glyph-name="uni00B5" unicode="&#xb5;" horiz-adv-x="584" 
d="M494 -3l-42 -5q-21 52 -26 115q-67 -118 -165 -118q-82 0 -114 68q9 -57 9 -131v-121l-46 -5v722h46v-374q0 -61 29.5 -89t75.5 -28q98 0 159 124v367h46v-346q0 -98 28 -179z" />
    <glyph glyph-name="paragraph" unicode="&#xb6;" horiz-adv-x="699" 
d="M332 684h212v-879l-43 -8v848h-134v-840l-43 -8v501q-115 4 -167 56.5t-52 136.5q0 93 59.5 143t167.5 50z" />
    <glyph glyph-name="periodcentered" unicode="&#xb7;" horiz-adv-x="195" 
d="M97 361q18 0 29.5 -11.5t11.5 -28.5t-11.5 -28.5t-29.5 -11.5q-17 0 -28.5 11.5t-11.5 28.5t11.5 28.5t28.5 11.5z" />
    <glyph glyph-name="cedilla" unicode="&#xb8;" horiz-adv-x="235" 
d="M113 16v-83q92 -7 92 -73q0 -38 -28.5 -60t-70.5 -22q-43 0 -76 20l16 30q28 -15 59 -15q25 0 41 12t16 35q0 45 -89 45l9 111h31z" />
    <glyph glyph-name="uni00B9" unicode="&#xb9;" horiz-adv-x="400" 
d="M252 736v-413h-41v366l-105 -61l-19 30l131 78h34z" />
    <glyph glyph-name="ordmasculine" unicode="&#xba;" horiz-adv-x="500" 
d="M249 684q83 0 129.5 -53t46.5 -150q0 -96 -47.5 -151t-129.5 -55t-129 54.5t-47 149.5t48 150t129 55zM250 645q-61 0 -95.5 -42t-34.5 -124q0 -80 34 -123t95 -43t95 42.5t34 125.5q0 81 -33 122.5t-95 41.5zM75 0v42h347v-42h-347z" />
    <glyph glyph-name="guillemotright" unicode="&#xbb;" horiz-adv-x="539" 
d="M106 514l160 -211v-31l-160 -210l-29 19l138 207l-138 207zM302 514l160 -211v-31l-160 -210l-29 19l138 207l-138 207z" />
    <glyph glyph-name="onequarter" unicode="&#xbc;" horiz-adv-x="908" 
d="M641 746l34 -16l-408 -798l-34 16zM252 271h-41v366l-105 -61l-19 30l131 78h34v-413zM851 141v-35h-57v-106h-41v106h-189v31l130 283l36 -14l-122 -265h145l5 119h36v-119h57z" />
    <glyph glyph-name="onehalf" unicode="&#xbd;" horiz-adv-x="908" 
d="M641 746l34 -16l-408 -798l-34 16zM252 684v-413h-41v366l-105 -61l-19 30l131 78h34zM705 418q56 0 88.5 -31t32.5 -79q0 -57 -36.5 -106.5t-153.5 -164.5h202l-7 -37h-245v35q125 125 160.5 173t35.5 97q0 37 -21 57t-58 20q-56 0 -95 -45l-30 21q51 60 127 60z" />
    <glyph glyph-name="threequarters" unicode="&#xbe;" horiz-adv-x="908" 
d="M641 746l34 -16l-408 -798l-34 16zM332 387q0 -55 -38 -89.5t-102 -34.5q-75 0 -125 55l26 23q42 -42 97 -42q48 0 73.5 24t25.5 64q0 84 -95 84h-28l5 34h20q36 0 62 20t26 59q0 34 -22 53t-59 19q-52 0 -97 -38l-23 26q55 47 122 47q55 0 88 -28.5t33 -74.5
q0 -40 -23.5 -65.5t-61.5 -31.5q42 -2 69 -29.5t27 -74.5zM851 141v-35h-57v-106h-41v106h-189v31l130 283l36 -14l-122 -265h145l5 119h36v-119h57z" />
    <glyph glyph-name="questiondown" unicode="&#xbf;" horiz-adv-x="443" 
d="M248 388q-18 0 -29 11.5t-11 28.5t11 28.5t29 11.5q17 0 28.5 -11.5t11.5 -28.5t-11.5 -28.5t-28.5 -11.5zM211 -203q-76 0 -121 40.5t-45 96.5q0 42 18.5 72.5t45.5 49.5l54 37.5t45.5 46t18.5 63.5v47h45v-50q0 -42 -18.5 -73.5t-45 -50.5l-52.5 -37t-44.5 -43.5
t-18.5 -60.5q0 -43 33 -70.5t86 -27.5q86 0 154 75l33 -25q-80 -90 -188 -90z" />
    <glyph glyph-name="Agrave" unicode="&#xc0;" horiz-adv-x="562" 
d="M380 788l-13 -29l-192 77l22 44zM491 0l-63 192h-297l-63 -192h-48l231 684h60l231 -684h-51zM145 234h270l-134 411z" />
    <glyph glyph-name="Aacute" unicode="&#xc1;" horiz-adv-x="562" 
d="M383 836l-192 -77l-13 29l184 92zM491 0l-63 192h-297l-63 -192h-48l231 684h60l231 -684h-51zM145 234h270l-134 411z" />
    <glyph glyph-name="Acircumflex" unicode="&#xc2;" horiz-adv-x="562" 
d="M281 843l-121 -80l-21 25l128 99h27l127 -99l-21 -25zM491 0l-63 192h-297l-63 -192h-48l231 684h60l231 -684h-51zM145 234h270l-134 411z" />
    <glyph glyph-name="Atilde" unicode="&#xc3;" horiz-adv-x="562" 
d="M222 840q-30 0 -57 -37l-29 15q37 60 86 60q22 0 60 -22t57 -22q28 0 57 43l29 -15q-32 -66 -86 -66q-27 0 -64.5 22t-52.5 22zM491 0l-63 192h-297l-63 -192h-48l231 684h60l231 -684h-51zM145 234h270l-134 411z" />
    <glyph glyph-name="Adieresis" unicode="&#xc4;" horiz-adv-x="562" 
d="M190 792q-15 0 -24.5 9.5t-9.5 23.5t9.5 23.5t24.5 9.5t24.5 -9.5t9.5 -23.5t-9.5 -23.5t-24.5 -9.5zM372 792q-15 0 -24.5 9.5t-9.5 23.5t9.5 23.5t24.5 9.5q14 0 23.5 -9.5t9.5 -23.5t-9.5 -23.5t-23.5 -9.5zM491 0l-63 192h-297l-63 -192h-48l231 684h60l231 -684h-51
zM145 234h270l-134 411z" />
    <glyph glyph-name="Aring" unicode="&#xc5;" horiz-adv-x="562" 
d="M281 762q-41 0 -67 25t-26 65t26 64.5t67 24.5t67 -24.5t26 -64.5t-26 -65t-67 -25zM281 911q-27 0 -41.5 -15.5t-14.5 -43.5q0 -59 56 -59t56 59q0 28 -14.5 43.5t-41.5 15.5zM491 0l-63 192h-297l-63 -192h-48l231 684h60l231 -684h-51zM145 234h270l-134 411z" />
    <glyph glyph-name="AE" unicode="&#xc6;" horiz-adv-x="772" 
d="M499 41h230v-41h-267l-48 188h-291l-71 -188h-48l265 684h410l-6 -41h-330l69 -266h259v-41h-248zM139 229h265l-107 417z" />
    <glyph glyph-name="Ccedilla" unicode="&#xc7;" horiz-adv-x="547" 
d="M352 -67q92 -7 92 -73q0 -38 -28.5 -60t-70.5 -22q-43 0 -76 20l16 30q28 -15 59 -15q25 0 41 12t16 35q0 45 -89 45l7 85q-112 9 -180.5 101t-68.5 251q0 169 77.5 260.5t196.5 91.5q96 0 171 -61l-26 -32q-66 52 -142 52q-101 0 -164 -76.5t-63 -234.5
q0 -152 62.5 -231t161.5 -79q49 0 83 14.5t70 43.5l26 -32q-74 -66 -171 -69v-56z" />
    <glyph glyph-name="Egrave" unicode="&#xc8;" horiz-adv-x="504" 
d="M205 880l183 -92l-13 -29l-192 77zM454 684l-6 -41h-286v-266h247v-41h-247v-295h298v-41h-345v684h339z" />
    <glyph glyph-name="Eacute" unicode="&#xc9;" horiz-adv-x="504" 
d="M370 880l21 -44l-192 -77l-13 29zM454 684l-6 -41h-286v-266h247v-41h-247v-295h298v-41h-345v684h339z" />
    <glyph glyph-name="Ecircumflex" unicode="&#xca;" horiz-adv-x="504" 
d="M168 763l-21 25l128 99h27l127 -99l-21 -25l-119 80zM454 684l-6 -41h-286v-266h247v-41h-247v-295h298v-41h-345v684h339z" />
    <glyph glyph-name="Edieresis" unicode="&#xcb;" horiz-adv-x="504" 
d="M198 858q15 0 24.5 -9.5t9.5 -23.5t-9.5 -23.5t-24.5 -9.5t-24.5 9.5t-9.5 23.5t9.5 23.5t24.5 9.5zM380 858q14 0 23.5 -9.5t9.5 -23.5t-9.5 -23.5t-23.5 -9.5q-15 0 -24.5 9.5t-9.5 23.5t9.5 23.5t24.5 9.5zM454 684l-6 -41h-286v-266h247v-41h-247v-295h298v-41h-345
v684h339z" />
    <glyph glyph-name="Igrave" unicode="&#xcc;" horiz-adv-x="277" 
d="M54 880l183 -92l-13 -29l-192 77zM162 684v-684h-47v684h47z" />
    <glyph glyph-name="Iacute" unicode="&#xcd;" horiz-adv-x="277" 
d="M219 880l21 -44l-192 -77l-13 29zM162 684v-684h-47v684h47z" />
    <glyph glyph-name="Icircumflex" unicode="&#xce;" horiz-adv-x="277" 
d="M17 763l-21 25l128 99h27l127 -99l-21 -25l-119 80zM162 684v-684h-47v684h47z" />
    <glyph glyph-name="Idieresis" unicode="&#xcf;" horiz-adv-x="277" 
d="M47 858q15 0 24.5 -9.5t9.5 -23.5t-9.5 -23.5t-24.5 -9.5t-24.5 9.5t-9.5 23.5t9.5 23.5t24.5 9.5zM229 858q14 0 23.5 -9.5t9.5 -23.5t-9.5 -23.5t-23.5 -9.5q-15 0 -24.5 9.5t-9.5 23.5t9.5 23.5t24.5 9.5zM162 684v-684h-47v684h47z" />
    <glyph glyph-name="Eth" unicode="&#xd0;" horiz-adv-x="630" 
d="M250 684q50 0 91.5 -7.5t83.5 -30t70.5 -58.5t46.5 -97.5t18 -142.5q0 -82 -18.5 -145t-48 -100.5t-70.5 -61.5t-81 -32.5t-85 -8.5h-140v332h-93v40h93v312h133zM260 41q250 0 250 307q0 74 -15.5 129t-39 86t-59 50t-68.5 24.5t-75 5.5h-89v-271h182v-40h-182v-291h96z
" />
    <glyph glyph-name="Ntilde" unicode="&#xd1;" horiz-adv-x="669" 
d="M401 796q-27 0 -64.5 22t-52.5 22q-30 0 -57 -37l-29 15q37 60 86 60q22 0 60 -22t57 -22q28 0 57 43l29 -15q-32 -66 -86 -66zM554 684v-684h-61l-339 631q6 -88 6 -224v-407h-45v684h61l339 -631q-6 99 -6 200v431h45z" />
    <glyph glyph-name="Ograve" unicode="&#xd2;" horiz-adv-x="691" 
d="M261 880l183 -92l-13 -29l-192 77zM345 694q126 0 201 -92t75 -261q0 -166 -74.5 -259t-201.5 -93q-125 0 -200 92t-75 259q0 166 75.5 260t199.5 94zM345 653q-104 0 -164.5 -79.5t-60.5 -233.5q0 -151 61 -230t164 -79q107 0 166.5 78.5t59.5 231.5q0 154 -60 233
t-166 79z" />
    <glyph glyph-name="Oacute" unicode="&#xd3;" horiz-adv-x="691" 
d="M426 880l21 -44l-192 -77l-13 29zM345 694q126 0 201 -92t75 -261q0 -166 -74.5 -259t-201.5 -93q-125 0 -200 92t-75 259q0 166 75.5 260t199.5 94zM345 653q-104 0 -164.5 -79.5t-60.5 -233.5q0 -151 61 -230t164 -79q107 0 166.5 78.5t59.5 231.5q0 154 -60 233
t-166 79z" />
    <glyph glyph-name="Ocircumflex" unicode="&#xd4;" horiz-adv-x="691" 
d="M224 763l-21 25l128 99h27l127 -99l-21 -25l-119 80zM345 694q126 0 201 -92t75 -261q0 -166 -74.5 -259t-201.5 -93q-125 0 -200 92t-75 259q0 166 75.5 260t199.5 94zM345 653q-104 0 -164.5 -79.5t-60.5 -233.5q0 -151 61 -230t164 -79q107 0 166.5 78.5t59.5 231.5
q0 154 -60 233t-166 79z" />
    <glyph glyph-name="Otilde" unicode="&#xd5;" horiz-adv-x="691" 
d="M403 796q-27 0 -64.5 22t-52.5 22q-30 0 -57 -37l-29 15q37 60 86 60q22 0 60 -22t57 -22q28 0 57 43l29 -15q-32 -66 -86 -66zM345 694q126 0 201 -92t75 -261q0 -166 -74.5 -259t-201.5 -93q-125 0 -200 92t-75 259q0 166 75.5 260t199.5 94zM345 653
q-104 0 -164.5 -79.5t-60.5 -233.5q0 -151 61 -230t164 -79q107 0 166.5 78.5t59.5 231.5q0 154 -60 233t-166 79z" />
    <glyph glyph-name="Odieresis" unicode="&#xd6;" horiz-adv-x="691" 
d="M254 858q15 0 24.5 -9.5t9.5 -23.5t-9.5 -23.5t-24.5 -9.5t-24.5 9.5t-9.5 23.5t9.5 23.5t24.5 9.5zM436 858q14 0 23.5 -9.5t9.5 -23.5t-9.5 -23.5t-23.5 -9.5q-15 0 -24.5 9.5t-9.5 23.5t9.5 23.5t24.5 9.5zM345 694q126 0 201 -92t75 -261q0 -166 -74.5 -259
t-201.5 -93q-125 0 -200 92t-75 259q0 166 75.5 260t199.5 94zM345 653q-104 0 -164.5 -79.5t-60.5 -233.5q0 -151 61 -230t164 -79q107 0 166.5 78.5t59.5 231.5q0 154 -60 233t-166 79z" />
    <glyph glyph-name="multiply" unicode="&#xd7;" horiz-adv-x="491" 
d="M371 466l31 -30l-127 -128l127 -130l-31 -29l-125 130l-126 -130l-31 29l125 128l-125 130l31 30l124 -131z" />
    <glyph glyph-name="Oslash" unicode="&#xd8;" horiz-adv-x="691" 
d="M462 669q75 -35 117 -118.5t42 -209.5q0 -166 -74.5 -259t-201.5 -93q-43 0 -81 12l-33 -118l-43 12l38 120q-74 37 -115 120t-41 205q0 166 75.5 260t199.5 94q41 0 79 -11l35 124l43 -12zM120 340q0 -217 122 -284l173 587q-30 10 -70 10q-104 0 -164.5 -79.5
t-60.5 -233.5zM345 31q107 0 166.5 78.5t59.5 231.5q0 225 -124 289l-174 -588q35 -11 72 -11z" />
    <glyph glyph-name="Ugrave" unicode="&#xd9;" horiz-adv-x="648" 
d="M240 880l183 -92l-13 -29l-192 77zM543 684v-473q0 -101 -55.5 -161.5t-163.5 -60.5t-163.5 60.5t-55.5 161.5v473h47v-469q0 -87 42.5 -135t129.5 -48t129 48.5t42 134.5v469h48z" />
    <glyph glyph-name="Uacute" unicode="&#xda;" horiz-adv-x="648" 
d="M405 880l21 -44l-192 -77l-13 29zM543 684v-473q0 -101 -55.5 -161.5t-163.5 -60.5t-163.5 60.5t-55.5 161.5v473h47v-469q0 -87 42.5 -135t129.5 -48t129 48.5t42 134.5v469h48z" />
    <glyph glyph-name="Ucircumflex" unicode="&#xdb;" horiz-adv-x="648" 
d="M203 763l-21 25l128 99h27l127 -99l-21 -25l-119 80zM543 684v-473q0 -101 -55.5 -161.5t-163.5 -60.5t-163.5 60.5t-55.5 161.5v473h47v-469q0 -87 42.5 -135t129.5 -48t129 48.5t42 134.5v469h48z" />
    <glyph glyph-name="Udieresis" unicode="&#xdc;" horiz-adv-x="648" 
d="M233 858q15 0 24.5 -9.5t9.5 -23.5t-9.5 -23.5t-24.5 -9.5t-24.5 9.5t-9.5 23.5t9.5 23.5t24.5 9.5zM415 858q14 0 23.5 -9.5t9.5 -23.5t-9.5 -23.5t-23.5 -9.5q-15 0 -24.5 9.5t-9.5 23.5t9.5 23.5t24.5 9.5zM543 684v-473q0 -101 -55.5 -161.5t-163.5 -60.5
t-163.5 60.5t-55.5 161.5v473h47v-469q0 -87 42.5 -135t129.5 -48t129 48.5t42 134.5v469h48z" />
    <glyph glyph-name="Yacute" unicode="&#xdd;" horiz-adv-x="513" 
d="M337 880l21 -44l-192 -77l-13 29zM497 684l-216 -415v-269h-47v268l-218 416h53l190 -372l186 372h52z" />
    <glyph glyph-name="Thorn" unicode="&#xde;" horiz-adv-x="566" 
d="M268 560q249 0 249 -204q0 -216 -252 -216h-103v-140h-47v684h47v-124h106zM266 180q96 0 148.5 39.5t52.5 135.5q0 88 -50 126t-149 38h-106v-339h104z" />
    <glyph glyph-name="germandbls" unicode="&#xdf;" horiz-adv-x="578" 
d="M293 741q70 0 114.5 -37t44.5 -95q0 -30 -12.5 -54t-30 -39.5t-34.5 -29t-29.5 -29.5t-12.5 -34q0 -23 20 -43.5t48.5 -39t57 -41t48.5 -60t20 -86.5q0 -74 -43.5 -119t-113.5 -45q-53 0 -95 23l16 33q36 -16 76 -16q51 0 82 32.5t31 91.5q0 44 -20 77t-48 53.5t-56 39
t-48 43t-20 55.5q0 28 18.5 51.5t40.5 37.5t40.5 40t18.5 58q0 43 -31.5 68.5t-81.5 25.5q-63 0 -100 -41t-37 -123v-538h-46v540q0 96 50 148.5t133 52.5z" />
    <glyph glyph-name="agrave" unicode="&#xe0;" horiz-adv-x="534" 
d="M362 676l-15 -28l-190 84l21 44zM425 113q0 -44 10.5 -63t33.5 -28l-11 -33q-34 9 -51.5 30t-21.5 62q-57 -92 -165 -92q-74 0 -117 42.5t-43 113.5q0 80 57 123.5t155 43.5h107v55q0 65 -29 95t-96 30q-63 0 -142 -31l-13 37q87 34 159 34q167 0 167 -162v-257zM226 28
q101 0 153 99v149h-100q-82 0 -126 -32.5t-44 -97.5q0 -56 31 -87t86 -31z" />
    <glyph glyph-name="aacute" unicode="&#xe1;" horiz-adv-x="534" 
d="M352 732l-190 -84l-15 28l184 100zM425 113q0 -44 10.5 -63t33.5 -28l-11 -33q-34 9 -51.5 30t-21.5 62q-57 -92 -165 -92q-74 0 -117 42.5t-43 113.5q0 80 57 123.5t155 43.5h107v55q0 65 -29 95t-96 30q-63 0 -142 -31l-13 37q87 34 159 34q167 0 167 -162v-257z
M226 28q101 0 153 99v149h-100q-82 0 -126 -32.5t-44 -97.5q0 -56 31 -87t86 -31z" />
    <glyph glyph-name="acircumflex" unicode="&#xe2;" horiz-adv-x="534" 
d="M256 731l-120 -84l-21 25l127 103h27l128 -103l-21 -25zM425 113q0 -44 10.5 -63t33.5 -28l-11 -33q-34 9 -51.5 30t-21.5 62q-57 -92 -165 -92q-74 0 -117 42.5t-43 113.5q0 80 57 123.5t155 43.5h107v55q0 65 -29 95t-96 30q-63 0 -142 -31l-13 37q87 34 159 34
q167 0 167 -162v-257zM226 28q101 0 153 99v149h-100q-82 0 -126 -32.5t-44 -97.5q0 -56 31 -87t86 -31z" />
    <glyph glyph-name="atilde" unicode="&#xe3;" horiz-adv-x="534" 
d="M198 714q-30 0 -57 -37l-29 15q37 60 86 60q22 0 60 -22t57 -22q28 0 57 43l29 -15q-32 -66 -86 -66q-27 0 -64.5 22t-52.5 22zM425 113q0 -44 10.5 -63t33.5 -28l-11 -33q-34 9 -51.5 30t-21.5 62q-57 -92 -165 -92q-74 0 -117 42.5t-43 113.5q0 80 57 123.5t155 43.5
h107v55q0 65 -29 95t-96 30q-63 0 -142 -31l-13 37q87 34 159 34q167 0 167 -162v-257zM226 28q101 0 153 99v149h-100q-82 0 -126 -32.5t-44 -97.5q0 -56 31 -87t86 -31z" />
    <glyph glyph-name="adieresis" unicode="&#xe4;" horiz-adv-x="534" 
d="M166 666q-15 0 -24.5 9.5t-9.5 23.5t9.5 23.5t24.5 9.5t24.5 -9.5t9.5 -23.5t-9.5 -23.5t-24.5 -9.5zM348 666q-15 0 -24.5 9.5t-9.5 23.5t9.5 23.5t24.5 9.5q14 0 23.5 -9.5t9.5 -23.5t-9.5 -23.5t-23.5 -9.5zM425 113q0 -44 10.5 -63t33.5 -28l-11 -33q-34 9 -51.5 30
t-21.5 62q-57 -92 -165 -92q-74 0 -117 42.5t-43 113.5q0 80 57 123.5t155 43.5h107v55q0 65 -29 95t-96 30q-63 0 -142 -31l-13 37q87 34 159 34q167 0 167 -162v-257zM226 28q101 0 153 99v149h-100q-82 0 -126 -32.5t-44 -97.5q0 -56 31 -87t86 -31z" />
    <glyph glyph-name="aring" unicode="&#xe5;" horiz-adv-x="534" 
d="M257 636q-41 0 -67 25t-26 65t26 64.5t67 24.5t67 -24.5t26 -64.5t-26 -65t-67 -25zM257 785q-27 0 -41.5 -15.5t-14.5 -43.5q0 -59 56 -59t56 59q0 28 -14.5 43.5t-41.5 15.5zM425 113q0 -44 10.5 -63t33.5 -28l-11 -33q-34 9 -51.5 30t-21.5 62q-57 -92 -165 -92
q-74 0 -117 42.5t-43 113.5q0 80 57 123.5t155 43.5h107v55q0 65 -29 95t-96 30q-63 0 -142 -31l-13 37q87 34 159 34q167 0 167 -162v-257zM226 28q101 0 153 99v149h-100q-82 0 -126 -32.5t-44 -97.5q0 -56 31 -87t86 -31z" />
    <glyph glyph-name="ae" unicode="&#xe6;" horiz-adv-x="846" 
d="M784 282q0 -21 -2 -41h-354q5 -107 51 -159t120 -52t142 53l23 -30q-77 -64 -167 -64q-129 0 -185 112q-42 -60 -87 -86t-104 -26q-75 0 -118 42.5t-43 113.5q0 80 57 124t156 44h107v54q0 65 -29 95t-96 30q-63 0 -142 -31l-13 37q85 34 159 34q132 0 160 -109
q54 109 170 109q95 0 145 -67t50 -183zM739 278v19q0 91 -38 143.5t-112 52.5q-69 0 -113 -53.5t-48 -161.5h311zM227 28q51 0 91 26.5t79 84.5q-17 53 -17 117v20h-100q-82 0 -126 -32.5t-44 -97.5q0 -56 31 -87t86 -31z" />
    <glyph glyph-name="ccedilla" unicode="&#xe7;" horiz-adv-x="466" 
d="M295 -67q92 -7 92 -73q0 -38 -28.5 -60t-70.5 -22q-43 0 -76 20l16 30q28 -15 59 -15q25 0 41 12t16 35q0 45 -89 45l7 85q-90 9 -142.5 79.5t-52.5 188.5q0 126 59.5 200t158.5 74q82 0 143 -51l-24 -31q-51 42 -117 42q-78 0 -124.5 -60t-46.5 -174q0 -112 46 -170
t124 -58q66 0 122 46l24 -31q-60 -53 -137 -56v-56z" />
    <glyph glyph-name="egrave" unicode="&#xe8;" horiz-adv-x="533" 
d="M380 676l-15 -28l-190 84l21 44zM471 282q0 -21 -2 -41h-354q5 -107 51 -159t120 -52t142 53l23 -30q-77 -64 -167 -64q-101 0 -159 71t-58 197t55.5 200.5t149.5 74.5q97 0 148 -67t51 -183zM426 278v19q0 91 -38 143.5t-114 52.5q-68 0 -111.5 -53.5t-47.5 -161.5h311z
" />
    <glyph glyph-name="eacute" unicode="&#xe9;" horiz-adv-x="533" 
d="M370 732l-190 -84l-15 28l184 100zM471 282q0 -21 -2 -41h-354q5 -107 51 -159t120 -52t142 53l23 -30q-77 -64 -167 -64q-101 0 -159 71t-58 197t55.5 200.5t149.5 74.5q97 0 148 -67t51 -183zM426 278v19q0 91 -38 143.5t-114 52.5q-68 0 -111.5 -53.5t-47.5 -161.5
h311z" />
    <glyph glyph-name="ecircumflex" unicode="&#xea;" horiz-adv-x="533" 
d="M274 731l-120 -84l-21 25l127 103h27l128 -103l-21 -25zM471 282q0 -21 -2 -41h-354q5 -107 51 -159t120 -52t142 53l23 -30q-77 -64 -167 -64q-101 0 -159 71t-58 197t55.5 200.5t149.5 74.5q97 0 148 -67t51 -183zM426 278v19q0 91 -38 143.5t-114 52.5
q-68 0 -111.5 -53.5t-47.5 -161.5h311z" />
    <glyph glyph-name="edieresis" unicode="&#xeb;" horiz-adv-x="533" 
d="M184 666q-15 0 -24.5 9.5t-9.5 23.5t9.5 23.5t24.5 9.5t24.5 -9.5t9.5 -23.5t-9.5 -23.5t-24.5 -9.5zM366 666q-15 0 -24.5 9.5t-9.5 23.5t9.5 23.5t24.5 9.5q14 0 23.5 -9.5t9.5 -23.5t-9.5 -23.5t-23.5 -9.5zM471 282q0 -21 -2 -41h-354q5 -107 51 -159t120 -52t142 53
l23 -30q-77 -64 -167 -64q-101 0 -159 71t-58 197t55.5 200.5t149.5 74.5q97 0 148 -67t51 -183zM426 278v19q0 91 -38 143.5t-114 52.5q-68 0 -111.5 -53.5t-47.5 -161.5h311z" />
    <glyph glyph-name="igrave" unicode="&#xec;" horiz-adv-x="266" 
d="M54 776l184 -100l-15 -28l-190 84zM156 522v-522h-46v522h46z" />
    <glyph glyph-name="iacute" unicode="&#xed;" horiz-adv-x="266" 
d="M207 776l21 -44l-190 -84l-15 28zM156 522v-522h-46v522h46z" />
    <glyph glyph-name="icircumflex" unicode="&#xee;" horiz-adv-x="266" 
d="M12 647l-21 25l127 103h27l128 -103l-21 -25l-120 84zM156 522v-522h-46v522h46z" />
    <glyph glyph-name="idieresis" unicode="&#xef;" horiz-adv-x="266" 
d="M42 732q15 0 24.5 -9.5t9.5 -23.5t-9.5 -23.5t-24.5 -9.5t-24.5 9.5t-9.5 23.5t9.5 23.5t24.5 9.5zM224 732q14 0 23.5 -9.5t9.5 -23.5t-9.5 -23.5t-23.5 -9.5q-15 0 -24.5 9.5t-9.5 23.5t9.5 23.5t24.5 9.5zM156 522v-522h-46v522h46z" />
    <glyph glyph-name="eth" unicode="&#xf0;" horiz-adv-x="551" 
d="M318 664q82 -62 121.5 -152t39.5 -227q0 -145 -56 -220.5t-152 -75.5q-95 0 -149.5 65.5t-54.5 177.5q0 97 51.5 165.5t140.5 68.5q97 0 168 -85q-18 157 -138 254l-78 -79l-35 14l83 85q-58 35 -125 49l10 38q76 -15 144 -57l68 72l29 -25zM271 29q76 0 118.5 66.5
t42.5 192.5q0 32 -1 44q-72 95 -166 95q-72 0 -111 -55t-39 -140q0 -97 41 -150t115 -53z" />
    <glyph glyph-name="ntilde" unicode="&#xf1;" horiz-adv-x="583" 
d="M238 714q-30 0 -57 -37l-29 15q37 60 86 60q22 0 60 -22t57 -22q28 0 57 43l29 -15q-32 -66 -86 -66q-27 0 -64.5 22t-52.5 22zM335 532q71 0 107 -41.5t36 -118.5v-372h-46v366q0 128 -104 128q-95 0 -172 -113v-381h-46v522h40l4 -93q74 103 181 103z" />
    <glyph glyph-name="ograve" unicode="&#xf2;" horiz-adv-x="567" 
d="M205 776l184 -100l-15 -28l-190 84zM284 532q102 0 159 -70.5t57 -198.5t-58 -201t-159 -73t-158.5 72.5t-57.5 198.5q0 127 58.5 199.5t158.5 72.5zM284 492q-79 0 -124 -59.5t-45 -172.5q0 -111 44 -171t124 -60q79 0 124 60t45 174q0 112 -44 170.5t-124 58.5z" />
    <glyph glyph-name="oacute" unicode="&#xf3;" horiz-adv-x="567" 
d="M358 776l21 -44l-190 -84l-15 28zM284 532q102 0 159 -70.5t57 -198.5t-58 -201t-159 -73t-158.5 72.5t-57.5 198.5q0 127 58.5 199.5t158.5 72.5zM284 492q-79 0 -124 -59.5t-45 -172.5q0 -111 44 -171t124 -60q79 0 124 60t45 174q0 112 -44 170.5t-124 58.5z" />
    <glyph glyph-name="ocircumflex" unicode="&#xf4;" horiz-adv-x="567" 
d="M163 647l-21 25l127 103h27l128 -103l-21 -25l-120 84zM284 532q102 0 159 -70.5t57 -198.5t-58 -201t-159 -73t-158.5 72.5t-57.5 198.5q0 127 58.5 199.5t158.5 72.5zM284 492q-79 0 -124 -59.5t-45 -172.5q0 -111 44 -171t124 -60q79 0 124 60t45 174q0 112 -44 170.5
t-124 58.5z" />
    <glyph glyph-name="otilde" unicode="&#xf5;" horiz-adv-x="567" 
d="M342 670q-27 0 -64.5 22t-52.5 22q-30 0 -57 -37l-29 15q37 60 86 60q22 0 60 -22t57 -22q28 0 57 43l29 -15q-32 -66 -86 -66zM284 532q102 0 159 -70.5t57 -198.5t-58 -201t-159 -73t-158.5 72.5t-57.5 198.5q0 127 58.5 199.5t158.5 72.5zM284 492q-79 0 -124 -59.5
t-45 -172.5q0 -111 44 -171t124 -60q79 0 124 60t45 174q0 112 -44 170.5t-124 58.5z" />
    <glyph glyph-name="odieresis" unicode="&#xf6;" horiz-adv-x="567" 
d="M193 732q15 0 24.5 -9.5t9.5 -23.5t-9.5 -23.5t-24.5 -9.5t-24.5 9.5t-9.5 23.5t9.5 23.5t24.5 9.5zM375 732q14 0 23.5 -9.5t9.5 -23.5t-9.5 -23.5t-23.5 -9.5q-15 0 -24.5 9.5t-9.5 23.5t9.5 23.5t24.5 9.5zM284 532q102 0 159 -70.5t57 -198.5t-58 -201t-159 -73
t-158.5 72.5t-57.5 198.5q0 127 58.5 199.5t158.5 72.5zM284 492q-79 0 -124 -59.5t-45 -172.5q0 -111 44 -171t124 -60q79 0 124 60t45 174q0 112 -44 170.5t-124 58.5z" />
    <glyph glyph-name="divide" unicode="&#xf7;" horiz-adv-x="491" 
d="M245 586q18 0 29.5 -11.5t11.5 -28.5t-11.5 -28.5t-29.5 -11.5q-17 0 -28.5 11.5t-11.5 28.5t11.5 28.5t28.5 11.5zM72 310v42h347v-42h-347zM245 155q18 0 29.5 -11.5t11.5 -28.5t-11.5 -28.5t-29.5 -11.5q-17 0 -28.5 11.5t-11.5 28.5t11.5 28.5t28.5 11.5z" />
    <glyph glyph-name="oslash" unicode="&#xf8;" horiz-adv-x="567" 
d="M389 507q111 -61 111 -244q0 -128 -58 -201t-159 -73q-36 0 -66 9l-41 -121l-39 11l43 126q-113 63 -113 246q0 127 58.5 199.5t158.5 72.5q37 0 67 -9l39 123l40 -12zM115 260q0 -157 82 -208l143 432q-27 8 -56 8q-79 0 -124 -59.5t-45 -172.5zM283 29q79 0 124 60
t45 174q0 156 -80 206l-143 -432q26 -8 54 -8z" />
    <glyph glyph-name="ugrave" unicode="&#xf9;" horiz-adv-x="578" 
d="M208 776l184 -100l-15 -28l-190 84zM468 522v-522h-39l-3 97q-61 -108 -173 -108q-71 0 -109.5 41.5t-38.5 118.5v373h46v-369q0 -124 111 -124q96 0 160 112v381h46z" />
    <glyph glyph-name="uacute" unicode="&#xfa;" horiz-adv-x="578" 
d="M361 776l21 -44l-190 -84l-15 28zM468 522v-522h-39l-3 97q-61 -108 -173 -108q-71 0 -109.5 41.5t-38.5 118.5v373h46v-369q0 -124 111 -124q96 0 160 112v381h46z" />
    <glyph glyph-name="ucircumflex" unicode="&#xfb;" horiz-adv-x="578" 
d="M166 647l-21 25l127 103h27l128 -103l-21 -25l-120 84zM468 522v-522h-39l-3 97q-61 -108 -173 -108q-71 0 -109.5 41.5t-38.5 118.5v373h46v-369q0 -124 111 -124q96 0 160 112v381h46z" />
    <glyph glyph-name="udieresis" unicode="&#xfc;" horiz-adv-x="578" 
d="M196 732q15 0 24.5 -9.5t9.5 -23.5t-9.5 -23.5t-24.5 -9.5t-24.5 9.5t-9.5 23.5t9.5 23.5t24.5 9.5zM378 732q14 0 23.5 -9.5t9.5 -23.5t-9.5 -23.5t-23.5 -9.5q-15 0 -24.5 9.5t-9.5 23.5t9.5 23.5t24.5 9.5zM468 522v-522h-39l-3 97q-61 -108 -173 -108
q-71 0 -109.5 41.5t-38.5 118.5v373h46v-369q0 -124 111 -124q96 0 160 112v381h46z" />
    <glyph glyph-name="yacute" unicode="&#xfd;" horiz-adv-x="459" 
d="M304 776l21 -44l-190 -84l-15 28zM442 522l-181 -524q-31 -91 -73 -135t-129 -64l-6 36q74 20 104.5 53.5t59.5 111.5h-16l-184 522h50l165 -487l160 487h50z" />
    <glyph glyph-name="thorn" unicode="&#xfe;" horiz-adv-x="576" 
d="M316 532q93 0 141 -69.5t48 -198.5q0 -128 -51 -201.5t-145 -73.5q-95 0 -153 76v-259l-46 -9v938l46 6v-295q63 86 160 86zM302 30q75 0 114.5 59.5t39.5 174.5q0 229 -146 229q-86 0 -154 -92v-287q56 -84 146 -84z" />
    <glyph glyph-name="ydieresis" unicode="&#xff;" horiz-adv-x="459" 
d="M139 732q15 0 24.5 -9.5t9.5 -23.5t-9.5 -23.5t-24.5 -9.5t-24.5 9.5t-9.5 23.5t9.5 23.5t24.5 9.5zM321 732q14 0 23.5 -9.5t9.5 -23.5t-9.5 -23.5t-23.5 -9.5q-15 0 -24.5 9.5t-9.5 23.5t9.5 23.5t24.5 9.5zM442 522l-181 -524q-31 -91 -73 -135t-129 -64l-6 36
q74 20 104.5 53.5t59.5 111.5h-16l-184 522h50l165 -487l160 487h50z" />
    <glyph glyph-name="Amacron" unicode="&#x100;" horiz-adv-x="562" 
d="M395 844v-39h-229v39h229zM491 0l-63 192h-297l-63 -192h-48l231 684h60l231 -684h-51zM145 234h270l-134 411z" />
    <glyph glyph-name="amacron" unicode="&#x101;" horiz-adv-x="534" 
d="M371 718v-39h-229v39h229zM425 113q0 -44 10.5 -63t33.5 -28l-11 -33q-34 9 -51.5 30t-21.5 62q-57 -92 -165 -92q-74 0 -117 42.5t-43 113.5q0 80 57 123.5t155 43.5h107v55q0 65 -29 95t-96 30q-63 0 -142 -31l-13 37q87 34 159 34q167 0 167 -162v-257zM226 28
q101 0 153 99v149h-100q-82 0 -126 -32.5t-44 -97.5q0 -56 31 -87t86 -31z" />
    <glyph glyph-name="Abreve" unicode="&#x102;" horiz-adv-x="562" 
d="M281 767q-48 0 -82 26.5t-41 65.5l32 8q22 -61 91 -61t91 61l32 -8q-7 -39 -41 -65.5t-82 -26.5zM491 0l-63 192h-297l-63 -192h-48l231 684h60l231 -684h-51zM145 234h270l-134 411z" />
    <glyph glyph-name="abreve" unicode="&#x103;" horiz-adv-x="534" 
d="M257 656q-49 0 -82.5 28t-40.5 75l32 7q20 -70 91 -70t91 70l32 -7q-7 -46 -40.5 -74.5t-82.5 -28.5zM425 113q0 -44 10.5 -63t33.5 -28l-11 -33q-34 9 -51.5 30t-21.5 62q-57 -92 -165 -92q-74 0 -117 42.5t-43 113.5q0 80 57 123.5t155 43.5h107v55q0 65 -29 95t-96 30
q-63 0 -142 -31l-13 37q87 34 159 34q167 0 167 -162v-257zM226 28q101 0 153 99v149h-100q-82 0 -126 -32.5t-44 -97.5q0 -56 31 -87t86 -31z" />
    <glyph glyph-name="Aogonek" unicode="&#x104;" horiz-adv-x="562" 
d="M531 0q-66 -30 -94 -56t-28 -63q0 -53 65 -53q26 0 57 6l-4 -40q-35 -7 -57 -7q-51 0 -78.5 25t-27.5 64q0 80 124 133l-60 183h-297l-63 -192h-48l231 684h60l231 -684h-11zM145 234h270l-134 411z" />
    <glyph glyph-name="aogonek" unicode="&#x105;" horiz-adv-x="534" 
d="M458 -11q-66 -30 -94 -56t-28 -63q0 -53 65 -53q25 0 57 6l-4 -40q-35 -7 -57 -7q-51 0 -78.5 25t-27.5 64q0 82 134 138q-36 22 -40 78q-57 -92 -165 -92q-74 0 -117 42.5t-43 113.5q0 80 57 123.5t155 43.5h107v55q0 65 -29 95t-96 30q-63 0 -142 -31l-13 37
q87 34 159 34q167 0 167 -162v-257q0 -44 10.5 -63t33.5 -28zM226 28q101 0 153 99v149h-100q-82 0 -126 -32.5t-44 -97.5q0 -56 31 -87t86 -31z" />
    <glyph glyph-name="Cacute" unicode="&#x106;" horiz-adv-x="547" 
d="M424 880l21 -44l-192 -77l-13 29zM344 694q96 0 171 -61l-26 -32q-66 52 -142 52q-101 0 -164 -76.5t-63 -234.5q0 -152 62.5 -231t161.5 -79q49 0 83 14.5t70 43.5l26 -32q-76 -69 -181 -69q-121 0 -196.5 92.5t-75.5 260.5q0 169 77.5 260.5t196.5 91.5z" />
    <glyph glyph-name="cacute" unicode="&#x107;" horiz-adv-x="466" 
d="M359 776l21 -44l-190 -84l-15 28zM285 532q82 0 143 -51l-24 -31q-51 42 -117 42q-78 0 -124.5 -60t-46.5 -174q0 -112 46 -170t124 -58q66 0 122 46l24 -31q-62 -56 -146 -56q-100 0 -159.5 71.5t-59.5 197.5t59.5 200t158.5 74z" />
    <glyph glyph-name="Ccircumflex" unicode="&#x108;" horiz-adv-x="547" 
d="M222 763l-21 25l128 99h27l127 -99l-21 -25l-119 80zM344 694q96 0 171 -61l-26 -32q-66 52 -142 52q-101 0 -164 -76.5t-63 -234.5q0 -152 62.5 -231t161.5 -79q49 0 83 14.5t70 43.5l26 -32q-76 -69 -181 -69q-121 0 -196.5 92.5t-75.5 260.5q0 169 77.5 260.5
t196.5 91.5z" />
    <glyph glyph-name="ccircumflex" unicode="&#x109;" horiz-adv-x="466" 
d="M164 647l-21 25l127 103h27l128 -103l-21 -25l-120 84zM285 532q82 0 143 -51l-24 -31q-51 42 -117 42q-78 0 -124.5 -60t-46.5 -174q0 -112 46 -170t124 -58q66 0 122 46l24 -31q-62 -56 -146 -56q-100 0 -159.5 71.5t-59.5 197.5t59.5 200t158.5 74z" />
    <glyph glyph-name="Cdotaccent" unicode="&#x10a;" horiz-adv-x="547" 
d="M343 870q16 0 26 -10t10 -25t-10 -25t-26 -10t-26 10t-10 25t10 25t26 10zM344 694q96 0 171 -61l-26 -32q-66 52 -142 52q-101 0 -164 -76.5t-63 -234.5q0 -152 62.5 -231t161.5 -79q49 0 83 14.5t70 43.5l26 -32q-76 -69 -181 -69q-121 0 -196.5 92.5t-75.5 260.5
q0 169 77.5 260.5t196.5 91.5z" />
    <glyph glyph-name="cdotaccent" unicode="&#x10b;" horiz-adv-x="466" 
d="M285 744q16 0 26 -10t10 -25t-10 -25t-26 -10t-26 10t-10 25t10 25t26 10zM285 532q82 0 143 -51l-24 -31q-51 42 -117 42q-78 0 -124.5 -60t-46.5 -174q0 -112 46 -170t124 -58q66 0 122 46l24 -31q-62 -56 -146 -56q-100 0 -159.5 71.5t-59.5 197.5t59.5 200t158.5 74z
" />
    <glyph glyph-name="Ccaron" unicode="&#x10c;" horiz-adv-x="547" 
d="M462 880l21 -25l-127 -98h-27l-128 98l21 25l121 -79zM344 694q96 0 171 -61l-26 -32q-66 52 -142 52q-101 0 -164 -76.5t-63 -234.5q0 -152 62.5 -231t161.5 -79q49 0 83 14.5t70 43.5l26 -32q-76 -69 -181 -69q-121 0 -196.5 92.5t-75.5 260.5q0 169 77.5 260.5
t196.5 91.5z" />
    <glyph glyph-name="ccaron" unicode="&#x10d;" horiz-adv-x="466" 
d="M404 763l21 -24l-127 -104h-27l-128 104l21 24l121 -84zM285 532q82 0 143 -51l-24 -31q-51 42 -117 42q-78 0 -124.5 -60t-46.5 -174q0 -112 46 -170t124 -58q66 0 122 46l24 -31q-62 -56 -146 -56q-100 0 -159.5 71.5t-59.5 197.5t59.5 200t158.5 74z" />
    <glyph glyph-name="Dcaron" unicode="&#x10e;" horiz-adv-x="628" 
d="M418 880l21 -25l-127 -98h-27l-128 98l21 25l121 -79zM248 684q50 0 91.5 -7.5t83.5 -30t70.5 -58.5t46.5 -97.5t18 -142.5q0 -82 -18.5 -145t-48 -100.5t-70.5 -61.5t-81 -32.5t-85 -8.5h-140v684h133zM251 643h-89v-602h96q250 0 250 307q0 74 -15.5 129t-39 86t-59 50
t-68.5 24.5t-75 5.5z" />
    <glyph glyph-name="dcaron" unicode="&#x10f;" horiz-adv-x="581" 
d="M425 459v282l46 -6v-735h-40l-5 82q-54 -93 -160 -93q-89 0 -141.5 72.5t-52.5 197.5q0 123 54.5 198t149.5 75q92 0 149 -73zM554 740l46 -6l-35 -156l-30 4zM272 29q53 0 88.5 26t64.5 78v277q-56 83 -143 83q-74 0 -118.5 -62t-43.5 -172t41.5 -170t110.5 -60z" />
    <glyph glyph-name="Dcroat" unicode="&#x110;" horiz-adv-x="630" 
d="M250 684q50 0 91.5 -7.5t83.5 -30t70.5 -58.5t46.5 -97.5t18 -142.5q0 -82 -18.5 -145t-48 -100.5t-70.5 -61.5t-81 -32.5t-85 -8.5h-140v332h-93v40h93v312h133zM260 41q250 0 250 307q0 74 -15.5 129t-39 86t-59 50t-68.5 24.5t-75 5.5h-89v-271h182v-40h-182v-291h96z
" />
    <glyph glyph-name="dcroat" unicode="&#x111;" horiz-adv-x="586" 
d="M471 658h76v-38h-76v-620h-40l-5 82q-54 -93 -160 -93q-89 0 -141.5 72.5t-52.5 197.5q0 123 54.5 198t149.5 75q92 0 149 -73v161h-167v38h167v83l46 -6v-77zM272 29q53 0 88.5 26t64.5 78v277q-56 83 -143 83q-74 0 -118.5 -62t-43.5 -172t41.5 -170t110.5 -60z" />
    <glyph glyph-name="Emacron" unicode="&#x112;" horiz-adv-x="504" 
d="M403 805h-229v39h229v-39zM454 684l-6 -41h-286v-266h247v-41h-247v-295h298v-41h-345v684h339z" />
    <glyph glyph-name="emacron" unicode="&#x113;" horiz-adv-x="533" 
d="M389 718v-39h-229v39h229zM471 282q0 -21 -2 -41h-354q5 -107 51 -159t120 -52t142 53l23 -30q-77 -64 -167 -64q-101 0 -159 71t-58 197t55.5 200.5t149.5 74.5q97 0 148 -67t51 -183zM426 278v19q0 91 -38 143.5t-114 52.5q-68 0 -111.5 -53.5t-47.5 -161.5h311z" />
    <glyph glyph-name="Ebreve" unicode="&#x114;" horiz-adv-x="504" 
d="M289 767q-48 0 -82 26.5t-41 65.5l32 8q22 -61 91 -61t91 61l32 -8q-7 -39 -41 -65.5t-82 -26.5zM454 684l-6 -41h-286v-266h247v-41h-247v-295h298v-41h-345v684h339z" />
    <glyph glyph-name="ebreve" unicode="&#x115;" horiz-adv-x="533" 
d="M275 656q-49 0 -82.5 28t-40.5 75l32 7q20 -70 91 -70t91 70l32 -7q-7 -46 -40.5 -74.5t-82.5 -28.5zM471 282q0 -21 -2 -41h-354q5 -107 51 -159t120 -52t142 53l23 -30q-77 -64 -167 -64q-101 0 -159 71t-58 197t55.5 200.5t149.5 74.5q97 0 148 -67t51 -183zM426 278
v19q0 91 -38 143.5t-114 52.5q-68 0 -111.5 -53.5t-47.5 -161.5h311z" />
    <glyph glyph-name="Edotaccent" unicode="&#x116;" horiz-adv-x="504" 
d="M289 870q16 0 26 -10t10 -25t-10 -25t-26 -10t-26 10t-10 25t10 25t26 10zM454 684l-6 -41h-286v-266h247v-41h-247v-295h298v-41h-345v684h339z" />
    <glyph glyph-name="edotaccent" unicode="&#x117;" horiz-adv-x="533" 
d="M275 674q-16 0 -26 10t-10 25t10 25t26 10t26 -10t10 -25t-10 -25t-26 -10zM471 282q0 -21 -2 -41h-354q5 -107 51 -159t120 -52t142 53l23 -30q-77 -64 -167 -64q-101 0 -159 71t-58 197t55.5 200.5t149.5 74.5q97 0 148 -67t51 -183zM426 278v19q0 91 -38 143.5
t-114 52.5q-68 0 -111.5 -53.5t-47.5 -161.5h311z" />
    <glyph glyph-name="Eogonek" unicode="&#x118;" horiz-adv-x="504" 
d="M162 41h298v-41h-29q-66 -30 -94 -56t-28 -63q0 -53 65 -53q26 0 57 6l-4 -40q-35 -7 -57 -7q-51 0 -78.5 25t-27.5 64q0 73 104 124h-253v684h339l-6 -41h-286v-266h247v-41h-247v-295z" />
    <glyph glyph-name="eogonek" unicode="&#x119;" horiz-adv-x="533" 
d="M471 282q0 -21 -2 -41h-354q5 -107 51 -159t120 -52t142 53l23 -30q-44 -37 -88 -51q-61 -29 -87.5 -55t-26.5 -61q0 -53 67 -53q23 0 56 6l-5 -40q-35 -7 -56 -7q-52 0 -79.5 25t-27.5 64q0 66 81 108h-1q-101 0 -159 71t-58 197t55.5 200.5t149.5 74.5q97 0 148 -67
t51 -183zM426 278v19q0 91 -38 143.5t-114 52.5q-68 0 -111.5 -53.5t-47.5 -161.5h311z" />
    <glyph glyph-name="Ecaron" unicode="&#x11a;" horiz-adv-x="504" 
d="M408 880l21 -25l-127 -98h-27l-128 98l21 25l121 -79zM454 684l-6 -41h-286v-266h247v-41h-247v-295h298v-41h-345v684h339z" />
    <glyph glyph-name="ecaron" unicode="&#x11b;" horiz-adv-x="533" 
d="M288 635h-27l-128 104l21 24l121 -84l119 84l21 -24zM471 282q0 -21 -2 -41h-354q5 -107 51 -159t120 -52t142 53l23 -30q-77 -64 -167 -64q-101 0 -159 71t-58 197t55.5 200.5t149.5 74.5q97 0 148 -67t51 -183zM426 278v19q0 91 -38 143.5t-114 52.5
q-68 0 -111.5 -53.5t-47.5 -161.5h311z" />
    <glyph glyph-name="Gcircumflex" unicode="&#x11c;" horiz-adv-x="614" 
d="M230 763l-21 25l128 99h27l127 -99l-21 -25l-119 80zM351 694q101 0 182 -65l-29 -31q-69 55 -153 55q-95 0 -163 -76.5t-68 -231.5q0 -156 61.5 -235t169.5 -79q80 0 148 37v256h-138l-6 41h191v-321q-93 -55 -195 -55q-130 0 -205.5 91.5t-75.5 264.5q0 86 23.5 154
t63.5 110t89.5 63.5t104.5 21.5z" />
    <glyph glyph-name="gcircumflex" unicode="&#x11d;" horiz-adv-x="497" 
d="M128 647l-21 25l127 103h27l128 -103l-21 -25l-120 84zM471 562l15 -46q-45 -14 -142 -15q88 -42 88 -146q0 -77 -50 -123.5t-135 -46.5q-38 0 -69 11q-44 -24 -44 -64q0 -58 88 -58h86q75 0 119 -35.5t44 -93.5q0 -71 -55 -109.5t-165 -38.5q-114 0 -164.5 34.5
t-50.5 112.5h44q1 -59 38 -83t133 -24q173 0 173 105q0 43 -32.5 67t-90.5 24h-85q-61 0 -94 25.5t-33 64.5q0 51 57 87q-87 46 -87 148q0 78 51 126t136 48q98 -1 140.5 6t84.5 24zM247 495q-70 0 -105.5 -37t-35.5 -100q0 -65 38 -101t102 -36q67 0 103 35t36 100t-35 102
t-103 37z" />
    <glyph glyph-name="Gbreve" unicode="&#x11e;" horiz-adv-x="614" 
d="M351 767q-48 0 -82 26.5t-41 65.5l32 8q22 -61 91 -61t91 61l32 -8q-7 -39 -41 -65.5t-82 -26.5zM351 694q101 0 182 -65l-29 -31q-69 55 -153 55q-95 0 -163 -76.5t-68 -231.5q0 -156 61.5 -235t169.5 -79q80 0 148 37v256h-138l-6 41h191v-321q-93 -55 -195 -55
q-130 0 -205.5 91.5t-75.5 264.5q0 86 23.5 154t63.5 110t89.5 63.5t104.5 21.5z" />
    <glyph glyph-name="gbreve" unicode="&#x11f;" horiz-adv-x="497" 
d="M249 656q-49 0 -82.5 28t-40.5 75l32 7q20 -70 91 -70t91 70l32 -7q-7 -46 -40.5 -74.5t-82.5 -28.5zM471 562l15 -46q-45 -14 -142 -15q88 -42 88 -146q0 -77 -50 -123.5t-135 -46.5q-38 0 -69 11q-44 -24 -44 -64q0 -58 88 -58h86q75 0 119 -35.5t44 -93.5
q0 -71 -55 -109.5t-165 -38.5q-114 0 -164.5 34.5t-50.5 112.5h44q1 -59 38 -83t133 -24q173 0 173 105q0 43 -32.5 67t-90.5 24h-85q-61 0 -94 25.5t-33 64.5q0 51 57 87q-87 46 -87 148q0 78 51 126t136 48q98 -1 140.5 6t84.5 24zM247 495q-70 0 -105.5 -37t-35.5 -100
q0 -65 38 -101t102 -36q67 0 103 35t36 100t-35 102t-103 37z" />
    <glyph glyph-name="Gdotaccent" unicode="&#x120;" horiz-adv-x="614" 
d="M351 870q16 0 26 -10t10 -25t-10 -25t-26 -10t-26 10t-10 25t10 25t26 10zM351 694q101 0 182 -65l-29 -31q-69 55 -153 55q-95 0 -163 -76.5t-68 -231.5q0 -156 61.5 -235t169.5 -79q80 0 148 37v256h-138l-6 41h191v-321q-93 -55 -195 -55q-130 0 -205.5 91.5
t-75.5 264.5q0 86 23.5 154t63.5 110t89.5 63.5t104.5 21.5z" />
    <glyph glyph-name="gdotaccent" unicode="&#x121;" horiz-adv-x="497" 
d="M249 744q16 0 26 -10t10 -25t-10 -25t-26 -10t-26 10t-10 25t10 25t26 10zM471 562l15 -46q-45 -14 -142 -15q88 -42 88 -146q0 -77 -50 -123.5t-135 -46.5q-38 0 -69 11q-44 -24 -44 -64q0 -58 88 -58h86q75 0 119 -35.5t44 -93.5q0 -71 -55 -109.5t-165 -38.5
q-114 0 -164.5 34.5t-50.5 112.5h44q1 -59 38 -83t133 -24q173 0 173 105q0 43 -32.5 67t-90.5 24h-85q-61 0 -94 25.5t-33 64.5q0 51 57 87q-87 46 -87 148q0 78 51 126t136 48q98 -1 140.5 6t84.5 24zM247 495q-70 0 -105.5 -37t-35.5 -100q0 -65 38 -101t102 -36
q67 0 103 35t36 100t-35 102t-103 37z" />
    <glyph glyph-name="Gcommaaccent" unicode="&#x122;" horiz-adv-x="614" 
d="M351 694q101 0 182 -65l-29 -31q-69 55 -153 55q-95 0 -163 -76.5t-68 -231.5q0 -156 61.5 -235t169.5 -79q80 0 148 37v256h-138l-6 41h191v-321q-93 -55 -195 -55q-130 0 -205.5 91.5t-75.5 264.5q0 86 23.5 154t63.5 110t89.5 63.5t104.5 21.5zM337 -87q18 0 29 -11
t11 -27q0 -17 -21 -62l-40 -86h-29l33 114q-21 11 -21 34q0 16 11 27t27 11z" />
    <glyph glyph-name="gcommaaccent" unicode="&#x123;" horiz-adv-x="497" 
d="M246 590q-18 0 -29 11t-11 27q0 17 21 62l40 86h29l-33 -114q21 -10 21 -34q0 -16 -11 -27t-27 -11zM471 562l15 -46q-45 -14 -142 -15q88 -42 88 -146q0 -77 -50 -123.5t-135 -46.5q-38 0 -69 11q-44 -24 -44 -64q0 -58 88 -58h86q75 0 119 -35.5t44 -93.5
q0 -71 -55 -109.5t-165 -38.5q-114 0 -164.5 34.5t-50.5 112.5h44q1 -59 38 -83t133 -24q173 0 173 105q0 43 -32.5 67t-90.5 24h-85q-61 0 -94 25.5t-33 64.5q0 51 57 87q-87 46 -87 148q0 78 51 126t136 48q98 -1 140.5 6t84.5 24zM247 495q-70 0 -105.5 -37t-35.5 -100
q0 -65 38 -101t102 -36q67 0 103 35t36 100t-35 102t-103 37z" />
    <glyph glyph-name="Hcircumflex" unicode="&#x124;" horiz-adv-x="667" 
d="M211 763l-21 25l128 99h27l127 -99l-21 -25l-119 80zM504 0v339h-342v-339h-47v684h47v-303h342v303h48v-684h-48z" />
    <glyph glyph-name="hcircumflex" unicode="&#x125;" horiz-adv-x="583" 
d="M295 894l-121 -80l-21 25l128 99h27l127 -99l-21 -25zM335 532q70 0 106.5 -42t36.5 -118v-372h-46v366q0 128 -104 128q-95 0 -172 -113v-381h-46v735l46 6v-311q74 102 179 102z" />
    <glyph glyph-name="Hbar" unicode="&#x126;" horiz-adv-x="669" 
d="M617 551v-36h-64v-515h-48v339h-342v-339h-47v515h-65v36h65v133h47v-133h342v133h48v-133h64zM505 381v134h-342v-134h342z" />
    <glyph glyph-name="hbar" unicode="&#x127;" horiz-adv-x="588" 
d="M340 532q70 0 106.5 -42t36.5 -118v-372h-46v366q0 128 -104 128q-95 0 -172 -113v-381h-46v620h-76v38h76v77l46 6v-83h171v-38h-171v-190q74 102 179 102z" />
    <glyph glyph-name="Itilde" unicode="&#x128;" horiz-adv-x="277" 
d="M196 796q-27 0 -64.5 22t-52.5 22q-30 0 -57 -37l-29 15q37 60 86 60q22 0 60 -22t57 -22q28 0 57 43l29 -15q-32 -66 -86 -66zM162 684v-684h-47v684h47z" />
    <glyph glyph-name="itilde" unicode="&#x129;" horiz-adv-x="266" 
d="M191 670q-27 0 -64.5 22t-52.5 22q-30 0 -57 -37l-29 15q37 60 86 60q22 0 60 -22t57 -22q28 0 57 43l29 -15q-32 -66 -86 -66zM156 522v-522h-46v522h46z" />
    <glyph glyph-name="Imacron" unicode="&#x12a;" horiz-adv-x="277" 
d="M252 805h-229v39h229v-39zM162 684v-684h-47v684h47z" />
    <glyph glyph-name="imacron" unicode="&#x12b;" horiz-adv-x="266" 
d="M247 679h-229v39h229v-39zM156 522v-522h-46v522h46z" />
    <glyph glyph-name="Ibreve" unicode="&#x12c;" horiz-adv-x="277" 
d="M138 767q-48 0 -82 26.5t-41 65.5l32 8q22 -61 91 -61t91 61l32 -8q-7 -39 -41 -65.5t-82 -26.5zM162 684v-684h-47v684h47z" />
    <glyph glyph-name="ibreve" unicode="&#x12d;" horiz-adv-x="266" 
d="M133 656q-49 0 -82.5 28t-40.5 75l32 7q20 -70 91 -70t91 70l32 -7q-7 -46 -40.5 -74.5t-82.5 -28.5zM156 522v-522h-46v522h46z" />
    <glyph glyph-name="Iogonek" unicode="&#x12e;" horiz-adv-x="277" 
d="M162 0q-66 -30 -94 -56t-28 -63q0 -53 65 -53q25 0 57 6l-4 -40q-35 -7 -57 -7q-51 0 -78.5 25t-27.5 64q0 77 120 132v676h47v-684z" />
    <glyph glyph-name="iogonek" unicode="&#x12f;" horiz-adv-x="266" 
d="M133 744q16 0 26 -10t10 -25t-10 -25t-26 -10t-26 10t-10 25t10 25t26 10zM110 8v514h46v-522q-66 -30 -94 -56t-28 -63q0 -53 65 -53q25 0 57 6l-4 -40q-35 -7 -57 -7q-51 0 -78.5 25t-27.5 64q0 79 121 132z" />
    <glyph glyph-name="Idotaccent" unicode="&#x130;" horiz-adv-x="277" 
d="M138 870q16 0 26 -10t10 -25t-10 -25t-26 -10t-26 10t-10 25t10 25t26 10zM162 684v-684h-47v684h47z" />
    <glyph glyph-name="dotlessi" unicode="&#x131;" horiz-adv-x="266" 
d="M156 522v-522h-46v522h46z" />
    <glyph glyph-name="IJ" unicode="&#x132;" horiz-adv-x="563" 
d="M162 684v-684h-47v684h47zM454 684v-594q0 -84 -31 -125.5t-117 -77.5l-13 35q68 31 90.5 66t22.5 105v591h48z" />
    <glyph glyph-name="ij" unicode="&#x133;" horiz-adv-x="532" 
d="M133 744q16 0 26 -10t10 -25t-10 -25t-26 -10t-26 10t-10 25t10 25t26 10zM399 744q16 0 26 -10t10 -25t-10 -25t-26 -10t-26 10t-10 25t10 25t26 10zM156 522v-522h-46v522h46zM422 522v-508q0 -96 -29 -138t-102 -76l-13 33q56 28 77 63t21 117v509h46z" />
    <glyph glyph-name="Jcircumflex" unicode="&#x134;" horiz-adv-x="286" 
d="M30 763l-21 25l128 99h27l127 -99l-21 -25l-119 80zM177 684v-594q0 -84 -31 -125.5t-117 -77.5l-13 35q68 31 90.5 66t22.5 105v591h48z" />
    <glyph glyph-name="jcircumflex" unicode="&#x135;" horiz-adv-x="266" 
d="M12 647l-21 25l127 103h27l128 -103l-21 -25l-120 84zM156 522v-508q0 -96 -29 -138t-102 -76l-13 33q56 28 77 63t21 117v509h46z" />
    <glyph glyph-name="Kcommaaccent" unicode="&#x136;" horiz-adv-x="533" 
d="M162 684v-684h-47v684h47zM516 684l-292 -315l309 -369h-59l-308 367l295 317h55zM302 -87q18 0 29 -11t11 -27q0 -17 -21 -62l-40 -86h-29l33 114q-21 11 -21 34q0 16 11 27t27 11z" />
    <glyph glyph-name="kcommaaccent" unicode="&#x137;" horiz-adv-x="480" 
d="M156 741v-741h-46v735zM445 522l-228 -235l252 -287h-56l-251 285l229 237h54zM265 -87q18 0 29 -11t11 -27q0 -17 -21 -62l-40 -86h-29l33 114q-21 11 -21 34q0 16 11 27t27 11z" />
    <glyph glyph-name="kgreenlandic" unicode="&#x138;" horiz-adv-x="479" 
d="M156 522v-522h-46v522h46zM445 522l-229 -245l252 -277h-56l-251 275l229 247h55z" />
    <glyph glyph-name="Lacute" unicode="&#x139;" horiz-adv-x="470" 
d="M220 880l21 -44l-192 -77l-13 29zM162 684v-640h288l-7 -44h-328v684h47z" />
    <glyph glyph-name="lacute" unicode="&#x13a;" horiz-adv-x="281" 
d="M209 931l21 -44l-192 -77l-13 29zM191 -11q-40 0 -63 23.5t-23 69.5v653l46 6v-657q0 -54 45 -54q18 0 37 7l13 -35q-28 -13 -55 -13z" />
    <glyph glyph-name="Lcommaaccent" unicode="&#x13b;" horiz-adv-x="470" 
d="M162 684v-640h288l-7 -44h-328v684h47zM280 -87q18 0 29 -11t11 -27q0 -17 -21 -62l-40 -86h-29l33 114q-21 11 -21 34q0 16 11 27t27 11z" />
    <glyph glyph-name="lcommaaccent" unicode="&#x13c;" horiz-adv-x="281" 
d="M191 -11q-40 0 -63 23.5t-23 69.5v653l46 6v-657q0 -54 45 -54q18 0 37 7l13 -35q-28 -13 -55 -13zM179 -87q18 0 29 -11t11 -27q0 -17 -21 -62l-40 -86h-29l33 114q-21 11 -21 34q0 16 11 27t27 11z" />
    <glyph glyph-name="Lcaron" unicode="&#x13d;" horiz-adv-x="470" 
d="M259 527l35 156l-46 6l-19 -158zM162 684v-640h288l-7 -44h-328v684h47z" />
    <glyph glyph-name="lcaron" unicode="&#x13e;" horiz-adv-x="281" 
d="M191 -11q-40 0 -63 23.5t-23 69.5v653l46 6v-657q0 -54 45 -54q18 0 37 7l13 -35q-28 -13 -55 -13zM245 578l35 156l-46 6l-19 -158z" />
    <glyph glyph-name="Ldot" unicode="&#x13f;" horiz-adv-x="470" 
d="M162 684v-640h288l-7 -44h-328v684h47zM362 397q16 0 26 -10t10 -25t-10 -25t-26 -10t-26 10t-10 25t10 25t26 10z" />
    <glyph glyph-name="ldot" unicode="&#x140;" horiz-adv-x="290" 
d="M191 -11q-40 0 -63 23.5t-23 69.5v653l46 6v-657q0 -54 45 -54q18 0 37 7l13 -35q-28 -13 -55 -13zM271 410q16 0 26 -10t10 -25t-10 -25t-26 -10t-26 10t-10 25t10 25t26 10z" />
    <glyph glyph-name="Lslash" unicode="&#x141;" horiz-adv-x="478" 
d="M171 44h288l-7 -44h-328v290l-68 -42l-19 32l86 53l1 1v350h47v-321l188 118l20 -32l-208 -129v-276z" />
    <glyph glyph-name="lslash" unicode="&#x142;" horiz-adv-x="295" 
d="M203 30q18 0 37 7l13 -35q-28 -13 -55 -13q-40 0 -63 23.5t-23 69.5v248l-60 -37l-19 31l79 49v362l46 6v-340l100 61l18 -31l-118 -73v-274q0 -54 45 -54z" />
    <glyph glyph-name="Nacute" unicode="&#x143;" horiz-adv-x="669" 
d="M424 880l21 -44l-192 -77l-13 29zM554 684v-684h-61l-339 631q6 -88 6 -224v-407h-45v684h61l339 -631q-6 99 -6 200v431h45z" />
    <glyph glyph-name="nacute" unicode="&#x144;" horiz-adv-x="583" 
d="M392 732l-190 -84l-15 28l184 100zM335 532q71 0 107 -41.5t36 -118.5v-372h-46v366q0 128 -104 128q-95 0 -172 -113v-381h-46v522h40l4 -93q74 103 181 103z" />
    <glyph glyph-name="Ncommaaccent" unicode="&#x145;" horiz-adv-x="669" 
d="M554 684v-684h-61l-339 631q6 -88 6 -224v-407h-45v684h61l339 -631q-6 99 -6 200v431h45zM333 -87q18 0 29 -11t11 -27q0 -17 -21 -62l-40 -86h-29l33 114q-21 11 -21 34q0 16 11 27t27 11z" />
    <glyph glyph-name="ncommaaccent" unicode="&#x146;" horiz-adv-x="583" 
d="M335 532q71 0 107 -41.5t36 -118.5v-372h-46v366q0 128 -104 128q-95 0 -172 -113v-381h-46v522h40l4 -93q74 103 181 103zM290 -87q18 0 29 -11t11 -27q0 -17 -21 -62l-40 -86h-29l33 114q-21 11 -21 34q0 16 11 27t27 11z" />
    <glyph glyph-name="Ncaron" unicode="&#x147;" horiz-adv-x="669" 
d="M462 880l21 -25l-127 -98h-27l-128 98l21 25l121 -79zM554 684v-684h-61l-339 631q6 -88 6 -224v-407h-45v684h61l339 -631q-6 99 -6 200v431h45z" />
    <glyph glyph-name="ncaron" unicode="&#x148;" horiz-adv-x="583" 
d="M310 635h-27l-128 104l21 24l121 -84l119 84l21 -24zM335 532q71 0 107 -41.5t36 -118.5v-372h-46v366q0 128 -104 128q-95 0 -172 -113v-381h-46v522h40l4 -93q74 103 181 103z" />
    <glyph glyph-name="napostrophe" unicode="&#x149;" horiz-adv-x="657" 
d="M96 742q18 0 29 -11t11 -27q0 -6 -1.5 -12t-3.5 -11l-7 -17l-9 -22l-35 -90h-29l28 118q-21 9 -21 34q0 16 10.5 27t27.5 11zM409 532q71 0 107 -41.5t36 -118.5v-372h-46v366q0 128 -104 128q-95 0 -172 -113v-381h-46v522h40l4 -93q74 103 181 103z" />
    <glyph glyph-name="Eng" unicode="&#x14a;" horiz-adv-x="669" 
d="M509 684h45v-760q0 -62 -31.5 -94.5t-84.5 -32.5q-54 0 -97 33l20 31q35 -23 76 -23q69 0 69 86v76h-13l-339 631q6 -88 6 -224v-407h-45v684h61l339 -631q-6 99 -6 200v431z" />
    <glyph glyph-name="eng" unicode="&#x14b;" horiz-adv-x="583" 
d="M335 532q71 0 107 -41.5t36 -118.5v-448q0 -62 -31.5 -94.5t-84.5 -32.5q-54 0 -97 33l20 30q35 -23 76 -23q71 0 71 86v443q0 128 -104 128q-95 0 -172 -113v-381h-46v522h40l4 -93q74 103 181 103z" />
    <glyph glyph-name="Omacron" unicode="&#x14c;" horiz-adv-x="691" 
d="M459 805h-229v39h229v-39zM345 694q126 0 201 -92t75 -261q0 -166 -74.5 -259t-201.5 -93q-125 0 -200 92t-75 259q0 166 75.5 260t199.5 94zM345 653q-104 0 -164.5 -79.5t-60.5 -233.5q0 -151 61 -230t164 -79q107 0 166.5 78.5t59.5 231.5q0 154 -60 233t-166 79z" />
    <glyph glyph-name="omacron" unicode="&#x14d;" horiz-adv-x="567" 
d="M398 679h-229v39h229v-39zM284 532q102 0 159 -70.5t57 -198.5t-58 -201t-159 -73t-158.5 72.5t-57.5 198.5q0 127 58.5 199.5t158.5 72.5zM284 492q-79 0 -124 -59.5t-45 -172.5q0 -111 44 -171t124 -60q79 0 124 60t45 174q0 112 -44 170.5t-124 58.5z" />
    <glyph glyph-name="Obreve" unicode="&#x14e;" horiz-adv-x="691" 
d="M345 767q-48 0 -82 26.5t-41 65.5l32 8q22 -61 91 -61t91 61l32 -8q-7 -39 -41 -65.5t-82 -26.5zM345 694q126 0 201 -92t75 -261q0 -166 -74.5 -259t-201.5 -93q-125 0 -200 92t-75 259q0 166 75.5 260t199.5 94zM345 653q-104 0 -164.5 -79.5t-60.5 -233.5
q0 -151 61 -230t164 -79q107 0 166.5 78.5t59.5 231.5q0 154 -60 233t-166 79z" />
    <glyph glyph-name="obreve" unicode="&#x14f;" horiz-adv-x="567" 
d="M284 656q-49 0 -82.5 28t-40.5 75l32 7q20 -70 91 -70t91 70l32 -7q-7 -46 -40.5 -74.5t-82.5 -28.5zM284 532q102 0 159 -70.5t57 -198.5t-58 -201t-159 -73t-158.5 72.5t-57.5 198.5q0 127 58.5 199.5t158.5 72.5zM284 492q-79 0 -124 -59.5t-45 -172.5q0 -111 44 -171
t124 -60q79 0 124 60t45 174q0 112 -44 170.5t-124 58.5z" />
    <glyph glyph-name="Ohungarumlaut" unicode="&#x150;" horiz-adv-x="691" 
d="M451 930l43 -23l-88 -136l-31 15zM330 929l43 -22l-81 -132l-31 15zM345 694q126 0 201 -92t75 -261q0 -166 -74.5 -259t-201.5 -93q-125 0 -200 92t-75 259q0 166 75.5 260t199.5 94zM345 653q-104 0 -164.5 -79.5t-60.5 -233.5q0 -151 61 -230t164 -79
q107 0 166.5 78.5t59.5 231.5q0 154 -60 233t-166 79z" />
    <glyph glyph-name="ohungarumlaut" unicode="&#x151;" horiz-adv-x="567" 
d="M396 804l43 -23l-88 -136l-31 15zM275 803l43 -22l-81 -132l-31 15zM284 532q102 0 159 -70.5t57 -198.5t-58 -201t-159 -73t-158.5 72.5t-57.5 198.5q0 127 58.5 199.5t158.5 72.5zM284 492q-79 0 -124 -59.5t-45 -172.5q0 -111 44 -171t124 -60q79 0 124 60t45 174
q0 112 -44 170.5t-124 58.5z" />
    <glyph glyph-name="OE" unicode="&#x152;" horiz-adv-x="861" 
d="M817 41v-41h-414q-35 -11 -69 -11q-117 0 -190.5 92.5t-73.5 258.5q0 165 74 259.5t190 94.5q39 0 70 -10h407l-6 -41h-325q112 -78 120 -266h166v-41h-165q-3 -213 -123 -295h339zM120 340q0 -150 59.5 -229.5t155.5 -79.5q101 0 158.5 80t57.5 237q0 149 -58.5 227
t-157.5 78q-97 0 -156 -80t-59 -233z" />
    <glyph glyph-name="oe" unicode="&#x153;" horiz-adv-x="918" 
d="M857 282q0 -21 -2 -41h-355q5 -107 51 -159t120 -52t142 53l23 -30q-75 -64 -167 -64q-69 0 -119 37t-75 104q-25 -67 -74.5 -104t-117.5 -37q-101 0 -158.5 72.5t-57.5 198.5q0 127 58.5 199.5t158.5 72.5q140 0 193 -139q25 65 71.5 102t110.5 37q96 0 147 -67t51 -183
zM811 278v19q0 91 -38 143.5t-112 52.5q-69 0 -113 -53.5t-48 -161.5h311zM283 29q79 0 124 60t45 174q0 112 -44 170.5t-124 58.5q-79 0 -124 -59.5t-45 -172.5q0 -111 44 -171t124 -60z" />
    <glyph glyph-name="Racute" unicode="&#x154;" horiz-adv-x="584" 
d="M391 836l-192 -77l-13 29l184 92zM491 0l-181 313h-148v-313h-47v684h161q237 0 237 -183q0 -143 -154 -180l189 -321h-57zM162 353h121q180 0 180 148q0 72 -44.5 107t-145.5 35h-111v-290z" />
    <glyph glyph-name="racute" unicode="&#x155;" horiz-adv-x="369" 
d="M326 732l-190 -84l-15 28l184 100zM303 532q34 0 52 -6l-9 -43q-19 6 -46 6q-55 0 -88.5 -39.5t-55.5 -123.5v-326h-46v522h40l3 -121q42 131 150 131z" />
    <glyph glyph-name="Rcommaaccent" unicode="&#x156;" horiz-adv-x="584" 
d="M359 321l189 -321h-57l-181 313h-148v-313h-47v684h161q237 0 237 -183q0 -143 -154 -180zM162 353h121q180 0 180 148q0 72 -44.5 107t-145.5 35h-111v-290zM304 -87q18 0 29 -11t11 -27q0 -17 -21 -62l-40 -86h-29l33 114q-21 11 -21 34q0 16 11 27t27 11z" />
    <glyph glyph-name="rcommaaccent" unicode="&#x157;" horiz-adv-x="369" 
d="M303 532q34 0 52 -6l-9 -43q-19 6 -46 6q-55 0 -88.5 -39.5t-55.5 -123.5v-326h-46v522h40l3 -121q42 131 150 131zM132 -87q18 0 29 -11t11 -27q0 -17 -21 -62l-40 -86h-29l33 114q-21 11 -21 34q0 16 11 27t27 11z" />
    <glyph glyph-name="Rcaron" unicode="&#x158;" horiz-adv-x="584" 
d="M302 757h-27l-128 98l21 25l121 -79l119 79l21 -25zM491 0l-181 313h-148v-313h-47v684h161q237 0 237 -183q0 -143 -154 -180l189 -321h-57zM162 353h121q180 0 180 148q0 72 -44.5 107t-145.5 35h-111v-290z" />
    <glyph glyph-name="rcaron" unicode="&#x159;" horiz-adv-x="369" 
d="M244 635h-27l-128 104l21 24l121 -84l119 84l21 -24zM153 401q42 131 150 131q34 0 52 -6l-9 -43q-19 6 -46 6q-55 0 -88.5 -39.5t-55.5 -123.5v-326h-46v522h40z" />
    <glyph glyph-name="Sacute" unicode="&#x15a;" horiz-adv-x="537" 
d="M351 880l21 -44l-192 -77l-13 29zM266 694q62 0 105.5 -18.5t85.5 -55.5l-28 -31q-73 64 -162 64q-67 0 -107.5 -33.5t-40.5 -88.5q0 -56 35 -86.5t128 -58.5q103 -31 149.5 -74.5t46.5 -126.5q0 -87 -60.5 -141.5t-159.5 -54.5q-124 0 -214 85l28 31q82 -74 185 -74
q77 0 125 41t48 112q0 65 -36 99t-131 63q-105 32 -148.5 73t-43.5 111q0 71 54 117.5t141 46.5z" />
    <glyph glyph-name="sacute" unicode="&#x15b;" horiz-adv-x="463" 
d="M312 776l21 -44l-190 -84l-15 28zM233 532q89 0 162 -57l-23 -31q-67 49 -138 49q-55 0 -89 -25.5t-34 -69.5q0 -40 29 -62t103 -42q90 -24 128 -57.5t38 -98.5q0 -68 -51.5 -108.5t-130.5 -40.5q-104 0 -183 67l26 30q71 -57 156 -57q60 0 97.5 28.5t37.5 79.5
q0 50 -28.5 74t-112.5 47q-84 22 -120 54t-36 86q0 59 48 96.5t121 37.5z" />
    <glyph glyph-name="Scircumflex" unicode="&#x15c;" horiz-adv-x="537" 
d="M149 763l-21 25l128 99h27l127 -99l-21 -25l-119 80zM266 694q62 0 105.5 -18.5t85.5 -55.5l-28 -31q-73 64 -162 64q-67 0 -107.5 -33.5t-40.5 -88.5q0 -56 35 -86.5t128 -58.5q103 -31 149.5 -74.5t46.5 -126.5q0 -87 -60.5 -141.5t-159.5 -54.5q-124 0 -214 85l28 31
q82 -74 185 -74q77 0 125 41t48 112q0 65 -36 99t-131 63q-105 32 -148.5 73t-43.5 111q0 71 54 117.5t141 46.5z" />
    <glyph glyph-name="scircumflex" unicode="&#x15d;" horiz-adv-x="463" 
d="M117 647l-21 25l127 103h27l128 -103l-21 -25l-120 84zM233 532q89 0 162 -57l-23 -31q-67 49 -138 49q-55 0 -89 -25.5t-34 -69.5q0 -40 29 -62t103 -42q90 -24 128 -57.5t38 -98.5q0 -68 -51.5 -108.5t-130.5 -40.5q-104 0 -183 67l26 30q71 -57 156 -57
q60 0 97.5 28.5t37.5 79.5q0 50 -28.5 74t-112.5 47q-84 22 -120 54t-36 86q0 59 48 96.5t121 37.5z" />
    <glyph glyph-name="Scedilla" unicode="&#x15e;" horiz-adv-x="537" 
d="M478 185q0 -84 -56 -138t-149 -58v-56q92 -7 92 -73q0 -38 -28.5 -60t-70.5 -22q-43 0 -76 20l16 30q28 -15 59 -15q25 0 41 12t16 35q0 45 -89 45l7 84q-115 7 -196 85l28 31q82 -74 185 -74q77 0 125 41t48 112q0 65 -36 99t-131 63q-105 32 -148.5 73t-43.5 111
q0 71 54 117.5t141 46.5q62 0 105.5 -18.5t85.5 -55.5l-28 -31q-73 64 -162 64q-67 0 -107.5 -33.5t-40.5 -88.5q0 -56 35 -86.5t128 -58.5q103 -31 149.5 -74.5t46.5 -126.5z" />
    <glyph glyph-name="scedilla" unicode="&#x15f;" horiz-adv-x="463" 
d="M409 138q0 -64 -46.5 -104t-119.5 -45v-56q92 -7 92 -73q0 -38 -28.5 -60t-70.5 -22q-43 0 -76 20l16 30q28 -15 59 -15q25 0 41 12t16 35q0 45 -89 45l7 84q-92 5 -166 67l26 30q71 -57 156 -57q60 0 97.5 28.5t37.5 79.5q0 50 -28.5 74t-112.5 47q-84 22 -120 54
t-36 86q0 59 48 96.5t121 37.5q89 0 162 -57l-23 -31q-67 49 -138 49q-55 0 -89 -25.5t-34 -69.5q0 -40 29 -62t103 -42q90 -24 128 -57.5t38 -98.5z" />
    <glyph glyph-name="Scaron" unicode="&#x160;" horiz-adv-x="537" 
d="M389 880l21 -25l-127 -98h-27l-128 98l21 25l121 -79zM266 694q62 0 105.5 -18.5t85.5 -55.5l-28 -31q-73 64 -162 64q-67 0 -107.5 -33.5t-40.5 -88.5q0 -56 35 -86.5t128 -58.5q103 -31 149.5 -74.5t46.5 -126.5q0 -87 -60.5 -141.5t-159.5 -54.5q-124 0 -214 85l28 31
q82 -74 185 -74q77 0 125 41t48 112q0 65 -36 99t-131 63q-105 32 -148.5 73t-43.5 111q0 71 54 117.5t141 46.5z" />
    <glyph glyph-name="scaron" unicode="&#x161;" horiz-adv-x="463" 
d="M357 763l21 -24l-127 -104h-27l-128 104l21 24l121 -84zM233 532q89 0 162 -57l-23 -31q-67 49 -138 49q-55 0 -89 -25.5t-34 -69.5q0 -40 29 -62t103 -42q90 -24 128 -57.5t38 -98.5q0 -68 -51.5 -108.5t-130.5 -40.5q-104 0 -183 67l26 30q71 -57 156 -57
q60 0 97.5 28.5t37.5 79.5q0 50 -28.5 74t-112.5 47q-84 22 -120 54t-36 86q0 59 48 96.5t121 37.5z" />
    <glyph glyph-name="uni0162" unicode="&#x162;" horiz-adv-x="487" 
d="M267 -67q92 -7 92 -73q0 -38 -29 -60t-71 -22t-75 20l16 30q28 -15 58 -15q25 0 41.5 12t16.5 35q0 45 -89 45l8 95h-15v641h-205v43h462l-6 -43h-204v-708z" />
    <glyph glyph-name="uni0163" unicode="&#x163;" horiz-adv-x="334" 
d="M237 -67q92 -7 92 -73q0 -38 -28.5 -60t-70.5 -22q-43 0 -76 20l16 30q28 -15 59 -15q25 0 41 12t16 35q0 45 -89 45l7 86q-96 16 -96 132v360h-87v39h87v127l46 5v-132h138l-6 -39h-132v-357q0 -96 81 -96q42 0 84 24l19 -33q-47 -31 -101 -32v-56z" />
    <glyph glyph-name="Tcaron" unicode="&#x164;" horiz-adv-x="487" 
d="M363 880l21 -25l-127 -98h-27l-128 98l21 25l121 -79zM477 684l-6 -43h-204v-641h-47v641h-205v43h462z" />
    <glyph glyph-name="tcaron" unicode="&#x165;" horiz-adv-x="334" 
d="M269 737l-35 -156l-30 4l19 158zM319 54l19 -33q-50 -32 -108 -32q-57 0 -89.5 34t-32.5 100v360h-87v39h87v127l46 5v-132h138l-6 -39h-132v-357q0 -96 81 -96q42 0 84 24z" />
    <glyph glyph-name="Tbar" unicode="&#x166;" horiz-adv-x="487" 
d="M471 640h-204v-257h125v-39h-125v-345h-47v345h-124v39h124v257h-205v43h462z" />
    <glyph glyph-name="tbar" unicode="&#x167;" horiz-adv-x="334" 
d="M319 54l19 -33q-50 -32 -108 -32q-57 0 -89.5 34t-32.5 100v186h-84v38h84v136h-87v39h87v127l46 5v-132h138l-6 -39h-132v-136h128v-38h-128v-183q0 -96 81 -96q42 0 84 24z" />
    <glyph glyph-name="Utilde" unicode="&#x168;" horiz-adv-x="648" 
d="M382 796q-27 0 -64.5 22t-52.5 22q-30 0 -57 -37l-29 15q37 60 86 60q22 0 60 -22t57 -22q28 0 57 43l29 -15q-32 -66 -86 -66zM543 684v-473q0 -101 -55.5 -161.5t-163.5 -60.5t-163.5 60.5t-55.5 161.5v473h47v-469q0 -87 42.5 -135t129.5 -48t129 48.5t42 134.5v469
h48z" />
    <glyph glyph-name="utilde" unicode="&#x169;" horiz-adv-x="578" 
d="M345 670q-27 0 -64.5 22t-52.5 22q-30 0 -57 -37l-29 15q37 60 86 60q22 0 60 -22t57 -22q28 0 57 43l29 -15q-32 -66 -86 -66zM468 522v-522h-39l-3 97q-61 -108 -173 -108q-71 0 -109.5 41.5t-38.5 118.5v373h46v-369q0 -124 111 -124q96 0 160 112v381h46z" />
    <glyph glyph-name="Umacron" unicode="&#x16a;" horiz-adv-x="648" 
d="M438 805h-229v39h229v-39zM543 684v-473q0 -101 -55.5 -161.5t-163.5 -60.5t-163.5 60.5t-55.5 161.5v473h47v-469q0 -87 42.5 -135t129.5 -48t129 48.5t42 134.5v469h48z" />
    <glyph glyph-name="umacron" unicode="&#x16b;" horiz-adv-x="578" 
d="M401 679h-229v39h229v-39zM468 522v-522h-39l-3 97q-61 -108 -173 -108q-71 0 -109.5 41.5t-38.5 118.5v373h46v-369q0 -124 111 -124q96 0 160 112v381h46z" />
    <glyph glyph-name="Ubreve" unicode="&#x16c;" horiz-adv-x="648" 
d="M324 767q-48 0 -82 26.5t-41 65.5l32 8q22 -61 91 -61t91 61l32 -8q-7 -39 -41 -65.5t-82 -26.5zM543 684v-473q0 -101 -55.5 -161.5t-163.5 -60.5t-163.5 60.5t-55.5 161.5v473h47v-469q0 -87 42.5 -135t129.5 -48t129 48.5t42 134.5v469h48z" />
    <glyph glyph-name="ubreve" unicode="&#x16d;" horiz-adv-x="578" 
d="M287 656q-49 0 -82.5 28t-40.5 75l32 7q20 -70 91 -70t91 70l32 -7q-7 -46 -40.5 -74.5t-82.5 -28.5zM468 522v-522h-39l-3 97q-61 -108 -173 -108q-71 0 -109.5 41.5t-38.5 118.5v373h46v-369q0 -124 111 -124q96 0 160 112v381h46z" />
    <glyph glyph-name="Uring" unicode="&#x16e;" horiz-adv-x="648" 
d="M324 941q41 0 67 -24.5t26 -64.5t-26 -65t-67 -25t-67 25t-26 65t26 64.5t67 24.5zM324 911q-27 0 -41.5 -15.5t-14.5 -43.5q0 -59 56 -59t56 59q0 28 -14.5 43.5t-41.5 15.5zM543 684v-473q0 -101 -55.5 -161.5t-163.5 -60.5t-163.5 60.5t-55.5 161.5v473h47v-469
q0 -87 42.5 -135t129.5 -48t129 48.5t42 134.5v469h48z" />
    <glyph glyph-name="uring" unicode="&#x16f;" horiz-adv-x="578" 
d="M287 815q41 0 67 -24.5t26 -64.5t-26 -65t-67 -25t-67 25t-26 65t26 64.5t67 24.5zM287 785q-27 0 -41.5 -15.5t-14.5 -43.5q0 -59 56 -59t56 59q0 28 -14.5 43.5t-41.5 15.5zM468 522v-522h-39l-3 97q-61 -108 -173 -108q-71 0 -109.5 41.5t-38.5 118.5v373h46v-369
q0 -124 111 -124q96 0 160 112v381h46z" />
    <glyph glyph-name="Uhungarumlaut" unicode="&#x170;" horiz-adv-x="648" 
d="M430 930l43 -23l-88 -136l-31 15zM309 929l43 -22l-81 -132l-31 15zM543 684v-473q0 -101 -55.5 -161.5t-163.5 -60.5t-163.5 60.5t-55.5 161.5v473h47v-469q0 -87 42.5 -135t129.5 -48t129 48.5t42 134.5v469h48z" />
    <glyph glyph-name="uhungarumlaut" unicode="&#x171;" horiz-adv-x="578" 
d="M399 804l43 -23l-88 -136l-31 15zM278 803l43 -22l-81 -132l-31 15zM468 522v-522h-39l-3 97q-61 -108 -173 -108q-71 0 -109.5 41.5t-38.5 118.5v373h46v-369q0 -124 111 -124q96 0 160 112v381h46z" />
    <glyph glyph-name="Uogonek" unicode="&#x172;" horiz-adv-x="648" 
d="M495 684h48v-473q0 -82 -37 -138t-109 -75q-63 -29 -90 -55t-27 -62q0 -53 67 -53q23 0 56 6l-5 -40q-35 -7 -56 -7q-52 0 -79.5 25t-27.5 64q0 70 91 113h-2q-108 0 -163.5 60.5t-55.5 161.5v473h47v-469q0 -87 42.5 -135t129.5 -48t129 48.5t42 134.5v469z" />
    <glyph glyph-name="uogonek" unicode="&#x173;" horiz-adv-x="578" 
d="M468 0q-66 -30 -94 -56t-28 -63q0 -53 65 -53q25 0 57 6l-4 -40q-35 -7 -57 -7q-51 0 -78.5 25t-27.5 64q0 80 128 135l-3 86q-61 -108 -173 -108q-71 0 -109.5 41.5t-38.5 118.5v373h46v-369q0 -124 111 -124q96 0 160 112v381h46v-522z" />
    <glyph glyph-name="Wcircumflex" unicode="&#x174;" horiz-adv-x="804" 
d="M281 763l-21 25l128 99h27l127 -99l-21 -25l-119 80zM771 684l-154 -684h-58l-157 632l-158 -632h-57l-155 684h49l137 -638l157 638h54l159 -638l137 638h46z" />
    <glyph glyph-name="wcircumflex" unicode="&#x175;" horiz-adv-x="692" 
d="M225 647l-21 25l127 103h27l128 -103l-21 -25l-120 84zM664 522l-130 -522h-62l-125 478l-125 -478h-61l-134 522h49l117 -484l128 484h54l128 -485l116 485h45z" />
    <glyph glyph-name="Ycircumflex" unicode="&#x176;" horiz-adv-x="513" 
d="M135 763l-21 25l128 99h27l127 -99l-21 -25l-119 80zM497 684l-216 -415v-269h-47v268l-218 416h53l190 -372l186 372h52z" />
    <glyph glyph-name="ycircumflex" unicode="&#x177;" horiz-adv-x="459" 
d="M109 647l-21 25l127 103h27l128 -103l-21 -25l-120 84zM442 522l-181 -524q-31 -91 -73 -135t-129 -64l-6 36q74 20 104.5 53.5t59.5 111.5h-16l-184 522h50l165 -487l160 487h50z" />
    <glyph glyph-name="Ydieresis" unicode="&#x178;" horiz-adv-x="513" 
d="M165 858q15 0 24.5 -9.5t9.5 -23.5t-9.5 -23.5t-24.5 -9.5t-24.5 9.5t-9.5 23.5t9.5 23.5t24.5 9.5zM347 858q14 0 23.5 -9.5t9.5 -23.5t-9.5 -23.5t-23.5 -9.5q-15 0 -24.5 9.5t-9.5 23.5t9.5 23.5t24.5 9.5zM497 684l-216 -415v-269h-47v268l-218 416h53l190 -372
l186 372h52z" />
    <glyph glyph-name="Zacute" unicode="&#x179;" horiz-adv-x="514" 
d="M341 880l21 -44l-192 -77l-13 29zM465 684v-40l-373 -601h364l-6 -43h-413v40l375 602h-337v42h390z" />
    <glyph glyph-name="zacute" unicode="&#x17a;" horiz-adv-x="417" 
d="M289 776l21 -44l-190 -84l-15 28zM382 522v-37l-298 -444h295l-5 -41h-345v36l299 445h-275v41h329z" />
    <glyph glyph-name="Zdotaccent" unicode="&#x17b;" horiz-adv-x="514" 
d="M260 870q16 0 26 -10t10 -25t-10 -25t-26 -10t-26 10t-10 25t10 25t26 10zM465 684v-40l-373 -601h364l-6 -43h-413v40l375 602h-337v42h390z" />
    <glyph glyph-name="zdotaccent" unicode="&#x17c;" horiz-adv-x="417" 
d="M215 744q16 0 26 -10t10 -25t-10 -25t-26 -10t-26 10t-10 25t10 25t26 10zM382 522v-37l-298 -444h295l-5 -41h-345v36l299 445h-275v41h329z" />
    <glyph glyph-name="Zcaron" unicode="&#x17d;" horiz-adv-x="514" 
d="M379 880l21 -25l-127 -98h-27l-128 98l21 25l121 -79zM465 684v-40l-373 -601h364l-6 -43h-413v40l375 602h-337v42h390z" />
    <glyph glyph-name="zcaron" unicode="&#x17e;" horiz-adv-x="417" 
d="M334 763l21 -24l-127 -104h-27l-128 104l21 24l121 -84zM382 522v-37l-298 -444h295l-5 -41h-345v36l299 445h-275v41h329z" />
    <glyph glyph-name="longs" unicode="&#x17f;" horiz-adv-x="316" 
d="M253 741q62 0 120 -28l-17 -35q-52 23 -101 23q-95 0 -95 -91v-610h-46v483h-89v39h89v90q0 60 37.5 94.5t101.5 34.5z" />
    <glyph glyph-name="uni0180" unicode="&#x180;" horiz-adv-x="581" 
d="M321 532q90 0 139.5 -69.5t49.5 -198.5q0 -128 -51.5 -201.5t-144.5 -73.5q-94 0 -154 80l-5 -69h-40v620h-76v38h76v77l46 6v-83h171v-38h-171v-173q65 85 160 85zM307 29q74 0 114 60t40 175q0 229 -147 229q-49 0 -84.5 -23.5t-68.5 -68.5v-286q58 -86 146 -86z" />
    <glyph glyph-name="uni0181" unicode="&#x181;" horiz-adv-x="646" 
d="M432 363q69 -7 113.5 -49.5t44.5 -125.5q0 -92 -62.5 -140t-175.5 -48h-185v644h-29q-76 0 -76 -68q0 -33 23 -75l-34 -19q-34 53 -34 95q0 48 33 77.5t93 29.5h173q116 0 178.5 -43t62.5 -127q0 -65 -33.5 -103t-91.5 -48zM321 643h-107v-263h150q65 0 104.5 35t39.5 96
q0 132 -187 132zM353 41q187 0 187 147q0 76 -46.5 114t-123.5 38h-156v-299h139z" />
    <glyph glyph-name="uni0182" unicode="&#x182;" horiz-adv-x="566" 
d="M279 414q113 0 175.5 -51t62.5 -150q0 -108 -64.5 -160.5t-174.5 -52.5h-163v684h336l-7 -42h-282v-228h117zM286 41q181 0 181 173q0 159 -186 159h-119v-332h124z" />
    <glyph glyph-name="uni0183" unicode="&#x183;" horiz-adv-x="576" 
d="M316 532q90 0 139.5 -69.5t49.5 -198.5q0 -128 -51.5 -201.5t-144.5 -73.5q-94 0 -154 80l-5 -69h-40v735h286l-7 -39h-233v-249q65 85 160 85zM302 29q74 0 114 60t40 175q0 229 -147 229q-49 0 -84.5 -23.5t-68.5 -68.5v-286q58 -86 146 -86z" />
    <glyph glyph-name="uni0184" unicode="&#x184;" horiz-adv-x="557" 
d="M278 418q114 0 176.5 -50.5t62.5 -151.5q0 -110 -64.5 -163t-175.5 -53h-162v558l-47 32q39 43 53 94h41v-266h116zM285 41q182 0 182 175q0 162 -186 162h-119v-337h123z" />
    <glyph glyph-name="uni0185" unicode="&#x185;" horiz-adv-x="498" 
d="M257 343q203 0 203 -167q0 -88 -53.5 -132t-140.5 -44h-155v406l-47 32q36 37 53 84h40v-179h100zM262 39q149 0 149 137q0 64 -35.5 96t-117.5 32h-101v-265h105z" />
    <glyph glyph-name="uni0186" unicode="&#x186;" horiz-adv-x="547" 
d="M221 694q117 0 186.5 -90.5t69.5 -261.5q0 -167 -75.5 -260t-194.5 -93q-105 0 -183 69l26 31q39 -28 73.5 -42.5t82.5 -14.5q97 0 159 79.5t62 230.5q0 159 -57 235t-152 76q-86 0 -161 -52l-25 32q82 61 189 61z" />
    <glyph glyph-name="uni0187" unicode="&#x187;" horiz-adv-x="547" 
d="M584 822q55 0 98 -33l-20 -30q-37 23 -76 23q-71 0 -71 -86v-63l-23 -28q-72 48 -145 48q-101 0 -164 -76.5t-63 -234.5q0 -152 62.5 -231t161.5 -79q49 0 82.5 14.5t69.5 43.5l27 -32q-74 -69 -181 -69q-121 0 -196.5 92.5t-75.5 260.5q0 169 77.5 260.5t196.5 91.5
q72 0 125 -33v34q0 62 30.5 94.5t84.5 32.5z" />
    <glyph glyph-name="uni0188" unicode="&#x188;" horiz-adv-x="466" 
d="M497 741q55 0 98 -33l-20 -30q-39 24 -76 24q-71 0 -71 -87v-134l-21 -27q-57 38 -120 38q-78 0 -124.5 -60t-46.5 -174q0 -112 46 -170t124 -58q66 0 123 46l23 -31q-62 -56 -146 -56q-100 0 -159.5 71.5t-59.5 197.5t59.5 200t158.5 74q57 0 97 -23v105q0 62 31 94.5
t84 32.5z" />
    <glyph glyph-name="uni0189" unicode="&#x189;" horiz-adv-x="630" 
d="M250 684q50 0 91.5 -7.5t83.5 -30t70.5 -58.5t46.5 -97.5t18 -142.5q0 -82 -18.5 -145t-48 -100.5t-70.5 -61.5t-81 -32.5t-85 -8.5h-140v332h-93v40h93v312h133zM260 41q250 0 250 307q0 74 -15.5 129t-39 86t-59 50t-68.5 24.5t-75 5.5h-89v-271h182v-40h-182v-291h96z
" />
    <glyph glyph-name="uni018A" unicode="&#x18a;" horiz-adv-x="680" 
d="M300 684q50 0 91.5 -7.5t83.5 -30t70.5 -58.5t46.5 -97.5t18 -142.5q0 -82 -18.5 -145t-48 -100.5t-70.5 -61.5t-81 -32.5t-85 -8.5h-140v644h-29q-76 0 -76 -68q0 -33 23 -75l-34 -19q-34 53 -34 95q0 48 33 77.5t93 29.5h157zM310 41q250 0 250 307q0 74 -15.5 129
t-39 86t-59 50t-68.5 24.5t-75 5.5h-89v-602h96z" />
    <glyph glyph-name="uni018B" unicode="&#x18b;" horiz-adv-x="566" 
d="M451 684v-684h-173q-104 0 -166.5 50.5t-62.5 153.5q0 100 64 155t177 55h114v228h-286v42h333zM280 41h124v332h-115q-92 0 -141 -42.5t-49 -126.5q0 -163 181 -163z" />
    <glyph glyph-name="uni018C" unicode="&#x18c;" horiz-adv-x="581" 
d="M471 735v-735h-40l-5 82q-54 -93 -160 -93q-89 0 -141.5 72.5t-52.5 197.5q0 123 54.5 198t149.5 75q92 0 149 -73v237h-236v39h282zM272 29q53 0 88.5 26t64.5 78v277q-56 83 -143 83q-74 0 -118.5 -62t-43.5 -172t41.5 -170t110.5 -60z" />
    <glyph glyph-name="uni018D" unicode="&#x18d;" horiz-adv-x="563" 
d="M335 53q57 -25 82 -56.5t26 -77.5q0 -53 -44.5 -90t-117.5 -37q-88 0 -160 47l26 31q59 -38 129 -38q56 0 87.5 24.5t31.5 63.5q0 40 -27.5 65t-109.5 57q-100 39 -145.5 95.5t-45.5 153.5q0 109 57.5 175t159.5 66q99 0 156 -63.5t57 -175.5q0 -170 -162 -240zM115 291
q0 -88 39 -135.5t143 -87.5q151 63 151 225q0 95 -43 147t-121 52q-81 0 -125 -53t-44 -148z" />
    <glyph glyph-name="uni018E" unicode="&#x18e;" horiz-adv-x="504" 
d="M50 684h339v-684h-345v41h297v295h-246v41h246v266h-291v41z" />
    <glyph glyph-name="uni018F" unicode="&#x18f;" horiz-adv-x="648" 
d="M318 694q124 0 192 -86t68 -265q0 -175 -70.5 -264.5t-190.5 -89.5q-121 0 -189 87.5t-68 254.5q0 24 1 38h467q-11 284 -211 284q-99 0 -189 -71l-25 31q94 81 215 81zM318 31q94 0 150.5 72.5t59.5 225.5h-419q0 -150 55 -224t154 -74z" />
    <glyph glyph-name="uni0190" unicode="&#x190;" horiz-adv-x="520" 
d="M273 694q113 0 202 -83l-28 -30q-79 72 -171 72q-70 0 -109.5 -35t-39.5 -94q0 -65 43.5 -100.5t116.5 -35.5h58l-7 -41h-55q-85 1 -131 -39t-46 -113q0 -76 49 -119.5t129 -43.5q103 0 181 78l30 -28q-90 -93 -212 -93q-100 0 -163.5 56.5t-63.5 150.5q0 78 43 122.5
t110 51.5q-60 13 -95.5 52t-35.5 103q0 75 52.5 122t142.5 47z" />
    <glyph glyph-name="uni0191" unicode="&#x191;" horiz-adv-x="477" 
d="M442 643h-280v-279h242v-40h-242v-400q0 -62 -31.5 -94.5t-84.5 -32.5q-54 0 -97 33l20 31q35 -23 76 -23q69 0 69 86v77h1v683h333z" />
    <glyph glyph-name="florin" unicode="&#x192;" horiz-adv-x="317" 
d="M256 701q-95 0 -95 -91v-88h142l-7 -39h-135v-469q0 -66 -15.5 -107t-40.5 -62.5t-74 -44.5l-14 33q56 28 77 63t21 117v470h-87v39h87v90q0 60 37.5 94.5t100.5 34.5t121 -28l-17 -35q-52 23 -101 23z" />
    <glyph glyph-name="uni0193" unicode="&#x193;" horiz-adv-x="565" 
d="M602 822q55 0 98 -33l-20 -30q-37 23 -77 23q-70 0 -70 -86v-67l-25 -26q-74 50 -158 50q-94 0 -162 -77t-68 -231q0 -156 61.5 -235t169.5 -79q80 0 148 37v256h-138l-6 41h191v-321q-93 -55 -197 -55q-128 0 -203.5 91.5t-75.5 264.5q0 166 82.5 257.5t193.5 91.5
q82 0 141 -36v37q0 62 30.5 94.5t84.5 32.5z" />
    <glyph glyph-name="uni0194" unicode="&#x194;" horiz-adv-x="542" 
d="M522 684l-222 -628q23 -49 32.5 -71.5t17.5 -50.5t8 -52q0 -38 -23 -61.5t-64 -23.5q-40 0 -63 23t-23 61q0 32 12.5 68t45.5 107l-223 628h51l201 -593l201 593h49zM312 -116q0 41 -41 139l-22.5 -57.5t-12 -38.5t-6.5 -43q0 -47 41 -47t41 47z" />
    <glyph glyph-name="uni0195" unicode="&#x195;" horiz-adv-x="889" 
d="M778 522q26 -147 26 -260q0 -135 -58.5 -204t-147.5 -69q-73 0 -119.5 44t-46.5 125v208q0 128 -104 128q-95 0 -172 -113v-381h-46v735l46 6v-311q74 102 179 102q70 0 106.5 -42t36.5 -118v-211q0 -67 33 -99.5t88 -32.5q66 0 112 55.5t46 179.5q0 106 -26 258h47z" />
    <glyph glyph-name="uni0196" unicode="&#x196;" horiz-adv-x="336" 
d="M298 53l20 -31q-43 -33 -97 -33q-53 0 -84.5 32.5t-31.5 94.5v568h47v-491h1v-77q0 -86 69 -86q41 0 76 23z" />
    <glyph glyph-name="uni0197" unicode="&#x197;" horiz-adv-x="317" 
d="M288 380v-40h-106v-340h-47v340h-105v40h105v304h47v-304h106z" />
    <glyph glyph-name="uni0198" unicode="&#x198;" horiz-adv-x="564" 
d="M474 0l-308 367l184 250q32 44 59 60.5t66 16.5q50 0 89 -37l-22 -29q-32 26 -65 26q-26 0 -45.5 -11.5t-48.5 -51.5l-160 -222l310 -369h-59zM162 684v-684h-47v684h47z" />
    <glyph glyph-name="uni0199" unicode="&#x199;" horiz-adv-x="480" 
d="M251 701q-95 0 -95 -91v-610h-46v612q0 60 37 94.5t101 34.5q62 0 120 -28l-16 -35q-52 23 -101 23zM217 287l252 -287h-56l-251 285l229 237h54z" />
    <glyph glyph-name="uni019A" unicode="&#x19a;" horiz-adv-x="295" 
d="M277 353h-106v-269q0 -54 45 -54q18 0 37 7l13 -35q-28 -13 -55 -13q-40 0 -63 23.5t-23 69.5v271h-106v39h106v343l46 6v-349h106v-39z" />
    <glyph glyph-name="uni019B" unicode="&#x19b;" horiz-adv-x="463" 
d="M282 500q24 -116 47 -198t50 -138.5t43.5 -83.5t48.5 -71l-43 -17q-32 46 -49 73.5t-43.5 84t-48.5 136t-44 189.5l-164 -483l-44 11l178 511h22q-16 76 -38 113l-70 -71l-35 14l84 86q-31 35 -97 50l7 36q77 -16 118 -57l68 72l29 -25l-74 -75q31 -46 55 -157z" />
    <glyph glyph-name="uni019C" unicode="&#x19c;" horiz-adv-x="927" 
d="M765 684h47v-684h-41l-4 98q-67 -109 -175 -109q-115 0 -147 114q-76 -114 -183 -114q-75 0 -116 51t-41 142v502h47v-505q0 -72 29.5 -110t85.5 -38q97 0 169 120q-1 10 -1 31v502h47v-505q0 -72 29.5 -110t85.5 -38q100 0 168 121v532z" />
    <glyph glyph-name="uni019D" unicode="&#x19d;" horiz-adv-x="669" 
d="M509 684h45v-684h-61l-339 631q6 -88 6 -224v-483q0 -62 -31.5 -94.5t-83.5 -32.5q-54 0 -97 33l20 30q35 -23 75 -23q72 0 72 86v761h61l339 -631q-6 99 -6 200v431z" />
    <glyph glyph-name="uni019E" unicode="&#x19e;" horiz-adv-x="583" 
d="M335 532q71 0 107 -41.5t36 -118.5v-575l-46 8v561q0 128 -104 128q-95 0 -172 -113v-381h-46v522h40l4 -93q74 103 181 103z" />
    <glyph glyph-name="uni019F" unicode="&#x19f;" horiz-adv-x="691" 
d="M345 694q126 0 201 -92t75 -262q0 -166 -74.5 -258.5t-201.5 -92.5q-125 0 -200 92t-75 258q0 167 75.5 261t199.5 94zM345 653q-99 0 -159 -72t-66 -212h451q-6 141 -65.5 212.5t-160.5 71.5zM345 31q106 0 165.5 76t61.5 223h-453q2 -146 63.5 -222.5t162.5 -76.5z" />
    <glyph glyph-name="Ohorn" unicode="&#x1a0;" horiz-adv-x="691" 
d="M623 687q0 -74 -75 -88q73 -94 73 -258q0 -166 -74.5 -259t-201.5 -93q-125 0 -200 92t-75 259q0 166 75.5 260t199.5 94q107 0 179 -67q59 7 59 59q0 37 -14 72l36 11q18 -34 18 -82zM345 31q107 0 166.5 78.5t59.5 231.5q0 154 -60 233t-166 79q-104 0 -164.5 -79.5
t-60.5 -233.5q0 -151 61 -230t164 -79z" />
    <glyph glyph-name="ohorn" unicode="&#x1a1;" horiz-adv-x="574" 
d="M543 524q0 -78 -81 -90q38 -65 38 -171q0 -128 -58 -201t-159 -73t-158.5 72.5t-57.5 198.5q0 127 58.5 199.5t158.5 72.5t158 -69q33 4 47 18t14 41q0 37 -14 72l36 11q18 -32 18 -81zM283 29q79 0 124 60t45 174q0 112 -44 170.5t-124 58.5q-79 0 -124 -59.5
t-45 -172.5q0 -111 44 -171t124 -60z" />
    <glyph glyph-name="uni01A2" unicode="&#x1a2;" horiz-adv-x="895" 
d="M645 695q135 0 135 -139v-751h-48v751q0 55 -22.5 77.5t-66.5 22.5q-54 0 -115 -34q93 -95 93 -281q0 -166 -74.5 -259t-201.5 -93q-125 0 -200 92t-75 259q0 166 75.5 260t199.5 94q89 0 153 -47q78 48 147 48zM345 31q107 0 166.5 78.5t59.5 231.5q0 154 -60 233
t-166 79q-104 0 -164.5 -79.5t-60.5 -233.5q0 -151 61 -230t164 -79z" />
    <glyph glyph-name="uni01A3" unicode="&#x1a3;" horiz-adv-x="757" 
d="M515 532q63 0 97.5 -35.5t34.5 -104.5v-595l-46 8v587q0 101 -90 101q-44 0 -84 -16q73 -70 73 -214q0 -128 -58 -201t-159 -73t-158.5 72.5t-57.5 198.5q0 127 58.5 199.5t158.5 72.5q64 0 111 -30q58 30 120 30zM452 263q0 112 -44 170.5t-124 58.5q-79 0 -124 -59.5
t-45 -172.5q0 -111 44 -171t124 -60q79 0 124 60t45 174z" />
    <glyph glyph-name="uni01A4" unicode="&#x1a4;" horiz-adv-x="618" 
d="M320 684q249 0 249 -203q0 -109 -67.5 -159t-184.5 -50h-103v-272h-47v644h-29q-76 0 -76 -68q0 -33 23 -75l-34 -19q-34 53 -34 95q0 48 33 77.5t93 29.5h177zM318 312q96 0 148.5 38.5t52.5 129.5q0 88 -50 125.5t-149 37.5h-106v-331h104z" />
    <glyph glyph-name="uni01A5" unicode="&#x1a5;" horiz-adv-x="576" 
d="M316 532q93 0 141 -69.5t48 -198.5q0 -128 -51 -201.5t-145 -73.5q-95 0 -153 76v-260l-46 -8v815q0 60 37 94.5t101 34.5q62 0 120 -28l-16 -35q-52 23 -101 23q-95 0 -95 -91v-165q62 87 160 87zM302 30q75 0 114.5 59.5t39.5 174.5q0 229 -146 229q-86 0 -154 -92
v-287q56 -84 146 -84z" />
    <glyph glyph-name="uni01A6" unicode="&#x1a6;" horiz-adv-x="584" 
d="M491 -128l-180 313h-149v-185h-47v684h47v-128h114q237 0 237 -183q0 -75 -39.5 -118t-114.5 -62l189 -321h-57zM162 225h121q180 0 180 148q0 72 -44.5 107t-145.5 35h-111v-290z" />
    <glyph glyph-name="uni01A7" unicode="&#x1a7;" horiz-adv-x="528" 
d="M281 694q85 0 135 -44t50 -115t-43.5 -111.5t-148.5 -75.5q-94 -31 -130 -67.5t-36 -102.5q0 -69 45.5 -108t116.5 -39q105 0 186 73l29 -30q-92 -85 -216 -85q-92 0 -151 52.5t-59 137.5q0 81 47 127t149 79q93 30 127.5 61t34.5 89q0 55 -36 86.5t-101 31.5
q-93 0 -173 -63l-27 30q46 38 92 56t109 18z" />
    <glyph glyph-name="uni01A8" unicode="&#x1a8;" horiz-adv-x="453" 
d="M238 532q71 0 116 -36.5t45 -94.5q0 -53 -36.5 -85.5t-119.5 -55.5q-83 -24 -112 -50t-29 -77q0 -49 35 -76.5t88 -27.5q83 0 159 56l25 -29q-79 -67 -184 -67q-73 0 -122 39.5t-49 105.5q0 64 38 99t128 60q74 21 102.5 44.5t28.5 64.5q0 42 -31.5 66.5t-83.5 24.5
q-78 0 -146 -48l-23 30q77 57 171 57z" />
    <glyph glyph-name="uni01A9" unicode="&#x1a9;" horiz-adv-x="490" 
d="M443 684v-42h-334l219 -290v-25l-219 -285h334v-42h-396v32l234 307l-234 313v32h396z" />
    <glyph glyph-name="uni01AA" unicode="&#x1aa;" horiz-adv-x="276" 
d="M313 -140l20 -30q-43 -33 -97 -33q-53 0 -84.5 32.5t-31.5 94.5v598q-26 -14 -62 -14q-47 0 -77.5 31t-30.5 83q0 53 30.5 86t78.5 33q50 0 78.5 -31.5t28.5 -83.5v-703q0 -86 71 -86q41 0 76 23zM63 547q30 0 57 12v68q0 75 -60 75q-30 0 -47 -21t-17 -57q0 -77 67 -77z
" />
    <glyph glyph-name="uni01AB" unicode="&#x1ab;" horiz-adv-x="334" 
d="M323 47l15 -26v-97q0 -62 -31 -94.5t-86 -32.5q-53 0 -96 33l20 30q37 -23 75 -23q73 0 73 86v79q-31 -13 -65 -13q-56 0 -88 34.5t-32 99.5v360h-87v39h87v127l46 5v-132h138l-6 -39h-132v-358q0 -96 81 -96q43 0 88 18z" />
    <glyph glyph-name="uni01AC" unicode="&#x1ac;" horiz-adv-x="512" 
d="M502 684l-6 -43h-204v-641h-47v641h-106q-76 0 -76 -66q0 -32 23 -74l-36 -19q-33 52 -33 94q0 49 33.5 78.5t95.5 29.5h356z" />
    <glyph glyph-name="uni01AD" unicode="&#x1ad;" horiz-adv-x="334" 
d="M235 30q42 0 84 24l19 -33q-50 -32 -108 -32q-57 0 -89.5 34t-32.5 100v360h-87v39h87v84q0 66 33.5 100.5t91.5 34.5q55 0 105 -32l-20 -32q-42 25 -83 25q-81 0 -81 -95v-85h138l-6 -39h-132v-357q0 -96 81 -96z" />
    <glyph glyph-name="uni01AE" unicode="&#x1ae;" horiz-adv-x="487" 
d="M471 641h-204v-640h1v-77q0 -86 69 -86q41 0 76 23l20 -31q-43 -33 -97 -33q-53 0 -84.5 32.5t-31.5 94.5v717h-205v43h462z" />
    <glyph glyph-name="Uhorn" unicode="&#x1af;" horiz-adv-x="648" 
d="M637 687q0 -84 -94 -90v-386q0 -101 -55.5 -161.5t-163.5 -60.5t-163.5 60.5t-55.5 161.5v473h47v-469q0 -87 42.5 -135t129.5 -48t129 48.5t42 134.5v469h48v-57q54 10 54 59q0 37 -14 72l36 11q18 -34 18 -82z" />
    <glyph glyph-name="uhorn" unicode="&#x1b0;" horiz-adv-x="594" 
d="M562 524q0 -85 -94 -91v-433h-39l-3 97q-61 -108 -173 -108q-71 0 -109.5 41.5t-38.5 118.5v373h46v-369q0 -124 111 -124q96 0 160 112v381h46v-58q54 10 54 58q0 37 -14 72l36 11q18 -32 18 -81z" />
    <glyph glyph-name="uni01B1" unicode="&#x1b1;" horiz-adv-x="691" 
d="M345 -11q-125 0 -200 89t-75 242q0 120 38 195t101 127h-117v42h178v-41q-150 -102 -150 -323q0 -139 60.5 -214t164.5 -75q103 0 164.5 75.5t61.5 213.5q0 221 -150 323v41h178v-42h-117q64 -50 101.5 -124.5t37.5 -197.5q0 -152 -76 -241.5t-200 -89.5z" />
    <glyph glyph-name="uni01B2" unicode="&#x1b2;" horiz-adv-x="648" 
d="M452 694q91 0 91 -101v-302q0 -143 -67.5 -222.5t-176.5 -79.5q-89 0 -141.5 54t-52.5 144v497h47v-494q0 -76 39.5 -117t107.5 -41q89 0 142.5 67.5t53.5 195.5v297q0 62 -47 62q-24 0 -43 -10l-15 34q28 16 62 16z" />
    <glyph glyph-name="uni01B3" unicode="&#x1b3;" horiz-adv-x="535" 
d="M234 0v268l-218 416h53l190 -374l136 297q21 46 46.5 66.5t63.5 20.5q45 0 89 -37l-22 -28q-32 27 -65 27q-24 0 -39.5 -13.5t-33.5 -51.5l-153 -322v-269h-47z" />
    <glyph glyph-name="uni01B4" unicode="&#x1b4;" horiz-adv-x="468" 
d="M59 -201l-6 36q75 20 107 55t57 110h-17l-183 522h50l165 -488l133 444q15 51 36.5 71.5t57.5 20.5q27 0 55 -13l-13 -34q-15 7 -38 7q-21 0 -32.5 -12t-21.5 -43l-147 -475q-28 -90 -71.5 -135.5t-131.5 -65.5z" />
    <glyph glyph-name="uni01B5" unicode="&#x1b5;" horiz-adv-x="514" 
d="M465 684v-40l-174 -280h111v-40h-136l-175 -281h365l-6 -43h-413v40l177 284h-102v40h127l174 278h-338v42h390z" />
    <glyph glyph-name="uni01B6" unicode="&#x1b6;" horiz-adv-x="417" 
d="M382 522v-37l-133 -198h93v-39h-120l-139 -207h296l-5 -41h-345v36l143 212h-94v39h120l131 194h-276v41h329z" />
    <glyph glyph-name="uni01B7" unicode="&#x1b7;" horiz-adv-x="486" 
d="M216 382q109 0 165 -50.5t56 -144.5q0 -87 -58.5 -142.5t-159.5 -55.5q-125 0 -202 85l29 28q67 -71 171 -71q83 0 127 42.5t44 113.5q0 156 -177 156h-83v39l226 261h-316v41h374v-39l-232 -263h36z" />
    <glyph glyph-name="uni01B8" unicode="&#x1b8;" horiz-adv-x="486" 
d="M439 102l29 -28q-41 -43 -90 -64t-120 -21q-95 0 -152 52.5t-57 139.5q0 94 57.5 147.5t164.5 53.5h35l-233 263v39h375v-41h-315l225 -261v-39h-83q-178 0 -178 -162q0 -70 42.5 -110t119.5 -40q60 0 101 16.5t79 54.5z" />
    <glyph glyph-name="uni01B9" unicode="&#x1b9;" horiz-adv-x="454" 
d="M411 -93l28 -25q-77 -85 -196 -85q-95 0 -152 55.5t-57 142.5q0 94 58.5 148.5t175.5 54.5h11l-221 287v37h361v-41h-305l215 -283v-38h-58q-189 0 -189 -165q0 -71 42 -114t118 -43q101 0 169 69z" />
    <glyph glyph-name="uni01BA" unicode="&#x1ba;" horiz-adv-x="450" 
d="M143 -203q-55 24 -82.5 52.5t-27.5 67.5q0 89 173 110q89 10 126 34.5t37 81.5q0 88 -108 88h-146v39l212 211h-295v41h356v-37l-221 -215h97q72 0 113 -33.5t41 -93.5q0 -72 -48.5 -106.5t-146.5 -47.5q-77 -10 -109.5 -26t-32.5 -48q0 -27 18 -46t60 -40z" />
    <glyph glyph-name="uni01BB" unicode="&#x1bb;" horiz-adv-x="473" 
d="M420 265h-121q-39 -49 -200 -223h320l-7 -42h-368v40q148 160 202 225h-162v40h193q43 57 59.5 101t16.5 94q0 62 -35.5 98.5t-95.5 36.5q-90 0 -153 -77l-33 24q77 93 188 93q81 0 129 -48.5t48 -123.5q0 -98 -71 -198h90v-40z" />
    <glyph glyph-name="uni01BC" unicode="&#x1bc;" horiz-adv-x="490" 
d="M417 684l-8 -40h-283v-249q54 34 122 34q89 0 139.5 -55.5t50.5 -154.5q0 -103 -57.5 -166.5t-155.5 -63.5q-113 0 -188 83l30 27q62 -69 158 -69q77 0 121 50.5t44 139.5q0 85 -40 127.5t-109 42.5q-64 0 -123 -34h-37v328h336z" />
    <glyph glyph-name="uni01BD" unicode="&#x1bd;" horiz-adv-x="428" 
d="M357 522l-8 -41h-223v-174q44 26 97 26q71 0 112.5 -44.5t41.5 -120.5q0 -79 -48.5 -129t-129.5 -50q-89 0 -158 64l27 28q59 -50 132 -50q58 0 93.5 37t35.5 101q0 61 -31 92.5t-82 31.5t-102 -27h-34v256h277z" />
    <glyph glyph-name="uni01BE" unicode="&#x1be;" horiz-adv-x="497" 
d="M246 419q185 -40 185 -212q0 -94 -56.5 -153.5t-152.5 -59.5q-103 0 -188 80l27 28q75 -67 160 -67q77 0 119 46.5t42 125.5q0 81 -40.5 120t-108.5 55l-67 16v164h-69v38h69v135l46 6v-141h118v-38h-118v-136z" />
    <glyph glyph-name="uni01BF" unicode="&#x1bf;" horiz-adv-x="571" 
d="M335 532q76 0 123 -46.5t47 -126.5q0 -75 -35 -136t-93.5 -105.5t-155.5 -94.5l-65 -34v-184l-46 -8v725h40l3 -81q79 91 182 91zM210 59q130 70 188 137t58 162q0 65 -34 99.5t-93 34.5q-94 0 -173 -91v-370z" />
    <glyph glyph-name="uni01C0" unicode="&#x1c0;" horiz-adv-x="273" 
d="M159 741v-741h-44v735z" />
    <glyph glyph-name="uni01C1" unicode="&#x1c1;" horiz-adv-x="423" 
d="M159 741v-741h-44v735zM309 741v-741h-44v735z" />
    <glyph glyph-name="uni01C2" unicode="&#x1c2;" horiz-adv-x="317" 
d="M288 423h-107v-114h107v-35h-107v-274h-44v274h-107v35h107v114h-107v35h107v277l44 6v-283h107v-35z" />
    <glyph glyph-name="uni01C3" unicode="&#x1c3;" horiz-adv-x="310" 
d="M176 741v-544h-43v538zM155 69q18 0 29 -11.5t11 -28.5t-11 -28.5t-29 -11.5t-29 11.5t-11 28.5t11 28.5t29 11.5z" />
    <glyph glyph-name="uni01C4" unicode="&#x1c4;" horiz-adv-x="1117" 
d="M982 880l21 -25l-127 -98h-27l-128 98l21 25l121 -79zM248 684q50 0 91.5 -7.5t83.5 -30t70.5 -58.5t46.5 -97.5t18 -142.5q0 -82 -18.5 -145t-48 -100.5t-70.5 -61.5t-81 -32.5t-85 -8.5h-140v684h133zM1068 684v-40l-373 -601h364l-6 -43h-413v40l375 602h-337v42h390z
M251 643h-89v-602h96q250 0 250 307q0 74 -15.5 129t-39 86t-59 50t-68.5 24.5t-75 5.5z" />
    <glyph glyph-name="uni01C5" unicode="&#x1c5;" horiz-adv-x="1035" 
d="M953 763l21 -24l-127 -104h-27l-128 104l21 24l121 -84zM248 684q50 0 91.5 -7.5t83.5 -30t70.5 -58.5t46.5 -97.5t18 -142.5q0 -82 -18.5 -145t-48 -100.5t-70.5 -61.5t-81 -32.5t-85 -8.5h-140v684h133zM251 643h-89v-602h96q250 0 250 307q0 74 -15.5 129t-39 86
t-59 50t-68.5 24.5t-75 5.5zM1000 522v-37l-298 -444h295l-5 -41h-345v36l299 445h-275v41h329z" />
    <glyph glyph-name="uni01C6" unicode="&#x1c6;" horiz-adv-x="998" 
d="M810 635h-27l-128 104l21 24l121 -84l119 84l21 -24zM425 459v282l46 -6v-735h-40l-5 82q-54 -93 -160 -93q-89 0 -141.5 72.5t-52.5 197.5q0 123 54.5 198t149.5 75q92 0 149 -73zM963 522v-37l-298 -444h295l-5 -41h-345v36l299 445h-275v41h329zM272 29q53 0 88.5 26
t64.5 78v277q-56 83 -143 83q-74 0 -118.5 -62t-43.5 -172t41.5 -170t110.5 -60z" />
    <glyph glyph-name="uni01C7" unicode="&#x1c7;" horiz-adv-x="740" 
d="M162 684v-640h288l-7 -44h-328v684h47zM631 684v-594q0 -84 -31 -125.5t-117 -77.5l-13 35q68 31 90.5 66t22.5 105v591h48z" />
    <glyph glyph-name="uni01C8" unicode="&#x1c8;" horiz-adv-x="721" 
d="M588 744q16 0 26 -10t10 -25t-10 -25t-26 -10t-26 10t-10 25t10 25t26 10zM162 684v-640h288l-7 -44h-328v684h47zM611 522v-508q0 -96 -29 -138t-102 -76l-13 33q56 28 77 63t21 117v509h46z" />
    <glyph glyph-name="uni01C9" unicode="&#x1c9;" horiz-adv-x="547" 
d="M414 744q16 0 26 -10t10 -25t-10 -25t-26 -10t-26 10t-10 25t10 25t26 10zM191 -11q-40 0 -63 23.5t-23 69.5v653l46 6v-657q0 -54 45 -54q18 0 37 7l13 -35q-28 -13 -55 -13zM437 522v-508q0 -96 -29 -138t-102 -76l-13 33q56 28 77 63t21 117v509h46z" />
    <glyph glyph-name="uni01CA" unicode="&#x1ca;" horiz-adv-x="955" 
d="M554 684v-684h-61l-339 631q6 -88 6 -224v-407h-45v684h61l339 -631q-6 99 -6 200v431h45zM846 684v-594q0 -84 -31 -125.5t-117 -77.5l-13 35q68 31 90.5 66t22.5 105v591h48z" />
    <glyph glyph-name="uni01CB" unicode="&#x1cb;" horiz-adv-x="935" 
d="M802 744q16 0 26 -10t10 -25t-10 -25t-26 -10t-26 10t-10 25t10 25t26 10zM554 684v-684h-61l-339 631q6 -88 6 -224v-407h-45v684h61l339 -631q-6 99 -6 200v431h45zM825 522v-508q0 -96 -29 -138t-102 -76l-13 33q56 28 77 63t21 117v509h46z" />
    <glyph glyph-name="uni01CC" unicode="&#x1cc;" horiz-adv-x="849" 
d="M716 744q16 0 26 -10t10 -25t-10 -25t-26 -10t-26 10t-10 25t10 25t26 10zM335 532q71 0 107 -41.5t36 -118.5v-372h-46v366q0 128 -104 128q-95 0 -172 -113v-381h-46v522h40l4 -93q74 103 181 103zM693 13v509h46v-508q0 -96 -29 -138t-102 -76l-13 33q56 28 77 63
t21 117z" />
    <glyph glyph-name="uni01CD" unicode="&#x1cd;" horiz-adv-x="562" 
d="M294 757h-27l-128 98l21 25l121 -79l119 79l21 -25zM491 0l-63 192h-297l-63 -192h-48l231 684h60l231 -684h-51zM145 234h270l-134 411z" />
    <glyph glyph-name="uni01CE" unicode="&#x1ce;" horiz-adv-x="534" 
d="M270 635h-27l-128 104l21 24l121 -84l119 84l21 -24zM425 113q0 -44 10.5 -63t33.5 -28l-11 -33q-34 9 -51.5 30t-21.5 62q-57 -92 -165 -92q-74 0 -117 42.5t-43 113.5q0 80 57 123.5t155 43.5h107v55q0 65 -29 95t-96 30q-63 0 -142 -31l-13 37q87 34 159 34
q167 0 167 -162v-257zM226 28q101 0 153 99v149h-100q-82 0 -126 -32.5t-44 -97.5q0 -56 31 -87t86 -31z" />
    <glyph glyph-name="uni01CF" unicode="&#x1cf;" horiz-adv-x="277" 
d="M257 880l21 -25l-127 -98h-27l-128 98l21 25l121 -79zM162 684v-684h-47v684h47z" />
    <glyph glyph-name="uni01D0" unicode="&#x1d0;" horiz-adv-x="266" 
d="M252 763l21 -24l-127 -104h-27l-128 104l21 24l121 -84zM156 522v-522h-46v522h46z" />
    <glyph glyph-name="uni01D1" unicode="&#x1d1;" horiz-adv-x="691" 
d="M464 880l21 -25l-127 -98h-27l-128 98l21 25l121 -79zM345 694q126 0 201 -92t75 -261q0 -166 -74.5 -259t-201.5 -93q-125 0 -200 92t-75 259q0 166 75.5 260t199.5 94zM345 653q-104 0 -164.5 -79.5t-60.5 -233.5q0 -151 61 -230t164 -79q107 0 166.5 78.5t59.5 231.5
q0 154 -60 233t-166 79z" />
    <glyph glyph-name="uni01D2" unicode="&#x1d2;" horiz-adv-x="567" 
d="M403 763l21 -24l-127 -104h-27l-128 104l21 24l121 -84zM284 532q102 0 159 -70.5t57 -198.5t-58 -201t-159 -73t-158.5 72.5t-57.5 198.5q0 127 58.5 199.5t158.5 72.5zM284 492q-79 0 -124 -59.5t-45 -172.5q0 -111 44 -171t124 -60q79 0 124 60t45 174
q0 112 -44 170.5t-124 58.5z" />
    <glyph glyph-name="uni01D3" unicode="&#x1d3;" horiz-adv-x="648" 
d="M443 880l21 -25l-127 -98h-27l-128 98l21 25l121 -79zM543 684v-473q0 -101 -55.5 -161.5t-163.5 -60.5t-163.5 60.5t-55.5 161.5v473h47v-469q0 -87 42.5 -135t129.5 -48t129 48.5t42 134.5v469h48z" />
    <glyph glyph-name="uni01D4" unicode="&#x1d4;" horiz-adv-x="578" 
d="M406 763l21 -24l-127 -104h-27l-128 104l21 24l121 -84zM468 522v-522h-39l-3 97q-61 -108 -173 -108q-71 0 -109.5 41.5t-38.5 118.5v373h46v-369q0 -124 111 -124q96 0 160 112v381h46z" />
    <glyph glyph-name="uni01D5" unicode="&#x1d5;" horiz-adv-x="648" 
d="M440 869h-229v39h229v-39zM233 809q15 0 24.5 -9.5t9.5 -23.5t-9.5 -23.5t-24.5 -9.5t-24.5 9.5t-9.5 23.5t9.5 23.5t24.5 9.5zM415 809q14 0 23.5 -9.5t9.5 -23.5t-9.5 -23.5t-23.5 -9.5q-15 0 -24.5 9.5t-9.5 23.5t9.5 23.5t24.5 9.5zM543 684v-473
q0 -101 -55.5 -161.5t-163.5 -60.5t-163.5 60.5t-55.5 161.5v473h47v-469q0 -87 42.5 -135t129.5 -48t129 48.5t42 134.5v469h48z" />
    <glyph glyph-name="uni01D6" unicode="&#x1d6;" horiz-adv-x="578" 
d="M402 766h-229v39h229v-39zM197 702q15 0 24.5 -9.5t9.5 -23.5t-9.5 -23.5t-24.5 -9.5t-24.5 9.5t-9.5 23.5t9.5 23.5t24.5 9.5zM379 702q14 0 23.5 -9.5t9.5 -23.5t-9.5 -23.5t-23.5 -9.5q-15 0 -24.5 9.5t-9.5 23.5t9.5 23.5t24.5 9.5zM468 522v-522h-39l-3 97
q-61 -108 -173 -108q-71 0 -109.5 41.5t-38.5 118.5v373h46v-369q0 -124 111 -124q96 0 160 112v381h46z" />
    <glyph glyph-name="uni01D7" unicode="&#x1d7;" horiz-adv-x="648" 
d="M401 955l32 -30l-115 -118l-22 20zM233 810q15 0 24.5 -10t9.5 -24t-9.5 -23.5t-24.5 -9.5t-24.5 9.5t-9.5 23.5t9.5 24t24.5 10zM415 810q14 0 23.5 -10t9.5 -24t-9.5 -23.5t-23.5 -9.5q-15 0 -24.5 9.5t-9.5 23.5t9.5 24t24.5 10zM543 684v-473q0 -101 -55.5 -161.5
t-163.5 -60.5t-163.5 60.5t-55.5 161.5v473h47v-469q0 -87 42.5 -135t129.5 -48t129 48.5t42 134.5v469h48z" />
    <glyph glyph-name="uni01D8" unicode="&#x1d8;" horiz-adv-x="578" 
d="M364 848l32 -30l-115 -118l-22 20zM196 702q15 0 24.5 -9.5t9.5 -23.5t-9.5 -23.5t-24.5 -9.5t-24.5 9.5t-9.5 23.5t9.5 23.5t24.5 9.5zM378 702q14 0 23.5 -9.5t9.5 -23.5t-9.5 -23.5t-23.5 -9.5q-15 0 -24.5 9.5t-9.5 23.5t9.5 23.5t24.5 9.5zM468 522v-522h-39l-3 97
q-61 -108 -173 -108q-71 0 -109.5 41.5t-38.5 118.5v373h46v-369q0 -124 111 -124q96 0 160 112v381h46z" />
    <glyph glyph-name="uni01D9" unicode="&#x1d9;" horiz-adv-x="648" 
d="M441 940l21 -25l-127 -98h-27l-128 98l21 25l121 -79zM232 810q15 0 24.5 -10t9.5 -24t-9.5 -23.5t-24.5 -9.5t-24 9.5t-9 23.5q0 15 9 24.5t24 9.5zM414 810q15 0 24.5 -10t9.5 -24t-9.5 -23.5t-24.5 -9.5t-24.5 9.5t-9.5 23.5t9.5 24t24.5 10zM543 684v-473
q0 -101 -55.5 -161.5t-163.5 -60.5t-163.5 60.5t-55.5 161.5v473h47v-469q0 -87 42.5 -135t129.5 -48t129 48.5t42 134.5v469h48z" />
    <glyph glyph-name="uni01DA" unicode="&#x1da;" horiz-adv-x="578" 
d="M404 833l21 -25l-127 -98h-27l-128 98l21 25l121 -79zM195 702q15 0 24.5 -9.5t9.5 -23.5t-9.5 -23.5t-24.5 -9.5q-14 0 -23.5 9.5t-9.5 23.5t9.5 23.5t23.5 9.5zM378 702q14 0 23.5 -9.5t9.5 -23.5t-9.5 -23.5t-23.5 -9.5q-15 0 -24.5 9.5t-9.5 23.5t9.5 23.5t24.5 9.5z
M468 522v-522h-39l-3 97q-61 -108 -173 -108q-71 0 -109.5 41.5t-38.5 118.5v373h46v-369q0 -124 111 -124q96 0 160 112v381h46z" />
    <glyph glyph-name="uni01DB" unicode="&#x1db;" horiz-adv-x="648" 
d="M253 955l104 -128l-22 -20l-114 118zM233 810q15 0 24.5 -10t9.5 -24t-9.5 -23.5t-24.5 -9.5t-24.5 9.5t-9.5 23.5t9.5 24t24.5 10zM415 810q14 0 23.5 -10t9.5 -24t-9.5 -23.5t-23.5 -9.5q-15 0 -24.5 9.5t-9.5 23.5t9.5 24t24.5 10zM543 684v-473q0 -101 -55.5 -161.5
t-163.5 -60.5t-163.5 60.5t-55.5 161.5v473h47v-469q0 -87 42.5 -135t129.5 -48t129 48.5t42 134.5v469h48z" />
    <glyph glyph-name="uni01DC" unicode="&#x1dc;" horiz-adv-x="578" 
d="M216 848l104 -128l-22 -20l-114 118zM196 702q15 0 24.5 -9.5t9.5 -23.5t-9.5 -23.5t-24.5 -9.5t-24.5 9.5t-9.5 23.5t9.5 23.5t24.5 9.5zM378 702q14 0 23.5 -9.5t9.5 -23.5t-9.5 -23.5t-23.5 -9.5q-15 0 -24.5 9.5t-9.5 23.5t9.5 23.5t24.5 9.5zM468 522v-522h-39
l-3 97q-61 -108 -173 -108q-71 0 -109.5 41.5t-38.5 118.5v373h46v-369q0 -124 111 -124q96 0 160 112v381h46z" />
    <glyph glyph-name="uni01DD" unicode="&#x1dd;" horiz-adv-x="538" 
d="M267 532q99 0 152 -68.5t53 -199.5q0 -134 -56 -204.5t-152 -70.5q-94 0 -148 68.5t-54 187.5q0 26 2 36h360q-4 107 -45 159t-113 52q-76 0 -147 -50l-22 32q75 58 170 58zM264 29q154 0 160 214h-316v-5q0 -100 41 -154.5t115 -54.5z" />
    <glyph glyph-name="uni01DE" unicode="&#x1de;" horiz-adv-x="562" 
d="M397 908v-39h-229v39h229zM190 743q-15 0 -24.5 9.5t-9.5 23.5t9.5 23.5t24.5 9.5t24.5 -9.5t9.5 -23.5t-9.5 -23.5t-24.5 -9.5zM372 809q14 0 23.5 -9.5t9.5 -23.5t-9.5 -23.5t-23.5 -9.5q-15 0 -24.5 9.5t-9.5 23.5t9.5 23.5t24.5 9.5zM491 0l-63 192h-297l-63 -192
h-48l231 684h60l231 -684h-51zM145 234h270l-134 411z" />
    <glyph glyph-name="uni01DF" unicode="&#x1df;" horiz-adv-x="534" 
d="M372 805v-39h-229v39h229zM167 636q-15 0 -24.5 9.5t-9.5 23.5t9.5 23.5t24.5 9.5t24.5 -9.5t9.5 -23.5t-9.5 -23.5t-24.5 -9.5zM315 669q0 14 9.5 23.5t24.5 9.5q14 0 23.5 -9.5t9.5 -23.5t-9.5 -23.5t-23.5 -9.5q-15 0 -24.5 9.5t-9.5 23.5zM425 113q0 -44 10.5 -63
t33.5 -28l-11 -33q-34 9 -51.5 30t-21.5 62q-57 -92 -165 -92q-74 0 -117 42.5t-43 113.5q0 80 57 123.5t155 43.5h107v55q0 65 -29 95t-96 30q-63 0 -142 -31l-13 37q87 34 159 34q167 0 167 -162v-257zM226 28q101 0 153 99v149h-100q-82 0 -126 -32.5t-44 -97.5
q0 -56 31 -87t86 -31z" />
    <glyph glyph-name="uni01E0" unicode="&#x1e0;" horiz-adv-x="562" 
d="M397 908v-39h-229v39h229zM246 778q0 15 10 25t26 10t26 -10t10 -25t-10 -25t-26 -10t-26 10t-10 25zM491 0l-63 192h-297l-63 -192h-48l231 684h60l231 -684h-51zM145 234h270l-134 411z" />
    <glyph glyph-name="uni01E1" unicode="&#x1e1;" horiz-adv-x="534" 
d="M372 792v-39h-229v39h229zM221 659q0 15 10 25t26 10t26 -10t10 -25t-10 -25t-26 -10t-26 10t-10 25zM425 113q0 -44 10.5 -63t33.5 -28l-11 -33q-34 9 -51.5 30t-21.5 62q-57 -92 -165 -92q-74 0 -117 42.5t-43 113.5q0 80 57 123.5t155 43.5h107v55q0 65 -29 95t-96 30
q-63 0 -142 -31l-13 37q87 34 159 34q167 0 167 -162v-257zM226 28q101 0 153 99v149h-100q-82 0 -126 -32.5t-44 -97.5q0 -56 31 -87t86 -31z" />
    <glyph glyph-name="uni01E2" unicode="&#x1e2;" horiz-adv-x="772" 
d="M564 844v-39h-229v39h229zM499 41h230v-41h-267l-48 188h-291l-71 -188h-48l265 684h410l-6 -41h-330l69 -266h259v-41h-248zM139 229h265l-107 417z" />
    <glyph glyph-name="uni01E3" unicode="&#x1e3;" horiz-adv-x="846" 
d="M538 718v-39h-229v39h229zM784 282q0 -21 -2 -41h-354q5 -107 51 -159t120 -52t142 53l23 -30q-77 -64 -167 -64q-129 0 -185 112q-42 -60 -87 -86t-104 -26q-75 0 -118 42.5t-43 113.5q0 80 57 124t156 44h107v54q0 65 -29 95t-96 30q-63 0 -142 -31l-13 37
q85 34 159 34q132 0 160 -109q54 109 170 109q95 0 145 -67t50 -183zM739 278v19q0 91 -38 143.5t-112 52.5q-69 0 -113 -53.5t-48 -161.5h311zM227 28q51 0 91 26.5t79 84.5q-17 53 -17 117v20h-100q-82 0 -126 -32.5t-44 -97.5q0 -56 31 -87t86 -31z" />
    <glyph glyph-name="uni01E4" unicode="&#x1e4;" horiz-adv-x="628" 
d="M619 240v-41h-73v-155q-93 -55 -196 -55q-129 0 -204.5 91.5t-75.5 264.5q0 85 24 153.5t64 110t89 63.5t102 22q57 0 99 -15.5t85 -49.5l-29 -30q-70 54 -154 54q-94 0 -162 -77t-68 -231q0 -156 61.5 -235t169.5 -79q80 0 148 37v131h-138v41h138v84h-138l-6 41h191
v-125h73z" />
    <glyph glyph-name="uni01E5" unicode="&#x1e5;" horiz-adv-x="497" 
d="M527 -38v-38h-57q-18 -127 -219 -127q-114 0 -164.5 34.5t-50.5 112.5h44q1 -59 38 -83t133 -24q159 0 174 87h-156v38h155q-14 72 -123 72h-85q-61 0 -94 25t-33 64q0 51 57 87q-87 46 -87 148q0 78 51 126t136 48q98 -1 140.5 6t84.5 24l15 -46q-45 -14 -142 -15
q88 -42 88 -146q0 -77 -50 -123.5t-135 -46.5q-38 0 -69 11q-44 -24 -44 -64q0 -58 88 -58h86q69 0 112 -30.5t50 -81.5h57zM106 358q0 -65 38 -101t102 -36q67 0 103 35t36 100t-35 102t-103 37q-70 0 -105.5 -37t-35.5 -100z" />
    <glyph glyph-name="Gcaron" unicode="&#x1e6;" horiz-adv-x="614" 
d="M470 880l21 -25l-127 -98h-27l-128 98l21 25l121 -79zM351 694q101 0 182 -65l-29 -31q-69 55 -153 55q-95 0 -163 -76.5t-68 -231.5q0 -156 61.5 -235t169.5 -79q80 0 148 37v256h-138l-6 41h191v-321q-93 -55 -195 -55q-130 0 -205.5 91.5t-75.5 264.5q0 86 23.5 154
t63.5 110t89.5 63.5t104.5 21.5z" />
    <glyph glyph-name="gcaron" unicode="&#x1e7;" horiz-adv-x="497" 
d="M368 763l21 -24l-127 -104h-27l-128 104l21 24l121 -84zM471 562l15 -46q-45 -14 -142 -15q88 -42 88 -146q0 -77 -50 -123.5t-135 -46.5q-38 0 -69 11q-44 -24 -44 -64q0 -58 88 -58h86q75 0 119 -35.5t44 -93.5q0 -71 -55 -109.5t-165 -38.5q-114 0 -164.5 34.5
t-50.5 112.5h44q1 -59 38 -83t133 -24q173 0 173 105q0 43 -32.5 67t-90.5 24h-85q-61 0 -94 25.5t-33 64.5q0 51 57 87q-87 46 -87 148q0 78 51 126t136 48q98 -1 140.5 6t84.5 24zM247 495q-70 0 -105.5 -37t-35.5 -100q0 -65 38 -101t102 -36q67 0 103 35t36 100t-35 102
t-103 37z" />
    <glyph glyph-name="uni01E8" unicode="&#x1e8;" horiz-adv-x="533" 
d="M419 880l21 -25l-127 -98h-27l-128 98l21 25l121 -79zM162 684v-684h-47v684h47zM516 684l-292 -315l309 -369h-59l-308 367l295 317h55z" />
    <glyph glyph-name="uni01E9" unicode="&#x1e9;" horiz-adv-x="480" 
d="M384 931l21 -25l-127 -98h-27l-128 98l21 25l121 -79zM156 741v-741h-46v735zM445 522l-228 -235l252 -287h-56l-251 285l229 237h54z" />
    <glyph glyph-name="uni01EA" unicode="&#x1ea;" horiz-adv-x="691" 
d="M422 -1q-65 -30 -92.5 -55.5t-27.5 -62.5q0 -53 65 -53q26 0 57 6l-4 -40q-35 -7 -57 -7q-51 0 -78.5 25t-27.5 64q0 66 83 113q-123 2 -196.5 94t-73.5 257q0 166 75.5 260t199.5 94q126 0 201 -92t75 -261q0 -139 -52.5 -227.5t-146.5 -114.5zM120 340q0 -151 61 -230
t164 -79q107 0 166.5 78.5t59.5 231.5q0 154 -60 233t-166 79q-104 0 -164.5 -79.5t-60.5 -233.5z" />
    <glyph glyph-name="uni01EB" unicode="&#x1eb;" horiz-adv-x="567" 
d="M345 -3q-62 -28 -89 -54t-27 -62q0 -53 65 -53q26 0 57 6l-4 -40q-35 -7 -57 -7q-51 0 -78.5 25t-27.5 64q0 66 84 113q-95 6 -148 78t-53 193q0 127 58.5 199.5t158.5 72.5q102 0 159 -70.5t57 -198.5q0 -106 -41 -175.5t-114 -90.5zM115 260q0 -111 44 -171t124 -60
q79 0 124 60t45 174q0 112 -44 170.5t-124 58.5q-79 0 -124 -59.5t-45 -172.5z" />
    <glyph glyph-name="uni01EC" unicode="&#x1ec;" horiz-adv-x="691" 
d="M459 844v-39h-229v39h229zM422 -1q-65 -30 -92.5 -55.5t-27.5 -62.5q0 -53 65 -53q26 0 57 6l-4 -40q-35 -7 -57 -7q-51 0 -78.5 25t-27.5 64q0 66 83 113q-123 2 -196.5 94t-73.5 257q0 166 75.5 260t199.5 94q126 0 201 -92t75 -261q0 -139 -52.5 -227.5t-146.5 -114.5
zM120 340q0 -151 61 -230t164 -79q107 0 166.5 78.5t59.5 231.5q0 154 -60 233t-166 79q-104 0 -164.5 -79.5t-60.5 -233.5z" />
    <glyph glyph-name="uni01ED" unicode="&#x1ed;" horiz-adv-x="567" 
d="M398 718v-39h-229v39h229zM345 -3q-62 -28 -89 -54t-27 -62q0 -53 65 -53q26 0 57 6l-4 -40q-35 -7 -57 -7q-51 0 -78.5 25t-27.5 64q0 66 84 113q-95 6 -148 78t-53 193q0 127 58.5 199.5t158.5 72.5q102 0 159 -70.5t57 -198.5q0 -106 -41 -175.5t-114 -90.5zM115 260
q0 -111 44 -171t124 -60q79 0 124 60t45 174q0 112 -44 170.5t-124 58.5q-79 0 -124 -59.5t-45 -172.5z" />
    <glyph glyph-name="uni01EE" unicode="&#x1ee;" horiz-adv-x="486" 
d="M238 757h-27l-128 98l21 25l121 -79l119 79l21 -25zM216 382q109 0 165 -50.5t56 -144.5q0 -87 -58.5 -142.5t-159.5 -55.5q-125 0 -202 85l29 28q67 -71 171 -71q83 0 127 42.5t44 113.5q0 156 -177 156h-83v39l226 261h-316v41h374v-39l-232 -263h36z" />
    <glyph glyph-name="uni01EF" unicode="&#x1ef;" horiz-adv-x="454" 
d="M229 635h-27l-128 104l21 24l121 -84l119 84l21 -24zM189 198q232 0 232 -195q0 -92 -58 -149t-156 -57q-115 0 -192 85l29 26q67 -70 162 -70q81 0 123.5 44.5t42.5 121.5q0 83 -45.5 119.5t-143.5 36.5h-58v38l216 283h-306v41h361v-37l-221 -287h14z" />
    <glyph glyph-name="uni01F0" unicode="&#x1f0;" horiz-adv-x="266" 
d="M252 763l21 -24l-127 -104h-27l-128 104l21 24l121 -84zM156 522v-508q0 -96 -29 -138t-102 -76l-13 33q56 28 77 63t21 117v509h46z" />
    <glyph glyph-name="uni01F1" unicode="&#x1f1;" horiz-adv-x="1117" 
d="M248 684q50 0 91.5 -7.5t83.5 -30t70.5 -58.5t46.5 -97.5t18 -142.5q0 -82 -18.5 -145t-48 -100.5t-70.5 -61.5t-81 -32.5t-85 -8.5h-140v684h133zM1068 684v-40l-373 -601h364l-6 -43h-413v40l375 602h-337v42h390zM251 643h-89v-602h96q250 0 250 307q0 74 -15.5 129
t-39 86t-59 50t-68.5 24.5t-75 5.5z" />
    <glyph glyph-name="uni01F2" unicode="&#x1f2;" horiz-adv-x="1035" 
d="M248 684q50 0 91.5 -7.5t83.5 -30t70.5 -58.5t46.5 -97.5t18 -142.5q0 -82 -18.5 -145t-48 -100.5t-70.5 -61.5t-81 -32.5t-85 -8.5h-140v684h133zM251 643h-89v-602h96q250 0 250 307q0 74 -15.5 129t-39 86t-59 50t-68.5 24.5t-75 5.5zM1000 522v-37l-298 -444h295
l-5 -41h-345v36l299 445h-275v41h329z" />
    <glyph glyph-name="uni01F3" unicode="&#x1f3;" horiz-adv-x="998" 
d="M425 459v282l46 -6v-735h-40l-5 82q-54 -93 -160 -93q-89 0 -141.5 72.5t-52.5 197.5q0 123 54.5 198t149.5 75q92 0 149 -73zM963 522v-37l-298 -444h295l-5 -41h-345v36l299 445h-275v41h329zM272 29q53 0 88.5 26t64.5 78v277q-56 83 -143 83q-74 0 -118.5 -62
t-43.5 -172t41.5 -170t110.5 -60z" />
    <glyph glyph-name="uni01F4" unicode="&#x1f4;" horiz-adv-x="614" 
d="M432 880l21 -44l-192 -77l-13 29zM351 694q101 0 182 -65l-29 -31q-69 55 -153 55q-95 0 -163 -76.5t-68 -231.5q0 -156 61.5 -235t169.5 -79q80 0 148 37v256h-138l-6 41h191v-321q-93 -55 -195 -55q-130 0 -205.5 91.5t-75.5 264.5q0 86 23.5 154t63.5 110t89.5 63.5
t104.5 21.5z" />
    <glyph glyph-name="uni01F5" unicode="&#x1f5;" horiz-adv-x="497" 
d="M323 776l21 -44l-190 -84l-15 28zM471 562l15 -46q-45 -14 -142 -15q88 -42 88 -146q0 -77 -50 -123.5t-135 -46.5q-38 0 -69 11q-44 -24 -44 -64q0 -58 88 -58h86q75 0 119 -35.5t44 -93.5q0 -71 -55 -109.5t-165 -38.5q-114 0 -164.5 34.5t-50.5 112.5h44q1 -59 38 -83
t133 -24q173 0 173 105q0 43 -32.5 67t-90.5 24h-85q-61 0 -94 25.5t-33 64.5q0 51 57 87q-87 46 -87 148q0 78 51 126t136 48q98 -1 140.5 6t84.5 24zM247 495q-70 0 -105.5 -37t-35.5 -100q0 -65 38 -101t102 -36q67 0 103 35t36 100t-35 102t-103 37z" />
    <glyph glyph-name="uni01F6" unicode="&#x1f6;" horiz-adv-x="962" 
d="M851 522q26 -147 26 -260q0 -135 -58.5 -204t-147.5 -69q-72 0 -119.5 44t-47.5 125v181h-342v-339h-47v684h47v-303h342v303h48v-523q0 -67 32.5 -99.5t87.5 -32.5q67 0 112.5 55.5t45.5 179.5q0 116 -26 258h47z" />
    <glyph glyph-name="uni01F7" unicode="&#x1f7;" horiz-adv-x="566" 
d="M336 694q80 0 130.5 -48t50.5 -131q0 -53 -19 -95.5t-56.5 -73.5t-78 -52t-98.5 -42l-103 -37v-215h-47v684h47v-58q73 68 174 68zM266 294q96 35 148.5 85t52.5 136q0 66 -36.5 102t-98.5 36q-97 0 -170 -68v-328z" />
    <glyph glyph-name="uni01F8" unicode="&#x1f8;" horiz-adv-x="669" 
d="M259 880l183 -92l-13 -29l-192 77zM554 684v-684h-61l-339 631q6 -88 6 -224v-407h-45v684h61l339 -631q-6 99 -6 200v431h45z" />
    <glyph glyph-name="uni01F9" unicode="&#x1f9;" horiz-adv-x="583" 
d="M402 676l-15 -28l-190 84l21 44zM335 532q71 0 107 -41.5t36 -118.5v-372h-46v366q0 128 -104 128q-95 0 -172 -113v-381h-46v522h40l4 -93q74 103 181 103z" />
    <glyph glyph-name="Aringacute" unicode="&#x1fa;" horiz-adv-x="562" 
d="M385 996l-192 -77l-13 29l184 92zM188 817q0 40 26 64.5t67 24.5t67 -24.5t26 -64.5t-26 -65t-67 -25t-67 25t-26 65zM337 817q0 28 -14.5 43.5t-41.5 15.5t-41.5 -15.5t-14.5 -43.5q0 -59 56 -59t56 59zM491 0l-63 192h-297l-63 -192h-48l231 684h60l231 -684h-51z
M145 234h270l-134 411z" />
    <glyph glyph-name="aringacute" unicode="&#x1fb;" horiz-adv-x="534" 
d="M360 853l-192 -77l-13 29l184 92zM165 679q0 40 26 64.5t67 24.5t67 -24.5t26 -64.5t-26 -65t-67 -25t-67 25t-26 65zM314 679q0 28 -14.5 43.5t-41.5 15.5t-41.5 -15.5t-14.5 -43.5q0 -59 56 -59t56 59zM425 113q0 -44 10.5 -63t33.5 -28l-11 -33q-34 9 -51.5 30
t-21.5 62q-57 -92 -165 -92q-74 0 -117 42.5t-43 113.5q0 80 57 123.5t155 43.5h107v55q0 65 -29 95t-96 30q-63 0 -142 -31l-13 37q87 34 159 34q167 0 167 -162v-257zM226 28q101 0 153 99v149h-100q-82 0 -126 -32.5t-44 -97.5q0 -56 31 -87t86 -31z" />
    <glyph glyph-name="AEacute" unicode="&#x1fc;" horiz-adv-x="772" 
d="M552 836l-192 -77l-13 29l184 92zM499 41h230v-41h-267l-48 188h-291l-71 -188h-48l265 684h410l-6 -41h-330l69 -266h259v-41h-248zM139 229h265l-107 417z" />
    <glyph glyph-name="aeacute" unicode="&#x1fd;" horiz-adv-x="846" 
d="M519 732l-190 -84l-15 28l184 100zM784 282q0 -21 -2 -41h-354q5 -107 51 -159t120 -52t142 53l23 -30q-77 -64 -167 -64q-129 0 -185 112q-42 -60 -87 -86t-104 -26q-75 0 -118 42.5t-43 113.5q0 80 57 124t156 44h107v54q0 65 -29 95t-96 30q-63 0 -142 -31l-13 37
q85 34 159 34q132 0 160 -109q54 109 170 109q95 0 145 -67t50 -183zM739 278v19q0 91 -38 143.5t-112 52.5q-69 0 -113 -53.5t-48 -161.5h311zM227 28q51 0 91 26.5t79 84.5q-17 53 -17 117v20h-100q-82 0 -126 -32.5t-44 -97.5q0 -56 31 -87t86 -31z" />
    <glyph glyph-name="Oslashacute" unicode="&#x1fe;" horiz-adv-x="691" 
d="M440 847l-192 -77l-13 29l184 92zM462 669q75 -35 117 -118.5t42 -209.5q0 -166 -74.5 -259t-201.5 -93q-43 0 -81 12l-33 -118l-43 12l38 120q-74 37 -115 120t-41 205q0 166 75.5 260t199.5 94q41 0 79 -11l35 124l43 -12zM120 340q0 -217 122 -284l173 587
q-30 10 -70 10q-104 0 -164.5 -79.5t-60.5 -233.5zM345 31q107 0 166.5 78.5t59.5 231.5q0 225 -124 289l-174 -588q35 -11 72 -11z" />
    <glyph glyph-name="oslashacute" unicode="&#x1ff;" horiz-adv-x="567" 
d="M379 732l-190 -84l-15 28l184 100zM389 507q111 -61 111 -244q0 -128 -58 -201t-159 -73q-36 0 -66 9l-41 -121l-39 11l43 126q-113 63 -113 246q0 127 58.5 199.5t158.5 72.5q37 0 67 -9l39 123l40 -12zM115 260q0 -157 82 -208l143 432q-27 8 -56 8q-79 0 -124 -59.5
t-45 -172.5zM283 29q79 0 124 60t45 174q0 156 -80 206l-143 -432q26 -8 54 -8z" />
    <glyph glyph-name="uni0200" unicode="&#x200;" horiz-adv-x="562" 
d="M240 786l-31 -15l-88 136l43 23zM354 790l-31 -15l-80 132l43 22zM491 0l-63 192h-297l-63 -192h-48l231 684h60l231 -684h-51zM145 234h270l-134 411z" />
    <glyph glyph-name="uni0201" unicode="&#x201;" horiz-adv-x="534" 
d="M227 660l-31 -15l-88 136l43 23zM341 664l-31 -15l-80 132l43 22zM425 113q0 -44 10.5 -63t33.5 -28l-11 -33q-34 9 -51.5 30t-21.5 62q-57 -92 -165 -92q-74 0 -117 42.5t-43 113.5q0 80 57 123.5t155 43.5h107v55q0 65 -29 95t-96 30q-63 0 -142 -31l-13 37
q87 34 159 34q167 0 167 -162v-257zM226 28q101 0 153 99v149h-100q-82 0 -126 -32.5t-44 -97.5q0 -56 31 -87t86 -31z" />
    <glyph glyph-name="uni0202" unicode="&#x202;" horiz-adv-x="562" 
d="M281 859q-71 0 -91 -70l-32 7q7 47 40.5 75t82.5 28t82.5 -28.5t40.5 -74.5l-32 -7q-20 70 -91 70zM491 0l-63 192h-297l-63 -192h-48l231 684h60l231 -684h-51zM145 234h270l-134 411z" />
    <glyph glyph-name="uni0203" unicode="&#x203;" horiz-adv-x="534" 
d="M257 697q-71 0 -91 -70l-32 7q7 47 40.5 75t82.5 28t82.5 -28.5t40.5 -74.5l-32 -7q-20 70 -91 70zM425 113q0 -44 10.5 -63t33.5 -28l-11 -33q-34 9 -51.5 30t-21.5 62q-57 -92 -165 -92q-74 0 -117 42.5t-43 113.5q0 80 57 123.5t155 43.5h107v55q0 65 -29 95t-96 30
q-63 0 -142 -31l-13 37q87 34 159 34q167 0 167 -162v-257zM226 28q101 0 153 99v149h-100q-82 0 -126 -32.5t-44 -97.5q0 -56 31 -87t86 -31z" />
    <glyph glyph-name="uni0204" unicode="&#x204;" horiz-adv-x="504" 
d="M172 930l76 -144l-31 -15l-88 136zM294 929l68 -139l-31 -15l-80 132zM454 684l-6 -41h-286v-266h247v-41h-247v-295h298v-41h-345v684h339z" />
    <glyph glyph-name="uni0205" unicode="&#x205;" horiz-adv-x="533" 
d="M245 660l-31 -15l-88 136l43 23zM359 664l-31 -15l-80 132l43 22zM471 282q0 -21 -2 -41h-354q5 -107 51 -159t120 -52t142 53l23 -30q-77 -64 -167 -64q-101 0 -159 71t-58 197t55.5 200.5t149.5 74.5q97 0 148 -67t51 -183zM426 278v19q0 91 -38 143.5t-114 52.5
q-68 0 -111.5 -53.5t-47.5 -161.5h311z" />
    <glyph glyph-name="uni0206" unicode="&#x206;" horiz-adv-x="504" 
d="M289 899q49 0 82.5 -28.5t40.5 -74.5l-32 -7q-20 70 -91 70t-91 -70l-32 7q7 47 40.5 75t82.5 28zM454 684l-6 -41h-286v-266h247v-41h-247v-295h298v-41h-345v684h339z" />
    <glyph glyph-name="uni0207" unicode="&#x207;" horiz-adv-x="533" 
d="M275 697q-71 0 -91 -70l-32 7q7 47 40.5 75t82.5 28t82.5 -28.5t40.5 -74.5l-32 -7q-20 70 -91 70zM471 282q0 -21 -2 -41h-354q5 -107 51 -159t120 -52t142 53l23 -30q-77 -64 -167 -64q-101 0 -159 71t-58 197t55.5 200.5t149.5 74.5q97 0 148 -67t51 -183zM426 278v19
q0 91 -38 143.5t-114 52.5q-68 0 -111.5 -53.5t-47.5 -161.5h311z" />
    <glyph glyph-name="uni0208" unicode="&#x208;" horiz-adv-x="277" 
d="M21 930l76 -144l-31 -15l-88 136zM143 929l68 -139l-31 -15l-80 132zM162 684v-684h-47v684h47z" />
    <glyph glyph-name="uni0209" unicode="&#x209;" horiz-adv-x="266" 
d="M27 804l76 -144l-31 -15l-88 136zM149 803l68 -139l-31 -15l-80 132zM156 522v-522h-46v522h46z" />
    <glyph glyph-name="uni020A" unicode="&#x20a;" horiz-adv-x="277" 
d="M138 899q49 0 82.5 -28.5t40.5 -74.5l-32 -7q-20 70 -91 70t-91 -70l-32 7q7 47 40.5 75t82.5 28zM162 684v-684h-47v684h47z" />
    <glyph glyph-name="uni020B" unicode="&#x20b;" horiz-adv-x="266" 
d="M133 737q49 0 82.5 -28.5t40.5 -74.5l-32 -7q-20 70 -91 70t-91 -70l-32 7q7 47 40.5 75t82.5 28zM156 522v-522h-46v522h46z" />
    <glyph glyph-name="uni020C" unicode="&#x20c;" horiz-adv-x="691" 
d="M228 930l76 -144l-31 -15l-88 136zM350 929l68 -139l-31 -15l-80 132zM345 694q126 0 201 -92t75 -261q0 -166 -74.5 -259t-201.5 -93q-125 0 -200 92t-75 259q0 166 75.5 260t199.5 94zM345 653q-104 0 -164.5 -79.5t-60.5 -233.5q0 -151 61 -230t164 -79
q107 0 166.5 78.5t59.5 231.5q0 154 -60 233t-166 79z" />
    <glyph glyph-name="uni020D" unicode="&#x20d;" horiz-adv-x="567" 
d="M178 804l76 -144l-31 -15l-88 136zM300 803l68 -139l-31 -15l-80 132zM284 532q102 0 159 -70.5t57 -198.5t-58 -201t-159 -73t-158.5 72.5t-57.5 198.5q0 127 58.5 199.5t158.5 72.5zM284 492q-79 0 -124 -59.5t-45 -172.5q0 -111 44 -171t124 -60q79 0 124 60t45 174
q0 112 -44 170.5t-124 58.5z" />
    <glyph glyph-name="uni020E" unicode="&#x20e;" horiz-adv-x="691" 
d="M345 899q49 0 82.5 -28.5t40.5 -74.5l-32 -7q-20 70 -91 70t-91 -70l-32 7q7 47 40.5 75t82.5 28zM345 694q126 0 201 -92t75 -261q0 -166 -74.5 -259t-201.5 -93q-125 0 -200 92t-75 259q0 166 75.5 260t199.5 94zM345 653q-104 0 -164.5 -79.5t-60.5 -233.5
q0 -151 61 -230t164 -79q107 0 166.5 78.5t59.5 231.5q0 154 -60 233t-166 79z" />
    <glyph glyph-name="uni020F" unicode="&#x20f;" horiz-adv-x="567" 
d="M284 737q49 0 82.5 -28.5t40.5 -74.5l-32 -7q-20 70 -91 70t-91 -70l-32 7q7 47 40.5 75t82.5 28zM284 532q102 0 159 -70.5t57 -198.5t-58 -201t-159 -73t-158.5 72.5t-57.5 198.5q0 127 58.5 199.5t158.5 72.5zM284 492q-79 0 -124 -59.5t-45 -172.5q0 -111 44 -171
t124 -60q79 0 124 60t45 174q0 112 -44 170.5t-124 58.5z" />
    <glyph glyph-name="uni0210" unicode="&#x210;" horiz-adv-x="584" 
d="M248 786l-31 -15l-88 136l43 23zM362 790l-31 -15l-80 132l43 22zM491 0l-181 313h-148v-313h-47v684h161q237 0 237 -183q0 -143 -154 -180l189 -321h-57zM162 353h121q180 0 180 148q0 72 -44.5 107t-145.5 35h-111v-290z" />
    <glyph glyph-name="uni0211" unicode="&#x211;" horiz-adv-x="369" 
d="M201 660l-31 -15l-88 136l43 23zM315 664l-31 -15l-80 132l43 22zM303 532q34 0 52 -6l-9 -43q-19 6 -46 6q-55 0 -88.5 -39.5t-55.5 -123.5v-326h-46v522h40l3 -121q42 131 150 131z" />
    <glyph glyph-name="uni0212" unicode="&#x212;" horiz-adv-x="584" 
d="M289 859q-71 0 -91 -70l-32 7q7 47 40.5 75t82.5 28t82.5 -28.5t40.5 -74.5l-32 -7q-20 70 -91 70zM491 0l-181 313h-148v-313h-47v684h161q237 0 237 -183q0 -143 -154 -180l189 -321h-57zM162 353h121q180 0 180 148q0 72 -44.5 107t-145.5 35h-111v-290z" />
    <glyph glyph-name="uni0213" unicode="&#x213;" horiz-adv-x="369" 
d="M231 697q-71 0 -91 -70l-32 7q7 47 40.5 75t82.5 28t82.5 -28.5t40.5 -74.5l-32 -7q-20 70 -91 70zM303 532q34 0 52 -6l-9 -43q-19 6 -46 6q-55 0 -88.5 -39.5t-55.5 -123.5v-326h-46v522h40l3 -121q42 131 150 131z" />
    <glyph glyph-name="uni0214" unicode="&#x214;" horiz-adv-x="648" 
d="M207 930l76 -144l-31 -15l-88 136zM329 929l68 -139l-31 -15l-80 132zM543 684v-473q0 -101 -55.5 -161.5t-163.5 -60.5t-163.5 60.5t-55.5 161.5v473h47v-469q0 -87 42.5 -135t129.5 -48t129 48.5t42 134.5v469h48z" />
    <glyph glyph-name="uni0215" unicode="&#x215;" horiz-adv-x="578" 
d="M181 804l76 -144l-31 -15l-88 136zM303 803l68 -139l-31 -15l-80 132zM468 522v-522h-39l-3 97q-61 -108 -173 -108q-71 0 -109.5 41.5t-38.5 118.5v373h46v-369q0 -124 111 -124q96 0 160 112v381h46z" />
    <glyph glyph-name="uni0216" unicode="&#x216;" horiz-adv-x="648" 
d="M324 899q49 0 82.5 -28.5t40.5 -74.5l-32 -7q-20 70 -91 70t-91 -70l-32 7q7 47 40.5 75t82.5 28zM543 684v-473q0 -101 -55.5 -161.5t-163.5 -60.5t-163.5 60.5t-55.5 161.5v473h47v-469q0 -87 42.5 -135t129.5 -48t129 48.5t42 134.5v469h48z" />
    <glyph glyph-name="uni0217" unicode="&#x217;" horiz-adv-x="578" 
d="M287 737q49 0 82.5 -28.5t40.5 -74.5l-32 -7q-20 70 -91 70t-91 -70l-32 7q7 47 40.5 75t82.5 28zM468 522v-522h-39l-3 97q-61 -108 -173 -108q-71 0 -109.5 41.5t-38.5 118.5v373h46v-369q0 -124 111 -124q96 0 160 112v381h46z" />
    <glyph glyph-name="Scommaaccent" unicode="&#x218;" horiz-adv-x="537" 
d="M266 694q62 0 105.5 -18.5t85.5 -55.5l-28 -31q-73 64 -162 64q-67 0 -107.5 -33.5t-40.5 -88.5q0 -56 35 -86.5t128 -58.5q103 -31 149.5 -74.5t46.5 -126.5q0 -87 -60.5 -141.5t-159.5 -54.5q-124 0 -214 85l28 31q82 -74 185 -74q77 0 125 41t48 112q0 65 -36 99
t-131 63q-105 32 -148.5 73t-43.5 111q0 71 54 117.5t141 46.5zM261 -87q18 0 29 -11t11 -27q0 -17 -21 -62l-40 -86h-29l33 114q-21 11 -21 34q0 16 11 27t27 11z" />
    <glyph glyph-name="scommaaccent" unicode="&#x219;" horiz-adv-x="463" 
d="M233 532q89 0 162 -57l-23 -31q-67 49 -138 49q-55 0 -89 -25.5t-34 -69.5q0 -40 29 -62t103 -42q90 -24 128 -57.5t38 -98.5q0 -68 -51.5 -108.5t-130.5 -40.5q-104 0 -183 67l26 30q71 -57 156 -57q60 0 97.5 28.5t37.5 79.5q0 50 -28.5 74t-112.5 47q-84 22 -120 54
t-36 86q0 59 48 96.5t121 37.5zM231 -87q18 0 29 -11t11 -27q0 -17 -21 -62l-40 -86h-29l33 114q-21 11 -21 34q0 16 11 27t27 11z" />
    <glyph glyph-name="uni021A" unicode="&#x21a;" horiz-adv-x="487" 
d="M477 684l-6 -43h-204v-641h-47v641h-205v43h462zM242 -87q18 0 29 -11t11 -27q0 -17 -21 -62l-40 -86h-29l33 114q-21 11 -21 34q0 16 11 27t27 11z" />
    <glyph glyph-name="uni021B" unicode="&#x21b;" horiz-adv-x="334" 
d="M338 21q-50 -32 -108 -32q-57 0 -89.5 34t-32.5 100v360h-87v39h87v127l46 5v-132h138l-6 -39h-132v-357q0 -96 81 -96q42 0 84 24zM225 -87q18 0 29 -11t11 -27q0 -17 -21 -62l-40 -86h-29l33 114q-21 11 -21 34q0 16 11 27t27 11z" />
    <glyph glyph-name="uni021C" unicode="&#x21c;" horiz-adv-x="500" 
d="M229 694q91 0 142 -48t51 -128q0 -66 -35.5 -105t-95.5 -53q68 -8 110 -47.5t42 -110.5q0 -106 -86.5 -176t-289.5 -112l-5 42q182 38 256.5 97t74.5 148q0 66 -45.5 101.5t-131.5 34.5h-61l6 41h52q73 0 116.5 36t43.5 103q0 63 -38 99.5t-108 36.5q-91 0 -176 -72
l-26 30q92 83 204 83z" />
    <glyph glyph-name="uni021D" unicode="&#x21d;" horiz-adv-x="459" 
d="M200 532q73 0 119.5 -37.5t46.5 -103.5q0 -99 -101 -123q57 -2 92.5 -32t35.5 -85q0 -167 -323 -244l-7 36q147 41 214 90t67 117q0 49 -34.5 72t-91.5 23h-86l4 38h53q61 0 95.5 27.5t34.5 79.5q0 50 -32 76.5t-89 26.5q-46 0 -77.5 -10.5t-71.5 -34.5l-23 30
q79 54 174 54z" />
    <glyph glyph-name="uni021E" unicode="&#x21e;" horiz-adv-x="667" 
d="M451 880l21 -25l-127 -98h-27l-128 98l21 25l121 -79zM504 0v339h-342v-339h-47v684h47v-303h342v303h48v-684h-48z" />
    <glyph glyph-name="uni021F" unicode="&#x21f;" horiz-adv-x="583" 
d="M308 808h-27l-128 98l21 25l121 -79l119 79l21 -25zM335 532q70 0 106.5 -42t36.5 -118v-372h-46v366q0 128 -104 128q-95 0 -172 -113v-381h-46v735l46 6v-311q74 102 179 102z" />
    <glyph glyph-name="uni0220" unicode="&#x220;" horiz-adv-x="659" 
d="M376 694q85 0 130.5 -51.5t45.5 -146.5v-691h-47v682q0 166 -135 166q-116 0 -208 -121v-532h-47v684h41l4 -103q88 113 216 113z" />
    <glyph glyph-name="uni0221" unicode="&#x221;" horiz-adv-x="678" 
d="M609 194q44 0 70 -25t26 -64q0 -52 -39.5 -84t-100.5 -32q-54 0 -91 27l-38 -78l-35 15l47 91q-13 17 -19 44q-52 -99 -163 -99q-89 0 -141.5 72.5t-52.5 197.5q0 123 54.5 198t149.5 75q92 0 149 -73v282l46 -6v-612q0 -17 3 -30q51 101 135 101zM272 29q53 0 88.5 26
t64.5 78v277q-56 83 -143 83q-74 0 -118.5 -62t-43.5 -172t41.5 -170t110.5 -60zM565 30q44 0 70.5 20t26.5 55q0 24 -15 38t-40 14q-37 0 -61.5 -24t-52.5 -79q23 -24 72 -24z" />
    <glyph glyph-name="uni0222" unicode="&#x222;" horiz-adv-x="636" 
d="M422 386q70 -21 107 -70t37 -120q0 -90 -64 -148.5t-184 -58.5q-118 0 -183 57.5t-65 148.5q0 68 37 118.5t107 71.5q-97 40 -97 162v137h48v-135q0 -147 153 -147q157 0 157 147v135h47v-137q0 -120 -100 -161zM318 31q198 0 198 165t-198 165q-98 0 -148 -44t-50 -122
q0 -77 49.5 -120.5t148.5 -43.5z" />
    <glyph glyph-name="uni0223" unicode="&#x223;" horiz-adv-x="563" 
d="M365 409q65 -20 98.5 -72t33.5 -129q0 -97 -57 -158t-158 -61q-99 0 -157 60t-58 158q0 74 34 127.5t98 74.5q-94 38 -94 151v175h46v-175q0 -134 131 -134q69 0 101.5 38t32.5 96v175h46v-175q0 -110 -97 -151zM282 29q82 0 124 46.5t42 132.5q0 85 -41 132.5t-125 47.5
q-82 0 -124.5 -48.5t-42.5 -132.5q0 -85 43.5 -131.5t123.5 -46.5z" />
    <glyph glyph-name="uni0224" unicode="&#x224;" horiz-adv-x="514" 
d="M465 684v-40l-373 -601h361v-119q0 -62 -31.5 -94.5t-84.5 -32.5q-54 0 -97 33l20 32q34 -24 76 -24q70 0 70 86v76h-369v40l375 602h-337v42h390z" />
    <glyph glyph-name="uni0225" unicode="&#x225;" horiz-adv-x="416" 
d="M382 522v-37l-298 -444h292v-117q0 -62 -31.5 -94.5t-84.5 -32.5q-54 0 -97 33l20 30q35 -23 76 -23q72 0 72 86v77h-302v36l299 445h-275v41h329z" />
    <glyph glyph-name="uni0226" unicode="&#x226;" horiz-adv-x="562" 
d="M281 800q-16 0 -26 10t-10 25t10 25t26 10t26 -10t10 -25t-10 -25t-26 -10zM491 0l-63 192h-297l-63 -192h-48l231 684h60l231 -684h-51zM145 234h270l-134 411z" />
    <glyph glyph-name="uni0227" unicode="&#x227;" horiz-adv-x="534" 
d="M257 674q-16 0 -26 10t-10 25t10 25t26 10t26 -10t10 -25t-10 -25t-26 -10zM425 113q0 -44 10.5 -63t33.5 -28l-11 -33q-34 9 -51.5 30t-21.5 62q-57 -92 -165 -92q-74 0 -117 42.5t-43 113.5q0 80 57 123.5t155 43.5h107v55q0 65 -29 95t-96 30q-63 0 -142 -31l-13 37
q87 34 159 34q167 0 167 -162v-257zM226 28q101 0 153 99v149h-100q-82 0 -126 -32.5t-44 -97.5q0 -56 31 -87t86 -31z" />
    <glyph glyph-name="uni0228" unicode="&#x228;" horiz-adv-x="504" 
d="M460 0h-165v-67q92 -7 92 -73q0 -38 -28.5 -60t-70.5 -22q-43 0 -76 20l16 30q28 -15 59 -15q25 0 41 12t16 35q0 45 -89 45l8 95h-148v684h339l-6 -41h-286v-266h247v-41h-247v-295h298v-41z" />
    <glyph glyph-name="uni0229" unicode="&#x229;" horiz-adv-x="533" 
d="M471 282q0 -21 -2 -41h-354q5 -107 51 -159t120 -52t142 53l23 -30q-70 -59 -151 -64v-56q92 -7 92 -73q0 -38 -28.5 -60t-70.5 -22q-43 0 -76 20l16 30q28 -15 59 -15q25 0 41 12t16 35q0 45 -89 45l7 85q-93 6 -146.5 76.5t-53.5 190.5q0 126 55.5 200.5t149.5 74.5
q97 0 148 -67t51 -183zM426 278v19q0 91 -38 143.5t-114 52.5q-68 0 -111.5 -53.5t-47.5 -161.5h311z" />
    <glyph glyph-name="uni022A" unicode="&#x22a;" horiz-adv-x="691" 
d="M461 869h-229v39h229v-39zM254 809q15 0 24.5 -9.5t9.5 -23.5t-9.5 -23.5t-24.5 -9.5t-24.5 9.5t-9.5 23.5t9.5 23.5t24.5 9.5zM436 809q14 0 23.5 -9.5t9.5 -23.5t-9.5 -23.5t-23.5 -9.5q-15 0 -24.5 9.5t-9.5 23.5t9.5 23.5t24.5 9.5zM345 694q126 0 201 -92t75 -261
q0 -166 -74.5 -259t-201.5 -93q-125 0 -200 92t-75 259q0 166 75.5 260t199.5 94zM345 653q-104 0 -164.5 -79.5t-60.5 -233.5q0 -151 61 -230t164 -79q107 0 166.5 78.5t59.5 231.5q0 154 -60 233t-166 79z" />
    <glyph glyph-name="uni022B" unicode="&#x22b;" horiz-adv-x="567" 
d="M399 766h-229v39h229v-39zM194 702q15 0 24.5 -9.5t9.5 -23.5t-9.5 -23.5t-24.5 -9.5t-24.5 9.5t-9.5 23.5t9.5 23.5t24.5 9.5zM376 702q14 0 23.5 -9.5t9.5 -23.5t-9.5 -23.5t-23.5 -9.5q-15 0 -24.5 9.5t-9.5 23.5t9.5 23.5t24.5 9.5zM284 532q102 0 159 -70.5
t57 -198.5t-58 -201t-159 -73t-158.5 72.5t-57.5 198.5q0 127 58.5 199.5t158.5 72.5zM284 492q-79 0 -124 -59.5t-45 -172.5q0 -111 44 -171t124 -60q79 0 124 60t45 174q0 112 -44 170.5t-124 58.5z" />
    <glyph glyph-name="uni022C" unicode="&#x22c;" horiz-adv-x="691" 
d="M455 887h-229v39h229v-39zM403 757q-27 0 -64.5 22t-52.5 22q-30 0 -57 -37l-29 15q37 60 86 60q22 0 60 -22t57 -22q28 0 57 43l29 -15q-32 -66 -86 -66zM345 694q126 0 201 -92t75 -261q0 -166 -74.5 -259t-201.5 -93q-125 0 -200 92t-75 259q0 166 75.5 260t199.5 94z
M345 653q-104 0 -164.5 -79.5t-60.5 -233.5q0 -151 61 -230t164 -79q107 0 166.5 78.5t59.5 231.5q0 154 -60 233t-166 79z" />
    <glyph glyph-name="uni022D" unicode="&#x22d;" horiz-adv-x="567" 
d="M398 734h-229v39h229v-39zM342 603q-27 0 -64.5 22t-52.5 22q-30 0 -57 -37l-29 15q37 60 86 60q22 0 60 -22t57 -22q28 0 57 43l29 -15q-32 -66 -86 -66zM284 532q102 0 159 -70.5t57 -198.5t-58 -201t-159 -73t-158.5 72.5t-57.5 198.5q0 127 58.5 199.5t158.5 72.5z
M284 492q-79 0 -124 -59.5t-45 -172.5q0 -111 44 -171t124 -60q79 0 124 60t45 174q0 112 -44 170.5t-124 58.5z" />
    <glyph glyph-name="uni022E" unicode="&#x22e;" horiz-adv-x="691" 
d="M345 870q16 0 26 -10t10 -25t-10 -25t-26 -10t-26 10t-10 25t10 25t26 10zM345 694q126 0 201 -92t75 -261q0 -166 -74.5 -259t-201.5 -93q-125 0 -200 92t-75 259q0 166 75.5 260t199.5 94zM345 653q-104 0 -164.5 -79.5t-60.5 -233.5q0 -151 61 -230t164 -79
q107 0 166.5 78.5t59.5 231.5q0 154 -60 233t-166 79z" />
    <glyph glyph-name="uni022F" unicode="&#x22f;" horiz-adv-x="567" 
d="M284 744q16 0 26 -10t10 -25t-10 -25t-26 -10t-26 10t-10 25t10 25t26 10zM284 532q102 0 159 -70.5t57 -198.5t-58 -201t-159 -73t-158.5 72.5t-57.5 198.5q0 127 58.5 199.5t158.5 72.5zM284 492q-79 0 -124 -59.5t-45 -172.5q0 -111 44 -171t124 -60q79 0 124 60
t45 174q0 112 -44 170.5t-124 58.5z" />
    <glyph glyph-name="uni0230" unicode="&#x230;" horiz-adv-x="691" 
d="M461 869h-229v39h229v-39zM346 813q16 0 26 -10t10 -25t-10 -25t-26 -10t-26 10t-10 25t10 25t26 10zM345 694q126 0 201 -92t75 -261q0 -166 -74.5 -259t-201.5 -93q-125 0 -200 92t-75 259q0 166 75.5 260t199.5 94zM345 653q-104 0 -164.5 -79.5t-60.5 -233.5
q0 -151 61 -230t164 -79q107 0 166.5 78.5t59.5 231.5q0 154 -60 233t-166 79z" />
    <glyph glyph-name="uni0231" unicode="&#x231;" horiz-adv-x="567" 
d="M399 753h-229v39h229v-39zM284 694q16 0 26 -10t10 -25t-10 -25t-26 -10t-26 10t-10 25t10 25t26 10zM284 532q102 0 159 -70.5t57 -198.5t-58 -201t-159 -73t-158.5 72.5t-57.5 198.5q0 127 58.5 199.5t158.5 72.5zM284 492q-79 0 -124 -59.5t-45 -172.5q0 -111 44 -171
t124 -60q79 0 124 60t45 174q0 112 -44 170.5t-124 58.5z" />
    <glyph glyph-name="uni0232" unicode="&#x232;" horiz-adv-x="513" 
d="M370 805h-229v39h229v-39zM497 684l-216 -415v-269h-47v268l-218 416h53l190 -372l186 372h52z" />
    <glyph glyph-name="uni0233" unicode="&#x233;" horiz-adv-x="459" 
d="M344 679h-229v39h229v-39zM442 522l-181 -524q-31 -91 -73 -135t-129 -64l-6 36q74 20 104.5 53.5t59.5 111.5h-16l-184 522h50l165 -487l160 487h50z" />
    <glyph glyph-name="uni0234" unicode="&#x234;" horiz-adv-x="358" 
d="M289 194q44 0 70 -25t26 -64q0 -52 -40 -84t-101 -32q-52 0 -90 27l-38 -78l-35 15l47 90q-23 36 -23 83v609l46 6v-618q0 -15 3 -29q51 100 135 100zM244 30q45 0 71.5 20t26.5 55q0 24 -15 38t-40 14q-37 0 -61.5 -23.5t-52.5 -79.5q23 -24 71 -24z" />
    <glyph glyph-name="uni0235" unicode="&#x235;" horiz-adv-x="685" 
d="M616 194q44 0 70 -25t26 -64q0 -52 -39.5 -84t-100.5 -32q-54 0 -90 27l-39 -78l-35 15l48 90q-24 34 -24 83v240q0 128 -104 128q-95 0 -172 -113v-381h-46v522h40l4 -93q74 103 181 103q71 0 107 -41.5t36 -118.5v-249q0 -16 3 -31q26 50 57.5 76t77.5 26zM572 30
q44 0 70.5 20t26.5 55q0 24 -15 38t-40 14q-37 0 -61.5 -24t-52.5 -79q22 -24 72 -24z" />
    <glyph glyph-name="uni0236" unicode="&#x236;" horiz-adv-x="360" 
d="M290 194q45 0 71.5 -25.5t26.5 -66.5q0 -51 -39 -82t-99 -31q-56 0 -93 27l-40 -78l-33 15l47 90q-23 32 -23 83v357h-87v39h87v127l46 5v-132h138l-6 -39h-132v-360q0 -11 2 -29q52 100 134 100zM250 30q43 0 69 18.5t26 53.5q0 26 -15 40.5t-42 14.5q-36 0 -60 -23.5
t-52 -79.5q22 -24 74 -24z" />
    <glyph glyph-name="uni0237" unicode="&#x237;" horiz-adv-x="266" 
d="M156 522v-508q0 -96 -29 -138t-102 -76l-13 33q56 28 77 63t21 117v509h46z" />
    <glyph glyph-name="uni0238" unicode="&#x238;" horiz-adv-x="851" 
d="M602 532q83 0 130.5 -70t47.5 -198q0 -127 -49.5 -201t-136.5 -74q-46 0 -84 27t-60 67l-5 -83h-34l-5 83q-52 -94 -150 -94q-83 0 -133.5 73t-50.5 197q0 122 53 197.5t141 75.5q84 0 139 -82v285l46 6v-293q61 84 151 84zM262 29q86 0 143 104v271q-31 45 -62 67
t-72 22q-66 0 -109 -62.5t-42 -171.5t39.5 -169.5t102.5 -60.5zM589 29q66 0 104 60.5t38 174.5q0 115 -35 172t-100 57q-45 0 -78.5 -23.5t-66.5 -69.5v-264q54 -107 138 -107z" />
    <glyph glyph-name="uni0239" unicode="&#x239;" horiz-adv-x="851" 
d="M604 532q84 0 130 -70t46 -198q0 -127 -49 -201t-137 -74t-143 89v-273l-46 -8v281q-56 -89 -148 -89q-83 0 -134 73t-51 197q0 122 53.5 197.5t142.5 75.5q87 0 139 -86l4 76h34l4 -78q63 88 155 88zM263 29q86 0 142 102v268q-57 94 -133 94q-67 0 -110 -62.5
t-42 -171.5t40 -169.5t103 -60.5zM588 30q68 0 105.5 60t37.5 174q0 113 -35 171t-98 58q-46 0 -80 -24t-67 -70v-266q54 -103 137 -103z" />
    <glyph glyph-name="uni023A" unicode="&#x23a;" horiz-adv-x="562" 
d="M492 0l-63 192h-160l-69 -262l-29 7l67 255h-107l-64 -192h-47l231 684h60l32 -94l40 153l28 -8l-51 -195l182 -540h-50zM144 233h105l74 284l-42 130zM279 233h137l-76 232z" />
    <glyph glyph-name="uni023B" unicode="&#x23b;" horiz-adv-x="547" 
d="M523 58q-76 -69 -181 -69q-50 0 -91 16l-20 -75l-28 7l21 80q-72 37 -113 120t-41 205q0 169 77.5 260.5t196.5 91.5q29 0 57 -5l14 54l27 -8l-14 -53q43 -13 87 -49l-26 -32q-41 31 -71 41l-156 -594q36 -16 82 -16q49 0 83 14.5t70 43.5zM120 342q0 -207 116 -280
l154 587q-17 4 -43 4q-101 0 -164 -76.5t-63 -234.5z" />
    <glyph glyph-name="uni023C" unicode="&#x23c;" horiz-adv-x="466" 
d="M432 45q-62 -56 -146 -56q-37 0 -73 11l-19 -70l-29 7l21 75q-119 63 -119 246q0 126 59.5 200t158.5 74q22 0 43 -3l17 62l28 -8l-17 -61q36 -11 72 -41l-24 -31q-27 23 -58 33l-122 -442q30 -11 62 -11q66 0 122 46zM116 258q0 -150 81 -203l120 435q-18 2 -30 2
q-78 0 -124.5 -60t-46.5 -174z" />
    <glyph glyph-name="uni023D" unicode="&#x23d;" horiz-adv-x="489" 
d="M181 44h288l-7 -44h-328v343h-104v40h104v301h47v-301h107v-40h-107v-299z" />
    <glyph glyph-name="uni023E" unicode="&#x23e;" horiz-adv-x="487" 
d="M471 641h-114l-90 -286v-355h-47v205l-86 -275l-28 9l114 364v338h-205v43h324l19 60l28 -9l-16 -51h107zM267 453l59 188h-59v-188z" />
    <glyph glyph-name="uni023F" unicode="&#x23f;" horiz-adv-x="463" 
d="M391 -146l19 -30q-34 -27 -79 -27q-32 0 -55.5 15t-43 43l-40.5 59t-59.5 70.5t-87.5 71.5l20 29q47 -30 81.5 -43t81.5 -13q60 0 96.5 28t36.5 79t-28.5 75t-112.5 47q-84 22 -120 54.5t-36 86.5q0 58 48 95.5t121 37.5q89 0 162 -57l-23 -31q-67 49 -138 49
q-55 0 -89 -25.5t-34 -69.5q0 -40 29 -62t103 -42q90 -24 128 -57.5t38 -98.5q0 -67 -51.5 -108t-125.5 -41q-28 0 -61 9q30 -26 59 -69.5t51 -67.5t51 -24q30 0 59 17z" />
    <glyph glyph-name="uni0240" unicode="&#x240;" horiz-adv-x="409" 
d="M353 -203q-37 0 -65.5 18.5t-50 46.5l-45.5 56.5t-65.5 52t-97.5 29.5v36l299 445h-275v41h329v-37l-306 -454q47 -9 84.5 -32t60 -50l42 -52.5t42.5 -42.5t50 -17q30 0 57 17l19 -30q-34 -27 -78 -27z" />
    <glyph glyph-name="uni0241" unicode="&#x241;" horiz-adv-x="459" 
d="M160 0v300l72 18q71 18 107 56.5t36 116.5q0 73 -41.5 117.5t-115.5 44.5q-90 0 -172 -72l-29 30q94 83 203 83q94 0 149 -56.5t55 -145.5q0 -97 -47.5 -143.5t-130.5 -67.5l-39 -9v-272h-47z" />
    <glyph glyph-name="uni0242" unicode="&#x242;" horiz-adv-x="423" 
d="M130 0v181l72 19q125 32 125 150q0 63 -39 102t-104 39q-75 0 -149 -57l-26 29q77 69 177 69q85 0 137.5 -51t52.5 -130q0 -149 -160 -187l-40 -10v-154h-46z" />
    <glyph glyph-name="uni0243" unicode="&#x243;" horiz-adv-x="594" 
d="M380 363q69 -7 113.5 -49.5t44.5 -125.5q0 -92 -62.5 -140t-175.5 -48h-185v177h-91v39h91v468h149q116 0 178.5 -43t62.5 -127q0 -65 -33.5 -103t-91.5 -48zM269 643h-107v-263h150q65 0 104.5 35t39.5 96q0 132 -187 132zM301 41q187 0 187 147q0 76 -46.5 114
t-123.5 38h-156v-124h182v-39h-182v-136h139z" />
    <glyph glyph-name="uni0244" unicode="&#x244;" horiz-adv-x="669" 
d="M618 551v-36h-64v-304q0 -101 -55.5 -161.5t-163.5 -60.5t-163.5 60.5t-55.5 161.5v304h-65v36h65v133h47v-133h343v133h48v-133h64zM506 215v300h-343v-300q0 -87 42.5 -135t129.5 -48t129 48.5t42 134.5z" />
    <glyph glyph-name="uni0245" unicode="&#x245;" horiz-adv-x="562" 
d="M311 684l231 -684h-51l-210 645l-213 -645h-48l231 684h60z" />
    <glyph glyph-name="uni0246" unicode="&#x246;" horiz-adv-x="504" 
d="M460 41v-41h-242l-18 -70l-29 7l17 63h-73v684h252l16 59l28 -8l-13 -51h56l-6 -41h-61l-70 -266h92v-41h-103l-77 -295h231zM162 643v-266h125l70 266h-195zM162 41h36l78 295h-114v-295z" />
    <glyph glyph-name="uni0247" unicode="&#x247;" horiz-adv-x="533" 
d="M469 241h-194l-54 -199q30 -12 65 -12q74 0 142 53l23 -30q-77 -64 -167 -64q-40 0 -75 12l-19 -71l-27 7l21 75q-117 62 -117 245q0 126 55.5 200.5t149.5 74.5q29 0 53 -6l18 65l26 -8l-18 -65q120 -50 120 -236q0 -21 -2 -41zM274 493q-68 0 -111.5 -53.5
t-47.5 -161.5h142l58 210q-22 5 -41 5zM426 297q0 142 -85 182l-56 -201h141v19zM196 55l51 186h-132q7 -136 81 -186z" />
    <glyph glyph-name="uni0248" unicode="&#x248;" horiz-adv-x="297" 
d="M280 363v-40h-103v-233q0 -84 -31 -125.5t-117 -77.5l-13 35q68 31 90.5 66t22.5 105v230h-107v40h107v321h48v-321h103z" />
    <glyph glyph-name="uni0249" unicode="&#x249;" horiz-adv-x="295" 
d="M150 674q-16 0 -26 10t-10 25t10 25t26 10t26 -10t10 -25t-10 -25t-26 -10zM276 265v-39h-103v-212q0 -96 -29 -138t-102 -76l-13 33q56 28 77 63t21 117v213h-108v39h108v257h46v-257h103z" />
    <glyph glyph-name="uni024A" unicode="&#x24a;" horiz-adv-x="656" 
d="M687 -139l20 -31q-43 -33 -97 -33q-53 0 -84.5 32.5t-31.5 94.5v137q-66 -72 -169 -72q-111 0 -183 89t-72 251q0 172 72 268.5t184 96.5q104 0 170 -72l4 62h42v-760q0 -86 69 -86q41 0 76 23zM327 31q104 0 167 77v468q-62 77 -165 77q-93 0 -151 -82.5t-58 -241.5
q0 -146 58 -222t149 -76z" />
    <glyph glyph-name="uni024B" unicode="&#x24b;" horiz-adv-x="581" 
d="M554 -155l13 -35q-28 -13 -56 -13q-40 0 -63 24t-23 72v186q-55 -90 -158 -90q-90 0 -142.5 72.5t-52.5 197.5q0 123 55 198t150 75q91 0 150 -75l4 65h40v-630q0 -55 46 -55q18 0 37 8zM273 29q53 0 88.5 25.5t63.5 76.5v280q-56 82 -142 82q-72 0 -118 -62.5
t-45 -171.5q1 -110 41.5 -170t111.5 -60z" />
    <glyph glyph-name="uni024C" unicode="&#x24c;" horiz-adv-x="584" 
d="M548 0h-57l-181 313h-148v-313h-47v313h-91v40h91v331h161q237 0 237 -183q0 -143 -154 -180zM283 353q180 0 180 148q0 72 -44.5 107t-145.5 35h-111v-290h121z" />
    <glyph glyph-name="uni024D" unicode="&#x24d;" horiz-adv-x="383" 
d="M317 532q34 0 52 -6l-9 -43q-20 6 -46 6q-55 0 -88.5 -39.5t-55.5 -123.5v-26h107v-36h-107v-264h-46v264h-105v36h105v222h40l3 -121q42 131 150 131z" />
    <glyph glyph-name="uni024E" unicode="&#x24e;" horiz-adv-x="513" 
d="M497 684l-48 -93h48v-35h-67l-149 -287v-269h-47v268l-151 288h-66v35h48l-49 93h53l47 -93h283l46 93h52zM259 310l122 246h-247z" />
    <glyph glyph-name="uni024F" unicode="&#x24f;" horiz-adv-x="462" 
d="M443 522l-48 -139h47v-35h-59l-121 -350q-31 -91 -73 -135t-129 -64l-6 36q74 20 104.5 53.5t59.5 111.5h-16l-123 348h-60v35h48l-49 139h50l47 -139h232l46 139h50zM233 35l103 313h-209z" />
    <glyph glyph-name="uni0250" unicode="&#x250;" horiz-adv-x="534" 
d="M280 30q63 0 142 31l13 -37q-87 -34 -159 -34q-167 0 -167 162v257q0 44 -10.5 63t-33.5 28l11 33q34 -9 51.5 -30t21.5 -62q57 92 165 92q74 0 117 -42.5t43 -113.5q0 -80 -57 -123.5t-155 -43.5h-107v-55q0 -65 29 -95t96 -30zM308 494q-101 0 -153 -99v-149h100
q82 0 126 32.5t44 97.5q0 56 -31 87t-86 31z" />
    <glyph glyph-name="uni0251" unicode="&#x251;" horiz-adv-x="580" 
d="M466 116q0 -40 10.5 -57.5t37.5 -28.5l-15 -37q-37 12 -54.5 32.5t-22.5 56.5q-54 -93 -155 -93q-93 0 -146.5 72.5t-53.5 197.5q0 122 56.5 197.5t150.5 75.5q93 0 148 -75l4 65h40v-406zM271 29q50 0 85.5 26t63.5 78v277q-56 83 -141 83q-74 0 -119.5 -62t-44.5 -172
t42 -170t114 -60z" />
    <glyph glyph-name="uni0252" unicode="&#x252;" horiz-adv-x="580" 
d="M313 533q93 0 146.5 -72.5t53.5 -197.5q0 -122 -56.5 -197.5t-150.5 -75.5q-93 0 -148 75l-4 -65h-40v406q0 40 -10.5 57.5t-37.5 28.5l15 37q37 -12 54.5 -32.5t22.5 -56.5q54 93 155 93zM301 29q74 0 119.5 62t44.5 172t-42 170t-114 60q-50 0 -85.5 -26t-63.5 -78
v-277q56 -83 141 -83z" />
    <glyph glyph-name="uni0253" unicode="&#x253;" horiz-adv-x="576" 
d="M316 532q90 0 139.5 -69.5t49.5 -198.5q0 -128 -51.5 -201.5t-144.5 -73.5q-94 0 -154 80l-5 -69h-40v612q0 60 37 94.5t101 34.5q62 0 120 -28l-16 -35q-52 23 -101 23q-95 0 -95 -91v-163q65 85 160 85zM302 29q74 0 114 60t40 175q0 229 -147 229q-49 0 -84.5 -23.5
t-68.5 -68.5v-286q58 -86 146 -86z" />
    <glyph glyph-name="uni0254" unicode="&#x254;" horiz-adv-x="465" 
d="M186 -11q-85 0 -152 58l24 30q57 -47 128 -48q76 0 120 60.5t44 173.5q0 112 -41.5 170.5t-116.5 58.5q-69 0 -131 -44l-23 30q66 54 155 54q95 0 150 -70.5t55 -198.5q0 -127 -57.5 -200.5t-154.5 -73.5z" />
    <glyph glyph-name="uni0255" unicode="&#x255;" horiz-adv-x="477" 
d="M342 212q50 0 78 -27.5t28 -71.5q0 -57 -43 -90.5t-116 -33.5q-50 0 -95 20l-34 -71l-35 15l36 75q-94 70 -94 230q0 126 59.5 200t158.5 74q82 0 143 -51l-24 -32q-51 43 -117 43q-78 0 -124.5 -60t-46.5 -174q0 -131 64 -189q36 78 73 110.5t89 32.5zM292 30
q49 0 81 20t32 63q0 61 -64 61q-40 0 -67.5 -26.5t-62.5 -99.5q36 -18 81 -18z" />
    <glyph glyph-name="uni0256" unicode="&#x256;" horiz-adv-x="581" 
d="M618 -140l20 -30q-43 -33 -97 -33q-53 0 -84.5 32.5t-31.5 94.5v157q-53 -92 -159 -92q-89 0 -141.5 72.5t-52.5 197.5q0 123 54.5 198t149.5 75q92 0 149 -73v282l46 -6v-812q0 -86 71 -86q41 0 76 23zM272 29q53 0 88.5 26t64.5 78v277q-56 83 -143 83
q-74 0 -118.5 -62t-43.5 -172t41.5 -170t110.5 -60z" />
    <glyph glyph-name="uni0257" unicode="&#x257;" horiz-adv-x="581" 
d="M540 741q55 0 98 -33l-20 -30q-39 24 -77 24q-70 0 -70 -87v-615h-40l-5 82q-54 -93 -160 -93q-89 0 -141.5 72.5t-52.5 197.5q0 123 54.5 198t149.5 75q92 0 149 -73v155q0 62 31 94.5t84 32.5zM272 29q53 0 88.5 26t64.5 78v277q-56 83 -143 83q-74 0 -118.5 -62
t-43.5 -172t41.5 -170t110.5 -60z" />
    <glyph glyph-name="uni0258" unicode="&#x258;" horiz-adv-x="533" 
d="M263 532q99 0 151 -71t52 -204q0 -125 -58.5 -196.5t-158.5 -71.5q-90 0 -167 64l23 30q68 -53 145 -53q74 0 118.5 52t49.5 159h-354q-2 20 -2 41q0 115 52 182.5t149 67.5zM107 297v-19h311q-4 114 -43.5 164.5t-111.5 50.5q-76 0 -116 -53.5t-40 -142.5z" />
    <glyph glyph-name="uni0259" unicode="&#x259;" horiz-adv-x="538" 
d="M267 532q99 0 152 -68.5t53 -199.5q0 -134 -56 -204.5t-152 -70.5q-94 0 -148 68.5t-54 187.5q0 26 2 36h360q-4 107 -45 159t-113 52q-76 0 -147 -50l-22 32q75 58 170 58zM264 29q154 0 160 214h-316v-5q0 -100 41 -154.5t115 -54.5z" />
    <glyph glyph-name="uni025A" unicode="&#x25a;" horiz-adv-x="706" 
d="M713 389l21 -30q-45 -33 -99 -33q-53 0 -83 31t-30 90v34l-87 -42q37 -68 37 -175q0 -134 -56 -204.5t-152 -70.5q-94 0 -148 68.5t-54 187.5q0 26 2 36h360q-4 107 -45 159t-113 52q-76 0 -147 -50l-22 32q75 58 170 58t147 -63l108 53h44v-71q0 -86 71 -86q37 0 76 24z
M264 29q154 0 160 214h-316v-5q0 -100 41 -154.5t115 -54.5z" />
    <glyph glyph-name="uni025B" unicode="&#x25b;" horiz-adv-x="457" 
d="M259 532q90 0 157 -46l-24 -30q-58 37 -130 37q-60 0 -93.5 -26.5t-33.5 -73.5q0 -44 35.5 -72.5t94.5 -28.5h59l-6 -38h-57q-146 0 -146 -113q0 -53 38.5 -82.5t103.5 -29.5q49 0 82 13t68 41l24 -31q-75 -63 -176 -63q-84 0 -136 40t-52 111q0 120 131 136
q-110 24 -110 119q0 63 47.5 100t123.5 37z" />
    <glyph glyph-name="uni025C" unicode="&#x25c;" horiz-adv-x="476" 
d="M219 532q72 0 118 -36.5t46 -99.5q0 -96 -110 -118q137 -13 137 -128q0 -78 -53 -119.5t-139 -41.5q-112 0 -192 69l26 29q71 -58 164 -58q145 0 145 121q0 105 -159 105h-59l3 38h49q67 0 104 26.5t37 75.5q0 46 -32 72t-88 26q-46 0 -78.5 -10.5t-71.5 -34.5l-23 30
q79 54 176 54z" />
    <glyph glyph-name="uni025D" unicode="&#x25d;" horiz-adv-x="645" 
d="M652 389l21 -30q-45 -33 -99 -33q-53 0 -83 31t-30 90v34l-85 -41q7 -20 7 -44q0 -96 -110 -118q137 -13 137 -128q0 -78 -53 -119.5t-139 -41.5q-112 0 -192 69l26 29q71 -58 164 -58q145 0 145 121q0 105 -159 105h-59l3 38h49q67 0 104 26.5t37 75.5q0 46 -32 72
t-88 26q-46 0 -78.5 -10.5t-71.5 -34.5l-23 30q79 54 176 54t140 -60l102 50h44v-71q0 -86 71 -86q37 0 76 24z" />
    <glyph glyph-name="uni025E" unicode="&#x25e;" horiz-adv-x="553" 
d="M291 -11q-108 0 -166 72t-58 199q0 128 59.5 200t164.5 72q75 0 122 -38t47 -101q0 -93 -110 -115q137 -13 137 -128q0 -77 -53 -119t-143 -42zM291 29q148 0 148 121q0 105 -157 105h-37l4 38h25q66 0 102.5 26.5t36.5 73.5q0 45 -32 72.5t-90 27.5q-84 0 -130 -59.5
t-46 -173.5q0 -113 44.5 -172t131.5 -59z" />
    <glyph glyph-name="uni025F" unicode="&#x25f;" horiz-adv-x="295" 
d="M276 265v-39h-103v-212q0 -96 -29 -138t-102 -76l-13 33q56 28 77 63t21 117v213h-108v39h108v257h46v-257h103z" />
    <glyph glyph-name="uni0260" unicode="&#x260;" horiz-adv-x="581" 
d="M540 741q55 0 98 -33l-20 -30q-39 24 -77 24q-70 0 -70 -87v-619q0 -97 -45.5 -148t-146.5 -51q-83 0 -145 37l17 32q60 -29 126 -29q82 0 115 37.5t33 119.5v107q-53 -92 -159 -92q-89 0 -141.5 71t-52.5 189q0 116 55 189.5t149 73.5q92 0 149 -73v155q0 62 31 94.5
t84 32.5zM272 49q53 0 88.5 26t64.5 78v257q-56 83 -143 83q-73 0 -118 -60.5t-44 -163.5t41.5 -161.5t110.5 -58.5z" />
    <glyph glyph-name="uni0261" unicode="&#x261;" horiz-adv-x="581" 
d="M431 522h40v-526q0 -97 -45.5 -148t-146.5 -51q-83 0 -145 37l17 32q60 -29 126 -29q82 0 115 37.5t33 119.5v107q-53 -92 -159 -92q-89 0 -141.5 71t-52.5 189q0 116 55 189.5t149 73.5q93 0 151 -76zM272 49q53 0 88.5 26t64.5 78v257q-56 83 -143 83q-73 0 -118 -60.5
t-44 -163.5t41.5 -161.5t110.5 -58.5z" />
    <glyph glyph-name="uni0262" unicode="&#x262;" horiz-adv-x="553" 
d="M297 534q89 0 159 -55l-27 -30q-60 44 -131 44q-76 0 -129.5 -57t-53.5 -171q0 -120 48 -177t135 -57q69 0 122 28v184h-116l-5 39h167v-246q-78 -45 -168 -45q-108 0 -169.5 69t-61.5 205q0 125 68 197t162 72z" />
    <glyph glyph-name="uni0263" unicode="&#x263;" horiz-adv-x="459" 
d="M442 522l-186 -472q59 -111 59 -169q0 -38 -22.5 -61t-62.5 -23q-39 0 -61.5 23t-22.5 61q0 53 59 168l-188 473h50l163 -438l162 438h50zM271 -117q0 43 -41 133q-41 -93 -41 -133q0 -48 41 -48t41 48z" />
    <glyph glyph-name="uni0264" unicode="&#x264;" horiz-adv-x="516" 
d="M445 532q36 0 68 -25l-18 -29q-24 16 -48 16q-31 0 -54 -48l-108 -231q60 -97 60 -143q0 -36 -22.5 -59.5t-62.5 -23.5q-39 0 -61.5 23t-22.5 60q0 48 57 143l-110 231q-22 48 -54 48q-24 0 -48 -16l-17 29q30 25 67 25q33 0 55 -19.5t42 -62.5l91 -204l90 204
q19 44 40.5 63t55.5 19zM302 74q0 29 -37 97q-4 7 -6 11q-40 -74 -40 -108q0 -47 41 -47q42 0 42 47z" />
    <glyph glyph-name="uni0265" unicode="&#x265;" horiz-adv-x="583" 
d="M427 522h46v-725l-46 8v287q-74 -103 -179 -103q-70 0 -106.5 42.5t-36.5 118.5v372h46v-366q0 -128 104 -128q95 0 172 113v381z" />
    <glyph glyph-name="uni0266" unicode="&#x266;" horiz-adv-x="583" 
d="M335 532q70 0 106.5 -42t36.5 -118v-372h-46v366q0 128 -104 128q-95 0 -172 -113v-381h-46v612q0 60 37 94.5t101 34.5q62 0 120 -28l-16 -35q-52 23 -101 23q-95 0 -95 -91v-180q74 102 179 102z" />
    <glyph glyph-name="uni0267" unicode="&#x267;" horiz-adv-x="583" 
d="M335 532q70 0 106.5 -42t36.5 -118v-448q0 -62 -31.5 -94.5t-84.5 -32.5q-54 0 -97 33l20 30q35 -23 76 -23q71 0 71 86v443q0 128 -104 128q-95 0 -172 -113v-381h-46v612q0 60 37 94.5t101 34.5q62 0 120 -28l-16 -35q-52 23 -101 23q-95 0 -95 -91v-180
q74 102 179 102z" />
    <glyph glyph-name="uni0268" unicode="&#x268;" horiz-adv-x="295" 
d="M147 674q-16 0 -26 10t-10 25t10 25t26 10t26 -10t10 -25t-10 -25t-26 -10zM277 302v-39h-107v-263h-46v263h-105v39h105v220h46v-220h107z" />
    <glyph glyph-name="uni0269" unicode="&#x269;" horiz-adv-x="281" 
d="M191 -11q-40 0 -63 23.5t-23 69.5v440h46v-438q0 -54 45 -54q18 0 37 7l13 -35q-28 -13 -55 -13z" />
    <glyph glyph-name="uni026A" unicode="&#x26a;" horiz-adv-x="315" 
d="M286 483h-106v-444h106v-39h-257v39h105v444h-105v39h257v-39z" />
    <glyph glyph-name="uni026B" unicode="&#x26b;" horiz-adv-x="314" 
d="M235 313q-24 0 -58 15v-244q0 -54 45 -54q18 0 37 7l13 -35q-28 -13 -55 -13q-40 0 -63 23.5t-23 69.5v271q-30 16 -50 16q-36 0 -69 -44l-30 16q21 33 44 51t58 18q22 0 47 -10v335l46 6v-365q38 -22 60 -22t36 10t31 32l29 -16q-20 -32 -42 -49.5t-56 -17.5z" />
    <glyph glyph-name="uni026C" unicode="&#x26c;" horiz-adv-x="316" 
d="M271 37l13 -35q-28 -13 -55 -13q-40 0 -63 23.5t-23 69.5v188q-127 2 -127 94q0 40 28 64.5t70 24.5q5 0 29 -3v285l46 6v-435q34 1 84 10l5 -33q-48 -10 -89 -11v-188q0 -54 45 -54q18 0 37 7zM57 365q0 -59 86 -59v109q-16 2 -27 2q-59 0 -59 -52z" />
    <glyph glyph-name="uni026D" unicode="&#x26d;" horiz-adv-x="266" 
d="M303 -140l20 -30q-43 -33 -97 -33q-53 0 -84.5 32.5t-31.5 94.5v811l46 6v-818q0 -86 71 -86q41 0 76 23z" />
    <glyph glyph-name="uni026E" unicode="&#x26e;" horiz-adv-x="617" 
d="M349 198q235 0 235 -196q0 -91 -58 -148t-157 -57q-105 0 -181 73l27 27q65 -59 153 -59q81 0 124.5 44t43.5 120q0 84 -45.5 121t-144.5 37h-58v38l216 283h-353v-397q0 -54 45 -54q18 0 37 7l13 -35q-28 -13 -55 -13q-40 0 -63 23.5t-23 69.5v653l46 6v-219h408v-37
l-221 -287h11z" />
    <glyph glyph-name="uni026F" unicode="&#x26f;" horiz-adv-x="851" 
d="M695 522h46v-522h-40l-4 92q-67 -102 -164 -102q-50 0 -83.5 28t-44.5 79q-70 -107 -167 -107q-63 0 -98 42.5t-35 117.5v372h46v-366q0 -128 94 -128q85 0 155 113v381h46v-366q0 -128 94 -128q85 0 155 113v381z" />
    <glyph glyph-name="uni0270" unicode="&#x270;" horiz-adv-x="851" 
d="M695 522h46v-725l-46 8v284q-67 -99 -162 -99q-50 0 -83.5 28t-44.5 79q-70 -107 -167 -107q-63 0 -98 42.5t-35 117.5v372h46v-366q0 -128 94 -128q85 0 155 113v381h46v-366q0 -128 94 -128q85 0 155 113v381z" />
    <glyph glyph-name="uni0271" unicode="&#x271;" horiz-adv-x="851" 
d="M613 532q63 0 98 -42.5t35 -117.5v-448q0 -62 -31.5 -94.5t-84.5 -32.5q-54 0 -97 33l20 30q35 -23 76 -23q71 0 71 86v443q0 128 -94 128q-85 0 -155 -113v-381h-46v366q0 128 -94 128q-85 0 -155 -113v-381h-46v522h40l4 -92q67 102 164 102q50 0 83.5 -28t44.5 -79
q70 107 167 107z" />
    <glyph glyph-name="uni0272" unicode="&#x272;" horiz-adv-x="583" 
d="M335 532q71 0 107 -41.5t36 -118.5v-372h-46v366q0 128 -104 128q-95 0 -172 -113v-457q0 -62 -31.5 -94.5t-84.5 -32.5q-54 0 -97 33l20 30q35 -23 76 -23q71 0 71 86v599h40l4 -93q74 103 181 103z" />
    <glyph glyph-name="uni0273" unicode="&#x273;" horiz-adv-x="583" 
d="M625 -140l20 -30q-43 -33 -97 -33q-53 0 -84.5 32.5t-31.5 94.5v442q0 128 -104 128q-95 0 -172 -113v-381h-46v522h40l4 -93q74 103 181 103q71 0 107 -41.5t36 -118.5v-449q0 -86 71 -86q41 0 76 23z" />
    <glyph glyph-name="uni0274" unicode="&#x274;" horiz-adv-x="588" 
d="M478 522v-522h-60l-270 477q5 -75 5 -202v-275h-43v522h59l270 -477q-5 85 -5 169v308h44z" />
    <glyph glyph-name="uni0275" unicode="&#x275;" horiz-adv-x="567" 
d="M284 532q102 0 159 -70.5t57 -198.5t-58 -201t-159 -73t-158.5 72.5t-57.5 198.5q0 127 58.5 199.5t158.5 72.5zM284 493q-75 0 -119.5 -53.5t-48.5 -155.5h336q-4 102 -48 155.5t-120 53.5zM283 29q77 0 121 55.5t48 161.5h-337q3 -105 47 -161t121 -56z" />
    <glyph glyph-name="uni0276" unicode="&#x276;" horiz-adv-x="720" 
d="M678 39v-39h-329q-33 -11 -66 -11q-101 0 -158.5 72.5t-57.5 198.5q0 127 58.5 199.5t158.5 72.5q37 0 68 -10h321l-5 -39h-256q79 -54 88 -191h135v-38h-134q-3 -152 -93 -215h270zM115 260q0 -111 44 -171t124 -60q79 0 124.5 61t45.5 175q0 110 -46 168.5t-123 58.5
q-79 0 -124 -59.5t-45 -172.5z" />
    <glyph glyph-name="uni0277" unicode="&#x277;" horiz-adv-x="746" 
d="M374 532q154 0 229.5 -79t75.5 -217q0 -132 -49 -189.5t-123 -57.5q-56 0 -91.5 30t-42.5 92q-22 -122 -137 -122q-78 0 -123.5 61t-45.5 188q0 137 76.5 215.5t230.5 78.5zM502 29q130 0 130 206q0 258 -258 258q-132 0 -196 -66.5t-64 -190.5q0 -207 125 -207
q111 0 111 150v130l45 7v-138q0 -149 107 -149z" />
    <glyph glyph-name="uni0278" unicode="&#x278;" horiz-adv-x="622" 
d="M569 263q0 -119 -61 -186t-174 -71v-201l-46 -8v209q-113 4 -174 71.5t-61 184.5q0 114 61.5 182t173.5 72v219l46 6v-225q113 -4 174 -71t61 -182zM102 262q0 -102 48.5 -157.5t139.5 -59.5v433q-91 -5 -139.5 -60.5t-48.5 -155.5zM333 44q91 5 139 60t48 159
q0 100 -48 154.5t-139 59.5v-433z" />
    <glyph glyph-name="uni0279" unicode="&#x279;" horiz-adv-x="369" 
d="M213 522h46v-522h-40l-3 121q-42 -131 -150 -131q-34 0 -52 6l9 43q19 -6 46 -6q55 0 88.5 39.5t55.5 123.5v326z" />
    <glyph glyph-name="uni027A" unicode="&#x27a;" horiz-adv-x="369" 
d="M213 741l46 -6v-735h-40l-3 121q-42 -131 -150 -131q-34 0 -52 6l9 43q19 -6 46 -6q55 0 88.5 39.5t55.5 123.5v545z" />
    <glyph glyph-name="uni027B" unicode="&#x27b;" horiz-adv-x="369" 
d="M406 -140l20 -30q-43 -33 -97 -33q-53 0 -84.5 32.5t-31.5 94.5v187q-44 -122 -147 -122q-28 0 -52 6l9 44q19 -6 46 -6q54 0 88 39.5t56 123.5v326h46v-599q0 -86 71 -86q41 0 76 23z" />
    <glyph glyph-name="uni027C" unicode="&#x27c;" horiz-adv-x="369" 
d="M303 532q34 0 52 -6l-9 -43q-19 6 -46 6q-55 0 -88.5 -39.5t-55.5 -123.5v-521l-46 -8v725h40l3 -121q42 131 150 131z" />
    <glyph glyph-name="uni027D" unicode="&#x27d;" horiz-adv-x="369" 
d="M156 -77q0 -86 71 -86q41 0 76 23l20 -30q-43 -33 -97 -33q-53 0 -84.5 32.5t-31.5 94.5v598h40l3 -121q42 131 150 131q34 0 52 -6l-9 -43q-19 6 -46 6q-55 0 -88.5 -39.5t-55.5 -123.5v-403z" />
    <glyph glyph-name="uni027E" unicode="&#x27e;" horiz-adv-x="335" 
d="M221 533q54 0 97 -33l-20 -30q-35 23 -76 23q-71 0 -71 -86v-407h-46v406q0 62 31.5 94.5t84.5 32.5z" />
    <glyph glyph-name="uni027F" unicode="&#x27f;" horiz-adv-x="335" 
d="M114 533q53 0 84.5 -32.5t31.5 -94.5v-406h-46v407q0 86 -71 86q-41 0 -76 -23l-20 30q43 33 97 33z" />
    <glyph glyph-name="uni0280" unicode="&#x280;" horiz-adv-x="523" 
d="M466 0h-54l-144 222q-7 -1 -24 -1h-88v-221h-46v522h127q205 0 205 -151q0 -55 -33 -92.5t-95 -50.5zM156 259h89q149 0 149 112q0 57 -37.5 84.5t-121.5 27.5h-79v-224z" />
    <glyph glyph-name="uni0281" unicode="&#x281;" horiz-adv-x="523" 
d="M315 294q62 -13 94.5 -50t32.5 -92q0 -152 -205 -152h-127v522h46v-221h88q17 0 25 -1l143 222h54zM235 39q84 0 121.5 28t37.5 85q0 110 -149 110h-89v-223h79z" />
    <glyph glyph-name="uni0282" unicode="&#x282;" horiz-adv-x="463" 
d="M228 -11q-79 0 -139 39v-105q0 -86 73 -86q39 0 74 23l21 -30q-43 -33 -97 -33t-85 32.5t-31 94.5v132l23 26q76 -53 159 -53q60 0 97.5 28.5t37.5 78.5q0 51 -28.5 75t-112.5 47q-84 22 -120 54.5t-36 86.5q0 58 48 95.5t121 37.5q89 0 162 -57l-23 -32q-66 50 -138 50
q-55 0 -89 -25.5t-34 -69.5q0 -40 29 -62t103 -42q90 -24 128 -57.5t38 -98.5q0 -68 -51.5 -108.5t-129.5 -40.5z" />
    <glyph glyph-name="uni0283" unicode="&#x283;" horiz-adv-x="266" 
d="M225 741q55 0 98 -33l-20 -30q-39 24 -77 24q-70 0 -70 -87v-691q0 -62 -31.5 -94.5t-84.5 -32.5q-54 0 -97 33l20 30q35 -23 76 -23q71 0 71 86v691q0 62 31 94.5t84 32.5z" />
    <glyph glyph-name="uni0284" unicode="&#x284;" horiz-adv-x="295" 
d="M173 37h106v-37h-106q-2 -88 -31 -127t-100 -73l-13 33q37 19 55.5 36t30 48t12.5 83h-105v37h105v577q0 62 31 94.5t84 32.5q55 0 98 -33l-20 -30q-39 24 -77 24q-70 0 -70 -87v-578z" />
    <glyph glyph-name="uni0285" unicode="&#x285;" horiz-adv-x="388" 
d="M364 52l20 -30q-43 -33 -97 -33q-53 0 -84.5 32.5t-31.5 94.5v290q0 87 -70 87q-38 0 -77 -24l-20 30q43 33 98 33q53 0 84 -32.5t31 -94.5v-290q0 -86 71 -86q41 0 76 23z" />
    <glyph glyph-name="uni0286" unicode="&#x286;" horiz-adv-x="280" 
d="M171 521h-1l1 -541q67 -20 103 -38l-14 -29q-47 21 -90 32q-11 -148 -140 -148q-52 0 -82.5 26t-30.5 68q0 49 35.5 76.5t94.5 27.5q47 0 77 -6v533h1v92q0 62 31 94.5t84 32.5q55 0 98 -33l-20 -30q-39 24 -77 24q-70 0 -70 -87v-94zM30 -167q47 0 70 29t24 93
q-42 7 -76 7q-43 0 -66.5 -18t-23.5 -51q0 -60 72 -60z" />
    <glyph glyph-name="uni0287" unicode="&#x287;" horiz-adv-x="334" 
d="M313 39v-39h-87v-127l-46 -5v132h-138l6 39h132v357q0 96 -81 96q-42 0 -84 -24l-19 33q50 32 108 32q57 0 89.5 -34t32.5 -100v-360h87z" />
    <glyph glyph-name="uni0288" unicode="&#x288;" horiz-adv-x="334" 
d="M301 -140l20 -30q-43 -33 -97 -33q-53 0 -84.5 32.5t-31.5 94.5v559h-87v39h87v127l46 5v-132h138l-6 -39h-132v-560q0 -86 71 -86q41 0 76 23z" />
    <glyph glyph-name="uni0289" unicode="&#x289;" horiz-adv-x="601" 
d="M565 383v-36h-88v-347h-39l-3 97q-61 -108 -173 -108q-71 0 -109.5 41.5t-38.5 118.5v198h-88v36h88v139h46v-139h271v139h46v-139h88zM431 141v206h-271v-194q0 -124 111 -124q96 0 160 112z" />
    <glyph glyph-name="uni028A" unicode="&#x28a;" horiz-adv-x="566" 
d="M283 -11q-99 0 -157.5 67.5t-58.5 181.5q0 145 101 244h-91v40h137v-39q-99 -107 -99 -244q0 -102 44.5 -156t123.5 -54t123.5 54t44.5 156q0 137 -99 244v39h137v-40h-91q101 -95 101 -244q0 -113 -58.5 -181t-157.5 -68z" />
    <glyph glyph-name="uni028B" unicode="&#x28b;" horiz-adv-x="571" 
d="M269 -11q-72 0 -118 44t-46 125v364h46v-361q0 -67 32.5 -99.5t87.5 -32.5q70 0 115 53.5t45 173.5v181q0 56 -45 56q-20 0 -38 -8l-13 35q26 12 56 12q86 0 86 -96v-178q0 -135 -56.5 -202t-151.5 -67z" />
    <glyph glyph-name="uni028C" unicode="&#x28c;" horiz-adv-x="462" 
d="M17 0l181 522h58l189 -522h-51l-167 482l-160 -482h-50z" />
    <glyph glyph-name="uni028D" unicode="&#x28d;" horiz-adv-x="692" 
d="M28 0l130 522h62l125 -478l125 478h61l134 -522h-49l-117 484l-128 -484h-54l-128 485l-116 -485h-45z" />
    <glyph glyph-name="uni028E" unicode="&#x28e;" horiz-adv-x="459" 
d="M17 0l182 524q36 106 76 152t126 66l5 -36q-72 -20 -102.5 -56.5t-61.5 -127.5h17l183 -522h-50l-165 487l-160 -487h-50z" />
    <glyph glyph-name="uni028F" unicode="&#x28f;" horiz-adv-x="416" 
d="M408 522l-176 -314v-208h-46v207l-179 315h49l154 -277l149 277h49z" />
    <glyph glyph-name="uni0290" unicode="&#x290;" horiz-adv-x="417" 
d="M526 -140l20 -30q-43 -33 -97 -33q-53 0 -84 32.5t-31 94.5v76h-305v36l299 445h-275v41h329v-37l-298 -444h295v-118q0 -86 71 -86q41 0 76 23z" />
    <glyph glyph-name="uni0291" unicode="&#x291;" horiz-adv-x="432" 
d="M452 110q0 -57 -45 -83.5t-142 -26.5q-3 -50 -1 -107h-38q-1 35 1 107h-198v36l299 445h-275v41h329v-37l-298 -444h147q8 76 41 118t87 42q41 0 67 -24.5t26 -66.5zM356 165q-73 0 -86 -124q76 -1 108 15t32 54q0 26 -14 40.5t-40 14.5z" />
    <glyph glyph-name="uni0292" unicode="&#x292;" horiz-adv-x="454" 
d="M189 198q232 0 232 -195q0 -92 -58 -149t-156 -57q-115 0 -192 85l29 26q67 -70 162 -70q81 0 123.5 44.5t42.5 121.5q0 83 -45.5 119.5t-143.5 36.5h-58v38l216 283h-306v41h361v-37l-221 -287h14z" />
    <glyph glyph-name="uni0293" unicode="&#x293;" horiz-adv-x="454" 
d="M421 7q0 -67 -35 -117t-100 -74l26 -56l-36 -15l-27 61q-39 -9 -85 -9q-87 0 -131.5 31t-44.5 87q0 45 29.5 74.5t78.5 29.5q55 0 94 -36t79 -130q104 37 104 154q0 80 -46 116.5t-144 36.5h-58v38l216 283h-306v41h361v-37l-221 -287h15q231 0 231 -191zM31 -84
q0 -78 134 -78q33 0 66 5q-34 81 -63.5 110t-69.5 29q-31 0 -49 -17.5t-18 -48.5z" />
    <glyph glyph-name="uni0294" unicode="&#x294;" horiz-adv-x="431" 
d="M133 0v337l64 17q68 19 108 56.5t40 117.5q0 79 -41.5 125.5t-118.5 46.5q-86 0 -160 -66l-28 27q86 80 190 80q96 0 151.5 -59t55.5 -154q0 -51 -15.5 -89.5t-44.5 -62t-57.5 -36.5t-66.5 -23l-31 -8v-309h-46z" />
    <glyph glyph-name="uni0295" unicode="&#x295;" horiz-adv-x="431" 
d="M298 0h-47v309l-30 8q-38 10 -66.5 23t-57.5 36.5t-45 62t-16 89.5q0 95 58 154t155 59q99 0 184 -80l-27 -27q-76 66 -155 66q-78 0 -122 -46.5t-44 -125.5q0 -80 40.5 -118t108.5 -56l64 -17v-337z" />
    <glyph glyph-name="uni0296" unicode="&#x296;" horiz-adv-x="497" 
d="M166 735l46 6v-315l34 -7q185 -40 185 -212q0 -94 -56.5 -153.5t-152.5 -59.5q-103 0 -188 80l27 28q75 -67 160 -67q77 0 119 46.5t42 125.5q0 81 -40.5 120t-108.5 55l-67 16v337z" />
    <glyph glyph-name="uni0297" unicode="&#x297;" horiz-adv-x="486" 
d="M310 532q77 0 138 -51l-24 -31q-51 42 -113 42q-80 0 -127.5 -86t-47.5 -246q0 -158 46.5 -242t124.5 -84q66 0 122 47l23 -33q-63 -55 -144 -55q-102 0 -161.5 96.5t-59.5 269.5t60 273t163 100z" />
    <glyph glyph-name="uni0298" unicode="&#x298;" horiz-adv-x="791" 
d="M395 694q148 0 237 -93t89 -260q0 -164 -88.5 -258t-237.5 -94q-147 0 -236 93.5t-89 257.5t89.5 259t235.5 95zM395 654q-127 0 -203 -81t-76 -233q0 -149 76 -230t203 -81q131 0 205.5 80.5t74.5 231.5q0 152 -75.5 232.5t-204.5 80.5zM395 376q16 0 26 -10t10 -25
t-10 -25t-26 -10t-26 10t-10 25t10 25t26 10z" />
    <glyph glyph-name="uni0299" unicode="&#x299;" horiz-adv-x="545" 
d="M350 283q61 -5 94.5 -37t33.5 -91q0 -75 -56 -115t-153 -40h-159v516q84 16 154 16q89 0 137 -37t48 -100q0 -45 -26.5 -74.5t-72.5 -37.5zM265 494q-48 0 -109 -9v-187h133q53 0 83 24.5t30 71.5q0 100 -137 100zM269 39q74 0 117.5 28.5t43.5 87.5q0 106 -136 106h-138
v-222h113z" />
    <glyph glyph-name="uni029A" unicode="&#x29a;" horiz-adv-x="553" 
d="M262 -11q-90 0 -143 42t-53 119q0 115 137 128q-110 22 -110 115q0 63 47 101t122 38q105 0 164.5 -72t59.5 -200q0 -127 -58 -199t-166 -72zM262 29q87 0 131.5 59t44.5 172q0 114 -46 173.5t-130 59.5q-58 0 -90 -27.5t-32 -72.5q0 -47 36.5 -73.5t102.5 -26.5h25
l4 -38h-37q-157 0 -157 -105q0 -121 148 -121z" />
    <glyph glyph-name="uni029B" unicode="&#x29b;" horiz-adv-x="553" 
d="M525 741q55 0 98 -33l-20 -30q-39 24 -76 24q-71 0 -71 -87v-136l-24 -26q-62 40 -134 40q-77 0 -130 -57t-53 -171q0 -120 48 -177t135 -57q69 0 122 28v184h-116l-5 39h167v-246q-78 -45 -168 -45q-108 0 -169.5 69t-61.5 205q0 125 68 197t162 72q62 0 113 -28v108
q0 62 31 94.5t84 32.5z" />
    <glyph glyph-name="uni029C" unicode="&#x29c;" horiz-adv-x="586" 
d="M430 0v251h-274v-251h-46v522h46v-231h274v231h46v-522h-46z" />
    <glyph glyph-name="uni029D" unicode="&#x29d;" horiz-adv-x="281" 
d="M148 674q-16 0 -26 10t-10 25t10 25t26 10t26 -10t10 -25t-10 -25t-26 -10zM274 -58l-14 -29q-47 21 -90 32q-4 -73 -39.5 -110.5t-98.5 -37.5q-53 0 -84 26.5t-31 67.5q0 49 35.5 76.5t94.5 27.5q48 0 78 -6v533h46v-542q67 -20 103 -38zM31 -166q46 0 69 29t25 92
q-35 7 -77 7q-43 0 -66.5 -18t-23.5 -51q0 -28 19 -43.5t54 -15.5z" />
    <glyph glyph-name="uni029E" unicode="&#x29e;" horiz-adv-x="480" 
d="M35 0l228 234l-252 288h56l251 -285l-229 -237h-54zM324 -195v717h46v-725z" />
    <glyph glyph-name="uni029F" unicode="&#x29f;" horiz-adv-x="409" 
d="M156 522v-481h242l-7 -41h-281v522h46z" />
    <glyph glyph-name="uni02A0" unicode="&#x2a0;" horiz-adv-x="581" 
d="M540 741q55 0 98 -33l-20 -30q-39 24 -77 24q-70 0 -70 -87v-818l-46 8v274q-55 -90 -158 -90q-90 0 -142.5 72.5t-52.5 197.5q0 123 55 198t150 75q91 0 148 -73v155q0 62 31 94.5t84 32.5zM273 29q53 0 88.5 25.5t63.5 76.5v280q-56 82 -142 82q-74 0 -119 -62
t-44 -172t41.5 -170t111.5 -60z" />
    <glyph glyph-name="uni02A1" unicode="&#x2a1;" horiz-adv-x="431" 
d="M210 317l-31 -8v-101h117v-39h-117v-169h-46v169h-68v39h68v129l64 17q68 19 108 56.5t40 117.5q0 79 -41.5 125.5t-118.5 46.5q-86 0 -160 -66l-28 27q86 80 190 80q96 0 151.5 -59t55.5 -154q0 -51 -15.5 -89.5t-44.5 -62t-57.5 -36.5t-66.5 -23z" />
    <glyph glyph-name="uni02A2" unicode="&#x2a2;" horiz-adv-x="431" 
d="M251 700q-78 0 -122 -46.5t-44 -125.5q0 -80 40.5 -118t108.5 -56l64 -17v-129h72v-39h-72v-169h-47v169h-112v39h112v101l-30 8q-38 10 -66.5 23t-57.5 36.5t-45 62t-16 89.5q0 95 58 154t155 59q99 0 184 -80l-27 -27q-76 66 -155 66z" />
    <glyph glyph-name="uni02A3" unicode="&#x2a3;" horiz-adv-x="866" 
d="M832 522v-37l-308 -444h304l-5 -41h-392l-5 82q-54 -93 -160 -93q-89 0 -141.5 72.5t-52.5 197.5q0 123 54.5 198t149.5 75q92 0 149 -73v282l46 -6v-213h361zM272 29q53 0 88.5 26t64.5 78v277q-56 83 -143 83q-74 0 -118.5 -62t-43.5 -172t41.5 -170t110.5 -60zM471 37
l307 444h-307v-444z" />
    <glyph glyph-name="uni02A4" unicode="&#x2a4;" horiz-adv-x="889" 
d="M624 198q232 0 232 -195q0 -92 -58 -149t-156 -57q-115 0 -192 85l29 26q67 -70 162 -70q81 0 123.5 44.5t42.5 121.5q0 83 -45.5 119.5t-143.5 36.5h-58v38l216 283h-305v-481h-40l-5 82q-54 -93 -160 -93q-89 0 -141.5 72.5t-52.5 197.5q0 123 54.5 198t149.5 75
q92 0 149 -73v282l46 -6v-213h360v-37l-221 -287h14zM272 29q53 0 88.5 26t64.5 78v277q-56 83 -143 83q-74 0 -118.5 -62t-43.5 -172t41.5 -170t110.5 -60z" />
    <glyph glyph-name="uni02A5" unicode="&#x2a5;" horiz-adv-x="874" 
d="M894 110q0 -57 -45 -83.5t-142 -26.5q-3 -50 -1 -107h-38q-1 47 2 107h-239l-5 82q-54 -93 -160 -93q-89 0 -141.5 72.5t-52.5 197.5q0 123 54.5 198t149.5 75q92 0 149 -73v282l46 -6v-213h361v-37l-306 -444h148q7 76 40 118t87 42q41 0 67 -24.5t26 -66.5zM272 29
q53 0 88.5 26t64.5 78v277q-56 83 -143 83q-74 0 -118.5 -62t-43.5 -172t41.5 -170t110.5 -60zM471 481v-445l306 445h-306zM798 165q-73 0 -86 -124q76 -1 108 15t32 54q0 55 -54 55z" />
    <glyph glyph-name="uni02A6" unicode="&#x2a6;" horiz-adv-x="657" 
d="M450 294q83 -23 118 -57t35 -93q0 -75 -65.5 -115t-184.5 -40q-245 0 -245 187v307h-87v39h87v127l46 5v-132h118l-6 -39h-112v-305q0 -75 45.5 -111.5t154.5 -36.5q201 0 201 112q0 46 -26.5 70.5t-101.5 45.5q-80 22 -113.5 54.5t-33.5 87.5q0 58 46.5 95t113.5 37
q85 0 160 -57l-24 -31q-67 49 -135 49q-49 0 -81 -25.5t-32 -67.5q0 -41 26 -63.5t96 -42.5z" />
    <glyph glyph-name="uni02A7" unicode="&#x2a7;" horiz-adv-x="551" 
d="M510 741q55 0 98 -33l-20 -30q-39 24 -77 24q-70 0 -70 -87v-691q0 -62 -31.5 -94.5t-84.5 -32.5q-54 0 -97 33l20 30q35 -23 76 -23q71 0 71 86v95q-69 -29 -135 -29q-152 0 -152 152v342h-87v39h87v127l46 5v-132h241v92q0 62 31 94.5t84 32.5zM261 30q62 0 134 25v428
h-241v-340q0 -113 107 -113z" />
    <glyph glyph-name="uni02A8" unicode="&#x2a8;" horiz-adv-x="732" 
d="M596 212q50 0 79 -27.5t29 -71.5q0 -57 -43 -90.5t-116 -33.5q-92 0 -150 56q-81 -56 -155 -56q-132 0 -132 134v360h-87v39h87v127l46 5v-132h138l-6 -39h-132v-357q0 -49 21.5 -72.5t69.5 -23.5q63 0 126 43q-49 71 -49 185q0 126 59.5 200t158.5 74q82 0 143 -51
l-24 -32q-51 43 -117 43q-77 0 -124 -60.5t-47 -173.5q0 -96 37 -155q59 60 100.5 84.5t87.5 24.5zM547 30q49 0 81 20t32 63q0 61 -65 61q-37 0 -71.5 -21t-93.5 -78q43 -45 117 -45z" />
    <glyph glyph-name="uni02A9" unicode="&#x2a9;" horiz-adv-x="865" 
d="M617 532q71 0 107 -41.5t36 -118.5v-448q0 -62 -31.5 -94.5t-84.5 -32.5q-54 0 -97 33l20 30q35 -23 76 -23q71 0 71 86v443q0 128 -104 128q-95 0 -172 -113v-381h-46v483h-232v-483h-46v483h-89v39h89v90q0 60 37.5 94.5t101.5 34.5q62 0 120 -28l-17 -35
q-52 23 -101 23q-95 0 -95 -91v-88h272l4 -93q74 103 181 103z" />
    <glyph glyph-name="uni02AA" unicode="&#x2aa;" horiz-adv-x="639" 
d="M339 -11q-111 0 -172.5 48.5t-61.5 135.5v562l46 6v-568q0 -69 47.5 -106t140.5 -37q198 0 198 112q0 46 -26.5 70.5t-101.5 45.5q-81 22 -114 54.5t-33 87.5q0 58 46.5 95t113.5 37q86 0 159 -57l-23 -31q-67 49 -135 49q-49 0 -81 -25.5t-32 -67.5q0 -41 26 -63.5
t95 -42.5q83 -23 118.5 -57t35.5 -93q0 -75 -64.5 -115t-181.5 -40z" />
    <glyph glyph-name="uni02AB" unicode="&#x2ab;" horiz-adv-x="621" 
d="M587 522v-37l-302 -444h298l-5 -41h-336q-28 -11 -51 -11q-40 0 -63 23.5t-23 69.5v653l46 6v-657q0 -54 45 -54q18 0 37 7l299 444h-274v41h329z" />
    <glyph glyph-name="uni02AC" unicode="&#x2ac;" horiz-adv-x="460" 
d="M415 662l-70 -262h-51l-63 224l-63 -224h-51l-72 262h42l58 -229l65 229h44l65 -229l57 229h39zM415 262l-70 -262h-51l-63 224l-63 -224h-51l-72 262h42l58 -229l65 229h44l65 -229l57 229h39z" />
    <glyph glyph-name="uni02AD" unicode="&#x2ad;" horiz-adv-x="319" 
d="M30 401v126h259v-126h-38v90h-182v-90h-39zM30 1v126h259v-126h-38v90h-182v-90h-39z" />
    <glyph glyph-name="uni02AE" unicode="&#x2ae;" horiz-adv-x="662" 
d="M506 522h46v-725l-46 8v287q-74 -103 -179 -103q-70 0 -106.5 42.5t-36.5 118.5v255q0 86 -71 86q-41 0 -76 -23l-20 30q43 33 97 33q53 0 84.5 -32.5t31.5 -94.5v-248q0 -128 104 -128q95 0 172 113v381z" />
    <glyph glyph-name="uni02AF" unicode="&#x2af;" horiz-adv-x="662" 
d="M699 -140l20 -30q-43 -33 -97 -33q-53 0 -84.5 32.5t-31.5 94.5v168q-74 -103 -179 -103q-70 0 -106.5 42.5t-36.5 118.5v255q0 86 -71 86q-41 0 -76 -23l-20 30q43 33 97 33q53 0 84.5 -32.5t31.5 -94.5v-248q0 -128 104 -128q95 0 172 113v381h46v-599q0 -86 71 -86
q41 0 76 23z" />
    <glyph glyph-name="uni02B0" unicode="&#x2b0;" horiz-adv-x="308" 
d="M182 669q39 0 60 -21.5t21 -58.5v-189h-40v180q0 55 -51 55q-46 0 -87 -49v-186h-40v369l40 5v-154q41 49 97 49z" />
    <glyph glyph-name="uni02B1" unicode="&#x2b1;" horiz-adv-x="308" 
d="M182 669q39 0 60 -21.5t21 -58.5v-189h-40v180q0 55 -51 55q-46 0 -87 -49v-186h-40v301q0 33 23 52.5t63 19.5q38 0 71 -14l-13 -28q-27 10 -54 10q-50 0 -50 -42v-79q41 49 97 49z" />
    <glyph glyph-name="uni02B2" unicode="&#x2b2;" horiz-adv-x="193" 
d="M121 782q13 0 20.5 -7.5t7.5 -18.5t-8 -18.5t-20 -7.5t-20 7.5t-8 18.5t7.5 18.5t20.5 7.5zM141 662v-249q0 -51 -19 -74.5t-65 -41.5l-12 28q32 15 44 32t12 55v250h40z" />
    <glyph glyph-name="uni02B4" unicode="&#x2b4;" horiz-adv-x="240" 
d="M154 662h41v-262h-33l-5 58q-24 -64 -82 -64q-16 0 -30 4l7 36q12 -3 26 -3q29 0 46.5 19.5t29.5 59.5v152z" />
    <glyph glyph-name="uni02B7" unicode="&#x2b7;" horiz-adv-x="460" 
d="M415 662l-70 -262h-51l-63 224l-63 -224h-51l-72 262h42l58 -229l65 229h44l65 -229l57 229h39z" />
    <glyph glyph-name="uni02B8" unicode="&#x2b8;" horiz-adv-x="341" 
d="M296 662l-100 -263q-18 -47 -45 -70.5t-80 -32.5l-5 30q42 9 60 24t32 50h-14l-99 262h44l82 -234l83 234h42z" />
    <glyph glyph-name="uni02B9" unicode="&#x2b9;" horiz-adv-x="285" 
d="M75 436l86 248h49l-100 -248h-35z" />
    <glyph glyph-name="uni02BA" unicode="&#x2ba;" horiz-adv-x="420" 
d="M75 436l86 248h49l-100 -248h-35zM210 436l86 248h49l-100 -248h-35z" />
    <glyph glyph-name="uni02BB" unicode="&#x2bb;" horiz-adv-x="157" 
d="M69 588q-18 0 -28.5 11t-10.5 27q0 15 12 41l53 118h32l-37 -128q18 -11 18 -31q0 -16 -10.5 -27t-28.5 -11z" />
    <glyph glyph-name="uni02BC" unicode="&#x2bc;" horiz-adv-x="215" 
d="M109 737q18 0 28.5 -11t10.5 -27q0 -15 -12 -41l-53 -118h-32l37 128q-18 11 -18 31q0 16 10.5 27t28.5 11z" />
    <glyph glyph-name="uni02BF" unicode="&#x2bf;" horiz-adv-x="153" 
d="M123 636v31q-56 0 -56 59q0 28 14.5 43.5t41.5 15.5v30q-41 0 -67 -24.5t-26 -64.5t26 -65t67 -25z" />
    <glyph glyph-name="uni02C0" unicode="&#x2c0;" horiz-adv-x="224" 
d="M81 618v80q69 3 69 48q0 42 -48 42q-30 0 -58 -14l-14 29q36 21 77 21q40 0 63.5 -20.5t23.5 -55.5q0 -65 -73 -74v-56h-40z" />
    <glyph glyph-name="circumflex" unicode="&#x2c6;" horiz-adv-x="342" 
d="M51 647l-21 25l127 103h27l128 -103l-21 -25l-120 84z" />
    <glyph glyph-name="caron" unicode="&#x2c7;" horiz-adv-x="342" 
d="M291 763l21 -24l-127 -104h-27l-128 104l21 24l121 -84z" />
    <glyph glyph-name="uni02C8" unicode="&#x2c8;" horiz-adv-x="106" 
d="M30 636v210h46v-210h-46z" />
    <glyph glyph-name="uni02CA" unicode="&#x2ca;" horiz-adv-x="265" 
d="M214 776l21 -44l-190 -84l-15 28z" />
    <glyph glyph-name="uni02CB" unicode="&#x2cb;" horiz-adv-x="265" 
d="M51 776l184 -100l-15 -28l-190 84z" />
    <glyph glyph-name="uni02CC" unicode="&#x2cc;" horiz-adv-x="106" 
d="M30 -287v210h46v-210h-46z" />
    <glyph glyph-name="uni02CE" unicode="&#x2ce;" horiz-adv-x="265" 
d="M52 -58l183 -92l-13 -29l-192 77z" />
    <glyph glyph-name="uni02CF" unicode="&#x2cf;" horiz-adv-x="265" 
d="M214 -58l21 -44l-192 -77l-13 29z" />
    <glyph glyph-name="uni02D0" unicode="&#x2d0;" horiz-adv-x="209" 
d="M95 363l-38 102h94l-38 -102h-18zM95 102h18l38 -102h-94z" />
    <glyph glyph-name="uni02D1" unicode="&#x2d1;" horiz-adv-x="209" 
d="M95 363l-38 102h94l-38 -102h-18z" />
    <glyph glyph-name="uni02D4" unicode="&#x2d4;" horiz-adv-x="419" 
d="M347 233v-36h-275v36h118v146h38v-146h119z" />
    <glyph glyph-name="uni02D6" unicode="&#x2d6;" horiz-adv-x="457" 
d="M248 454v-138h136v-37h-136v-138h-40v138h-136v37h136v138h40z" />
    <glyph glyph-name="uni02D7" unicode="&#x2d7;" horiz-adv-x="457" 
d="M72 279v38h312v-38h-312z" />
    <glyph glyph-name="breve" unicode="&#x2d8;" horiz-adv-x="306" 
d="M153 656q-49 0 -82.5 28t-40.5 75l32 7q20 -70 91 -70t91 70l32 -7q-7 -46 -40.5 -74.5t-82.5 -28.5z" />
    <glyph glyph-name="dotaccent" unicode="&#x2d9;" horiz-adv-x="132" 
d="M66 744q16 0 26 -10t10 -25t-10 -25t-26 -10t-26 10t-10 25t10 25t26 10z" />
    <glyph glyph-name="ring" unicode="&#x2da;" horiz-adv-x="246" 
d="M123 815q41 0 67 -24.5t26 -64.5t-26 -65t-67 -25t-67 25t-26 65t26 64.5t67 24.5zM123 785q-27 0 -41.5 -15.5t-14.5 -43.5q0 -59 56 -59t56 59q0 28 -14.5 43.5t-41.5 15.5z" />
    <glyph glyph-name="ogonek" unicode="&#x2db;" horiz-adv-x="229" 
d="M218 22l12 -22q-66 -30 -94 -56t-28 -63q0 -53 65 -53q25 0 57 6l-4 -40q-35 -7 -57 -7q-51 0 -78.5 25t-27.5 64q0 47 38 81.5t117 64.5z" />
    <glyph glyph-name="tilde" unicode="&#x2dc;" horiz-adv-x="349" 
d="M233 670q-27 0 -64.5 22t-52.5 22q-30 0 -57 -37l-29 15q37 60 86 60q22 0 60 -22t57 -22q28 0 57 43l29 -15q-32 -66 -86 -66z" />
    <glyph glyph-name="hungarumlaut" unicode="&#x2dd;" horiz-adv-x="293" 
d="M220 804l43 -23l-88 -136l-31 15zM99 803l43 -22l-81 -132l-31 15z" />
    <glyph glyph-name="uni02DE" unicode="&#x2de;" horiz-adv-x="330" 
d="M259 326q-53 0 -83 31t-30 90v34l-115 -56v41l115 56h44v-71q0 -86 71 -86q37 0 76 24l21 -30q-45 -33 -99 -33z" />
    <glyph glyph-name="uni02E0" unicode="&#x2e0;" horiz-adv-x="342" 
d="M297 662l-104 -232q33 -55 33 -86q0 -22 -14.5 -35t-40.5 -13t-40.5 12.5t-14.5 35.5q0 31 34 85l-105 233h44l82 -205l83 205h43zM191 347q0 20 -20 58q-20 -38 -20 -58q0 -21 20 -21t20 21z" />
    <glyph glyph-name="uni02E1" unicode="&#x2e1;" horiz-adv-x="182" 
d="M101 394q-26 0 -41 14t-15 42v319l40 4v-323q0 -23 23 -23q8 0 20 4l9 -30q-16 -7 -36 -7z" />
    <glyph glyph-name="uni02E2" unicode="&#x2e2;" horiz-adv-x="307" 
d="M158 669q51 0 96 -31l-20 -26q-34 23 -75 23q-27 0 -43.5 -10t-16.5 -27t14.5 -26t55.5 -19q50 -13 71.5 -30.5t21.5 -50.5q0 -35 -31 -56.5t-79 -21.5q-62 0 -107 35l21 24q42 -26 86 -26q30 0 48.5 11.5t18.5 31.5q0 21 -14.5 31.5t-59.5 21.5q-46 11 -67 28.5
t-21 45.5q0 32 28.5 52t72.5 20z" />
    <glyph glyph-name="uni02E3" unicode="&#x2e3;" horiz-adv-x="342" 
d="M195 541l102 -141h-47l-80 117l-79 -117h-46l101 139l-89 123h47l67 -100l68 100h45z" />
    <glyph glyph-name="uni02E4" unicode="&#x2e4;" horiz-adv-x="324" 
d="M201 400h-41v151l-17 5q-45 11 -71.5 34.5t-26.5 71.5q0 50 35 80.5t92 30.5q58 0 107 -41l-22 -23q-42 32 -83 32q-40 0 -63.5 -21t-23.5 -58q0 -38 19 -54t62 -27l33 -8v-173z" />
    <glyph glyph-name="uni02E5" unicode="&#x2e5;" horiz-adv-x="319" 
d="M247 0v646h-217v38h259v-684h-42z" />
    <glyph glyph-name="uni02E6" unicode="&#x2e6;" horiz-adv-x="319" 
d="M247 684h42v-684h-42v474h-217v38h217v172z" />
    <glyph glyph-name="uni02E7" unicode="&#x2e7;" horiz-adv-x="319" 
d="M247 684h42v-684h-42v324h-217v38h217v322z" />
    <glyph glyph-name="uni02E8" unicode="&#x2e8;" horiz-adv-x="319" 
d="M247 684h42v-684h-42v174h-217v38h217v472z" />
    <glyph glyph-name="uni02E9" unicode="&#x2e9;" horiz-adv-x="319" 
d="M247 684h42v-684h-259v38h217v646z" />
    <glyph glyph-name="uni02EE" unicode="&#x2ee;" horiz-adv-x="335" 
d="M103 733q17 0 26 -9.5t9 -24.5q0 -13 -11 -37l-47 -106h-29l33 115q-16 10 -16 28q0 15 9.5 24.5t25.5 9.5zM232 733q16 0 25.5 -9.5t9.5 -24.5q0 -13 -11 -37l-48 -106h-28l33 115q-16 10 -16 28q0 15 9.5 24.5t25.5 9.5z" />
    <glyph glyph-name="gravecomb" unicode="&#x300;" horiz-adv-x="0" 
d="M-214 776l184 -100l-15 -28l-190 84z" />
    <glyph glyph-name="acutecomb" unicode="&#x301;" horiz-adv-x="0" 
d="M-51 776l21 -44l-190 -84l-15 28z" />
    <glyph glyph-name="uni0302" unicode="&#x302;" horiz-adv-x="0" 
d="M-291 647l-21 25l127 103h27l128 -103l-21 -25l-120 84z" />
    <glyph glyph-name="tildecomb" unicode="&#x303;" horiz-adv-x="0" 
d="M-116 670q-27 0 -64.5 22t-52.5 22q-30 0 -57 -37l-29 15q37 60 86 60q22 0 60 -22t57 -22q28 0 57 43l29 -15q-32 -66 -86 -66z" />
    <glyph glyph-name="uni0304" unicode="&#x304;" horiz-adv-x="0" 
d="M-30 679h-229v39h229v-39z" />
    <glyph glyph-name="uni0306" unicode="&#x306;" horiz-adv-x="0" 
d="M-153 656q-49 0 -82.5 28t-40.5 75l32 7q20 -70 91 -70t91 70l32 -7q-7 -46 -40.5 -74.5t-82.5 -28.5z" />
    <glyph glyph-name="uni0307" unicode="&#x307;" horiz-adv-x="0" 
d="M-66 744q16 0 26 -10t10 -25t-10 -25t-26 -10t-26 10t-10 25t10 25t26 10z" />
    <glyph glyph-name="uni0308" unicode="&#x308;" horiz-adv-x="0" 
d="M-245 732q15 0 24.5 -9.5t9.5 -23.5t-9.5 -23.5t-24.5 -9.5t-24.5 9.5t-9.5 23.5t9.5 23.5t24.5 9.5zM-63 732q14 0 23.5 -9.5t9.5 -23.5t-9.5 -23.5t-23.5 -9.5q-15 0 -24.5 9.5t-9.5 23.5t9.5 23.5t24.5 9.5z" />
    <glyph glyph-name="hookabovecomb" unicode="&#x309;" horiz-adv-x="0" 
d="M-142 618v80q69 3 69 48q0 42 -48 42q-30 0 -58 -14l-14 29q36 21 77 21q40 0 63.5 -20.5t23.5 -55.5q0 -65 -73 -74v-56h-40z" />
    <glyph glyph-name="uni030A" unicode="&#x30a;" horiz-adv-x="0" 
d="M-123 815q41 0 67 -24.5t26 -64.5t-26 -65t-67 -25t-67 25t-26 65t26 64.5t67 24.5zM-123 785q-27 0 -41.5 -15.5t-14.5 -43.5q0 -59 56 -59t56 59q0 28 -14.5 43.5t-41.5 15.5z" />
    <glyph glyph-name="uni030B" unicode="&#x30b;" horiz-adv-x="0" 
d="M-73 804l43 -23l-88 -136l-31 15zM-194 803l43 -22l-81 -132l-31 15z" />
    <glyph glyph-name="uni030C" unicode="&#x30c;" horiz-adv-x="0" 
d="M-51 763l21 -24l-127 -104h-27l-128 104l21 24l121 -84z" />
    <glyph glyph-name="uni030D" unicode="&#x30d;" horiz-adv-x="0" 
d="M-76 636v210h46v-210h-46z" />
    <glyph glyph-name="uni030F" unicode="&#x30f;" horiz-adv-x="0" 
d="M-220 804l76 -144l-31 -15l-88 136zM-98 803l68 -139l-31 -15l-80 132z" />
    <glyph glyph-name="uni0311" unicode="&#x311;" horiz-adv-x="0" 
d="M-153 737q49 0 82.5 -28.5t40.5 -74.5l-32 -7q-20 70 -91 70t-91 -70l-32 7q7 47 40.5 75t82.5 28z" />
    <glyph glyph-name="uni0312" unicode="&#x312;" horiz-adv-x="0" 
d="M-80 590q-18 0 -29 11t-11 27q0 17 21 62l40 86h29l-33 -114q21 -10 21 -34q0 -16 -11 -27t-27 -11z" />
    <glyph glyph-name="uni0313" unicode="&#x313;" horiz-adv-x="0" 
d="M-70 776q18 0 29 -11t11 -27q0 -17 -21 -62l-40 -86h-29l33 114q-21 10 -21 34q0 16 11 27t27 11z" />
    <glyph glyph-name="uni0316" unicode="&#x316;" horiz-adv-x="0" 
d="M-213 -58l183 -92l-13 -29l-192 77z" />
    <glyph glyph-name="uni0317" unicode="&#x317;" horiz-adv-x="0" 
d="M-51 -58l21 -44l-192 -77l-13 29z" />
    <glyph glyph-name="uni0318" unicode="&#x318;" horiz-adv-x="0" 
d="M-68 -71h38v-266h-38v115h-133v35h133v116z" />
    <glyph glyph-name="uni0319" unicode="&#x319;" horiz-adv-x="0" 
d="M-163 -71v-116h133v-35h-133v-115h-38v266h38z" />
    <glyph glyph-name="uni031A" unicode="&#x31a;" horiz-adv-x="0" 
d="M-190 757h160v-165h-39v129h-121v36z" />
    <glyph glyph-name="uni031B" unicode="&#x31b;" horiz-adv-x="0" 
d="M-125 433l-9 30q34 4 49 18t15 41q0 37 -14 72l36 11q18 -32 18 -81q0 -85 -95 -91z" />
    <glyph glyph-name="uni031C" unicode="&#x31c;" horiz-adv-x="0" 
d="M-30 -245v31q-56 0 -56 59q0 28 14.5 43.5t41.5 15.5v30q-41 0 -67 -24.5t-26 -64.5t26 -65t67 -25z" />
    <glyph glyph-name="uni031D" unicode="&#x31d;" horiz-adv-x="0" 
d="M-31 -253v-36h-275v36h118v146h38v-146h119z" />
    <glyph glyph-name="uni031E" unicode="&#x31e;" horiz-adv-x="0" 
d="M-31 -143h-119v-146h-38v146h-118v36h275v-36z" />
    <glyph glyph-name="uni031F" unicode="&#x31f;" horiz-adv-x="0" 
d="M-127 -86v-94h97v-35h-97v-93h-39v93h-97v35h97v94h39z" />
    <glyph glyph-name="uni0320" unicode="&#x320;" horiz-adv-x="0" 
d="M-263 -215v35h232v-35h-232z" />
    <glyph glyph-name="uni0321" unicode="&#x321;" horiz-adv-x="0" 
d="M-146 -203q-54 0 -97 33l20 30q35 -23 76 -23q71 0 71 86v78h46v-77q0 -62 -31.5 -94.5t-84.5 -32.5z" />
    <glyph glyph-name="dotbelowcomb" unicode="&#x323;" horiz-adv-x="0" 
d="M-66 -160q-16 0 -26 10t-10 25t10 25t26 10t26 -10t10 -25t-10 -25t-26 -10z" />
    <glyph glyph-name="uni0324" unicode="&#x324;" horiz-adv-x="0" 
d="M-245 -92q15 0 24.5 -9.5t9.5 -23.5t-9.5 -23.5t-24.5 -9.5t-24.5 9.5t-9.5 23.5t9.5 23.5t24.5 9.5zM-63 -92q14 0 23.5 -9.5t9.5 -23.5t-9.5 -23.5t-23.5 -9.5q-15 0 -24.5 9.5t-9.5 23.5t9.5 23.5t24.5 9.5z" />
    <glyph glyph-name="uni0325" unicode="&#x325;" horiz-adv-x="0" 
d="M-123 -66q41 0 67 -24.5t26 -64.5t-26 -65t-67 -25t-67 25t-26 65t26 64.5t67 24.5zM-123 -96q-27 0 -41.5 -15.5t-14.5 -43.5q0 -59 56 -59t56 59q0 28 -14.5 43.5t-41.5 15.5z" />
    <glyph glyph-name="uni0326" unicode="&#x326;" horiz-adv-x="0" 
d="M-70 -87q18 0 29 -11t11 -27q0 -17 -21 -62l-40 -86h-29l33 114q-21 11 -21 34q0 16 11 27t27 11z" />
    <glyph glyph-name="uni0327" unicode="&#x327;" horiz-adv-x="0" 
d="M-122 16v-83q92 -7 92 -73q0 -38 -28.5 -60t-70.5 -22q-43 0 -76 20l16 30q28 -15 59 -15q25 0 41 12t16 35q0 45 -89 45l9 111h31z" />
    <glyph glyph-name="uni0328" unicode="&#x328;" horiz-adv-x="0" 
d="M-44 22l12 -22q-66 -30 -94 -56t-28 -63q0 -53 65 -53q26 0 57 6l-4 -40q-35 -7 -57 -7q-51 0 -78.5 25t-27.5 64q0 47 38 81.5t117 64.5z" />
    <glyph glyph-name="uni0329" unicode="&#x329;" horiz-adv-x="0" 
d="M-79 -287v210h46v-210h-46z" />
    <glyph glyph-name="uni032A" unicode="&#x32a;" horiz-adv-x="0" 
d="M-289 -225v126h259v-126h-38v90h-182v-90h-39z" />
    <glyph glyph-name="uni032B" unicode="&#x32b;" horiz-adv-x="0" 
d="M-56 -65l26 -2q-5 -48 -27 -76.5t-55 -28.5q-55 0 -76 75q-9 -35 -29 -55t-47 -20q-32 0 -54.5 28.5t-26.5 76.5l25 2q10 -64 56 -64q47 0 57 64h39q10 -64 56 -64t56 64z" />
    <glyph glyph-name="uni032C" unicode="&#x32c;" horiz-adv-x="0" 
d="M-51 -74l21 -25l-127 -98h-27l-128 98l21 25l121 -79z" />
    <glyph glyph-name="uni032D" unicode="&#x32d;" horiz-adv-x="0" 
d="M-291 -199l-21 25l127 104h27l128 -104l-21 -25l-120 85z" />
    <glyph glyph-name="uni032F" unicode="&#x32f;" horiz-adv-x="0" 
d="M-153 -58q49 0 82.5 -28.5t40.5 -74.5l-32 -7q-20 70 -91 70t-91 -70l-32 7q7 47 40.5 75t82.5 28z" />
    <glyph glyph-name="uni0330" unicode="&#x330;" horiz-adv-x="0" 
d="M-116 -163q-27 0 -64.5 22t-52.5 22q-30 0 -57 -37l-29 15q37 60 86 60q22 0 60 -22t57 -22q28 0 57 43l29 -15q-32 -66 -86 -66z" />
    <glyph glyph-name="uni0331" unicode="&#x331;" horiz-adv-x="0" 
d="M-30 -154h-229v39h229v-39z" />
    <glyph glyph-name="uni0332" unicode="&#x332;" horiz-adv-x="0" 
d="M-30 -154h-344v39h344v-39z" />
    <glyph glyph-name="uni0334" unicode="&#x334;" horiz-adv-x="0" 
d="M-128 269q-32 0 -82.5 28t-71.5 28q-36 0 -69 -44l-30 16q21 33 44 51t58 18q33 0 82 -28t71 -28t36 10t31 32l29 -16q-20 -32 -42 -49.5t-56 -17.5z" />
    <glyph glyph-name="uni0335" unicode="&#x335;" horiz-adv-x="0" 
d="M-327 293v40h258v-40h-258z" />
    <glyph glyph-name="uni0336" unicode="&#x336;" horiz-adv-x="0" 
d="M-726 293v40h696v-40h-696z" />
    <glyph glyph-name="uni0339" unicode="&#x339;" horiz-adv-x="0" 
d="M-123 -245q41 0 67 25t26 65t-26 64.5t-67 24.5v-30q27 0 41.5 -15.5t14.5 -43.5q0 -59 -56 -59v-31z" />
    <glyph glyph-name="uni033A" unicode="&#x33a;" horiz-adv-x="0" 
d="M-289 -99h39v-90h182v90h38v-126h-259v126z" />
    <glyph glyph-name="uni033B" unicode="&#x33b;" horiz-adv-x="0" 
d="M-282 -224v146h252v-146h-252zM-245 -190h178v78h-178v-78z" />
    <glyph glyph-name="uni033C" unicode="&#x33c;" horiz-adv-x="0" 
d="M-112 -69q33 0 55 -28.5t27 -76.5l-26 -2q-10 64 -56 64t-56 -64h-39q-10 64 -57 64q-46 0 -56 -64l-25 2q4 48 26.5 76.5t54.5 28.5q27 0 47 -20t29 -55q21 75 76 75z" />
    <glyph glyph-name="uni033D" unicode="&#x33d;" horiz-adv-x="0" 
d="M-147 727l102 -127h-47l-80 105l-79 -105h-46l101 125l-89 111h47l67 -90l68 90h45z" />
    <glyph glyph-name="uni0342" unicode="&#x342;" horiz-adv-x="0" 
d="M-116 670q-27 0 -64.5 22t-52.5 22q-30 0 -57 -37l-29 15q37 60 86 60q22 0 60 -22t57 -22q28 0 57 43l29 -15q-32 -66 -86 -66z" />
    <glyph glyph-name="uni0345" unicode="&#x345;" horiz-adv-x="0" 
d="M-107 -167q-39 0 -60 22.5t-21 58.5v40h43v-39q0 -45 41 -45q27 0 53 17l21 -26q-37 -28 -77 -28z" />
    <glyph glyph-name="uni035C" unicode="&#x35c;" horiz-adv-x="0" 
d="M326 -69q-47 -38 -85.5 -63t-105 -47.5t-136.5 -22.5t-136.5 22.5t-105 47.5t-85.5 63l19 26q49 -33 82.5 -52.5t97 -39.5t128.5 -20q50 0 95.5 9.5t86 29t65.5 34.5t60 39z" />
    <glyph glyph-name="uni0361" unicode="&#x361;" horiz-adv-x="0" 
d="M328 651l-20 -26q-35 24 -60 39t-65.5 34.5t-86 29t-95.5 9.5q-65 0 -128.5 -20t-97 -39.5t-82.5 -52.5l-19 26q47 38 85.5 63t105 47.5t136.5 22.5t136.5 -22.5t105 -47.5t85.5 -63z" />
    <glyph glyph-name="uni0370" unicode="&#x370;" horiz-adv-x="516" 
d="M487 339h-325v-339h-47v684h47v-303h325v-42z" />
    <glyph glyph-name="uni0371" unicode="&#x371;" horiz-adv-x="466" 
d="M433 293v-42h-274v-251h-46v355q0 89 -23 168l43 6q26 -78 26 -183v-53h274z" />
    <glyph glyph-name="uni0372" unicode="&#x372;" horiz-adv-x="519" 
d="M15 684h489v-241h-43v198h-178v-641h-47v641h-178v-199h-43v242z" />
    <glyph glyph-name="uni0373" unicode="&#x373;" horiz-adv-x="472" 
d="M461 522v-41h-204v-676l-46 -8v684h-121q-43 0 -78 -10l-10 38q33 13 85 13h374z" />
    <glyph glyph-name="uni0374" unicode="&#x374;" horiz-adv-x="285" 
d="M75 436l86 248h49l-100 -248h-35z" />
    <glyph glyph-name="uni0375" unicode="&#x375;" horiz-adv-x="285" 
d="M210 109l-86 -248h-49l100 248h35z" />
    <glyph glyph-name="uni0376" unicode="&#x376;" horiz-adv-x="669" 
d="M554 684v-684h-47v375q0 159 6 255l-339 -630h-59v684h47v-376q0 -137 -6 -255l340 631h58z" />
    <glyph glyph-name="uni0377" unicode="&#x377;" horiz-adv-x="592" 
d="M478 117q0 -40 11 -58.5t37 -28.5l-15 -38q-43 14 -61 43t-18 83q0 179 7 350l-275 -468h-54v522h46v-332q0 -55 -4 -135l273 467h53v-405z" />
    <glyph glyph-name="uni037A" unicode="&#x37a;" horiz-adv-x="239" 
d="M111 -167q-39 0 -60 22.5t-21 58.5v40h43v-39q0 -45 41 -45q27 0 53 17l21 -26q-37 -28 -77 -28z" />
    <glyph glyph-name="uni037B" unicode="&#x37b;" horiz-adv-x="504" 
d="M208 532q108 0 169 -72.5t61 -201.5q0 -126 -66 -197.5t-174 -71.5q-89 0 -164 56l22 30q72 -45 143 -45q85 0 137 58t52 170q0 116 -48 175t-132 59q-76 0 -147 -43l-23 32q78 51 170 51z" />
    <glyph glyph-name="uni037C" unicode="&#x37c;" horiz-adv-x="504" 
d="M305 532q89 0 161 -51l-24 -31q-64 42 -135 42q-86 0 -138.5 -60.5t-52.5 -173.5q0 -112 52 -170t138 -58q70 0 142 45l23 -30q-77 -56 -165 -56q-108 0 -173.5 71.5t-65.5 197.5q0 125 65.5 199.5t172.5 74.5zM311 295q16 0 26 -10t10 -25t-10 -25t-26 -10t-26 10
t-10 25t10 25t26 10z" />
    <glyph glyph-name="uni037D" unicode="&#x37d;" horiz-adv-x="504" 
d="M208 532q108 0 169 -72.5t61 -201.5q0 -126 -66 -197.5t-174 -71.5q-89 0 -164 56l22 30q72 -45 143 -45q85 0 137 58t52 170q0 116 -48 175t-132 59q-76 0 -147 -43l-23 32q78 51 170 51zM193 295q16 0 26 -10t10 -25t-10 -25t-26 -10t-26 10t-10 25t10 25t26 10z" />
    <glyph glyph-name="uni037E" unicode="&#x37e;" horiz-adv-x="195" 
d="M97 467q18 0 29.5 -11.5t11.5 -28.5t-11.5 -28.5t-29.5 -11.5q-17 0 -28.5 11.5t-11.5 28.5t11.5 28.5t28.5 11.5zM97 69q18 0 29.5 -11.5t11.5 -28.5q0 -15 -14 -49l-52 -126h-34l40 141q-21 10 -21 34q0 17 11.5 28.5t28.5 11.5z" />
    <glyph glyph-name="uni037F" unicode="&#x37f;" horiz-adv-x="286" 
d="M177 684v-594q0 -84 -31 -125.5t-117 -77.5l-13 35q68 31 90.5 66t22.5 105v591h48z" />
    <glyph glyph-name="tonos" unicode="&#x384;" horiz-adv-x="113" 
d="M31 759l52 -4l-20 -155h-32v159z" />
    <glyph glyph-name="dieresistonos" unicode="&#x385;" horiz-adv-x="309" 
d="M141 849l45 -2l-17 -134h-28v136zM64 702q15 0 24.5 -9.5t9.5 -23.5t-9.5 -23.5t-24.5 -9.5t-24.5 9.5t-9.5 23.5t9.5 23.5t24.5 9.5zM246 702q14 0 23.5 -9.5t9.5 -23.5t-9.5 -23.5t-23.5 -9.5q-15 0 -24.5 9.5t-9.5 23.5t9.5 23.5t24.5 9.5z" />
    <glyph glyph-name="Alphatonos" unicode="&#x386;" horiz-adv-x="568" 
d="M152 684l-19 -162h-34v165zM497 0l-63 192h-297l-63 -192h-48l231 684h60l231 -684h-51zM151 234h270l-134 411z" />
    <glyph glyph-name="anoteleia" unicode="&#x387;" horiz-adv-x="195" 
d="M97 361q18 0 29.5 -11.5t11.5 -28.5t-11.5 -28.5t-29.5 -11.5q-17 0 -28.5 11.5t-11.5 28.5t11.5 28.5t28.5 11.5z" />
    <glyph glyph-name="Epsilontonos" unicode="&#x388;" horiz-adv-x="542" 
d="M52 687l53 -3l-19 -162h-34v165zM493 684l-6 -41h-286v-266h247v-41h-247v-295h298v-41h-345v684h339z" />
    <glyph glyph-name="Etatonos" unicode="&#x389;" horiz-adv-x="705" 
d="M52 687l53 -3l-19 -162h-34v165zM543 0v339h-342v-339h-47v684h47v-303h342v303h48v-684h-48z" />
    <glyph glyph-name="Iotatonos" unicode="&#x38a;" horiz-adv-x="316" 
d="M52 687l53 -3l-19 -162h-34v165zM201 684v-684h-47v684h47z" />
    </font>
</defs>
</svg>
